<?xml version="1.0" encoding="UTF-8"?>
<svg version="1.1" xmlns="http://www.w3.org/2000/svg" width="1875" height="1875">
<path d="M0 0 C74.83951087 0 74.83951087 0 90.875 6.1875 C91.66817627 6.48865723 92.46135254 6.78981445 93.27856445 7.10009766 C108.00963768 12.96121947 117.97933621 23.23488958 124.52734375 37.51953125 C131.14972546 53.17083657 131.69527188 70.74423643 126.25 86.875 C122.69539752 95.61066514 118.03893475 102.71077428 111 109 C118.93116162 118.55806656 127.71838209 128.35919105 139 134 C151.32632983 135.03568336 161.59397538 132.62201567 172 126 C170.76636719 125.87044922 170.76636719 125.87044922 169.5078125 125.73828125 C160.32005701 124.58185475 152.08549263 122.74409793 145.625 115.6875 C142.82781046 112.0127608 140.74941495 108.26884265 139 104 C138.55269531 102.9171875 138.10539062 101.834375 137.64453125 100.71875 C133.03913151 88.43768404 131.74306307 76.23070132 136.6171875 63.6875 C140.92440718 55.31640639 147.21471906 50.18249142 156 47 C173.6080226 41.71481154 191.96039454 47.21448364 208 55 C222.36537685 63.39488017 230.34298285 76.12228546 234.8125 91.9375 C239.96049923 112.92316747 234.26677256 132.79482777 223.7421875 151.19921875 C206.29234566 179.2519914 180.24520959 202.17450498 147.6875 210.4375 C127.53127107 215.00863232 108.79021722 211.48686489 91 201 C73.24655505 189.44581805 61.87108057 174.43138403 52 156 C51.99857498 156.59246521 51.99714996 157.18493042 51.99568176 157.79534912 C51.97600022 163.96006611 51.92176023 170.12379086 51.84741211 176.28808594 C51.82421032 178.58879478 51.80983131 180.88961016 51.80444336 183.19042969 C51.79517009 186.49742192 51.75421288 189.80273329 51.70703125 193.109375 C51.71293022 194.6533194 51.71293022 194.6533194 51.71894836 196.22845459 C51.57557098 203.240678 51.57557098 203.240678 48.99487305 206.64526367 C45.01101744 208.44736808 41.70459428 208.59359873 37.375 208.56640625 C36.5504834 208.57260483 35.7259668 208.57880341 34.87646484 208.58518982 C33.13835833 208.5922736 31.40018376 208.58913913 29.66210938 208.57641602 C27.00784164 208.56254099 24.3570957 208.596648 21.703125 208.63476562 C20.01041581 208.63571683 18.31770222 208.63385791 16.625 208.62890625 C15.83528809 208.64216446 15.04557617 208.65542267 14.23193359 208.66908264 C9.98303673 208.59753371 8.43833467 208.3495864 4.99145508 205.60058594 C2.03541808 201.74037922 2.60053056 199.71373937 3 195 C2.01 195 1.02 195 0 195 C0 130.65 0 66.3 0 0 Z M51 50 C51 58.25 51 66.5 51 75 C63.99765667 75.25324748 63.99765667 75.25324748 74.875 69.875 C77.8533917 65.84541123 80.43266157 60.96987449 79.68359375 55.828125 C78.71700155 53.2431813 77.33772314 52.40263388 75 51 C72.02209933 50.06733037 69.34576542 49.88239894 66.234375 49.90234375 C65.43225586 49.90484131 64.63013672 49.90733887 63.80371094 49.90991211 C62.79598633 49.91901611 61.78826172 49.92812012 60.75 49.9375 C57.5325 49.958125 54.315 49.97875 51 50 Z M169.625 85.625 C167.24084375 89.10953605 167.20073743 91.78451395 167 96 C167.33 96.99 167.66 97.98 168 99 C168.85464844 99.12117188 169.70929688 99.24234375 170.58984375 99.3671875 C171.69457031 99.53476563 172.79929687 99.70234375 173.9375 99.875 C175.59072266 100.11863281 175.59072266 100.11863281 177.27734375 100.3671875 C178.17582031 100.57601563 179.07429688 100.78484375 180 101 C180.33 101.66 180.66 102.32 181 103 C183.58605332 103.4683265 183.58605332 103.4683265 186.5625 103.625 C187.57441406 103.69976563 188.58632812 103.77453125 189.62890625 103.8515625 C190.80259766 103.92503906 190.80259766 103.92503906 192 104 C193.42373936 99.04025224 193.64481851 94.11303149 193 89 C190.50879674 85.06229162 187.9842629 83.76968049 183.625 82.5625 C178.23506945 81.6208316 174.17527407 82.51165458 169.625 85.625 Z " fill="#FEF7DF" transform="translate(1482,938)"/>
<path d="M0 0 C0.33 0.99 0.66 1.98 1 3 C1.70125 2.773125 2.4025 2.54625 3.125 2.3125 C6.94350585 1.89744502 8.77971933 2.9962698 12 5 C14.35620437 8.53430656 14.48991613 9.83571287 14 14 C11.3264357 19.46865426 6.88469846 22.99211969 2.33984375 26.94921875 C0.48214418 28.57741954 -1.28311207 30.22682066 -3 32 C-2.505 32.969375 -2.01 33.93875 -1.5 34.9375 C0.33977586 39.30696767 0.86592251 43.31887436 0 48 C-3.51167019 54.17569586 -9.57701611 57.2651095 -16 60 C-21.20892821 61.23131843 -23.38046775 60.75206177 -28 58 C-28.94875 57.443125 -29.8975 56.88625 -30.875 56.3125 C-31.57625 55.879375 -32.2775 55.44625 -33 55 C-34.12894876 55.93274109 -35.25300876 56.87140122 -36.375 57.8125 C-37.00148438 58.33457031 -37.62796875 58.85664062 -38.2734375 59.39453125 C-40.2221048 61.08225739 -40.2221048 61.08225739 -42 64 C-34.08 64 -26.16 64 -18 64 C-18 64.66 -18 65.32 -18 66 C-16.1746875 65.9071875 -16.1746875 65.9071875 -14.3125 65.8125 C-10.41925275 65.8125 -8.08597952 66.47510766 -5 69 C-3.78049882 72.65850355 -3.77746641 76.06403569 -3.75 79.875 C-3.7190625 80.93654297 -3.7190625 80.93654297 -3.6875 82.01953125 C-3.65391176 86.52875288 -4.12674846 89.46885441 -7 93 C-10.69540402 94.23180134 -14.10303378 94.12412112 -17.94921875 94.09765625 C-18.72183548 94.0962413 -19.49445221 94.09482635 -20.29048157 94.09336853 C-22.75619389 94.08777466 -25.22181515 94.07522333 -27.6875 94.0625 C-29.36002473 94.05748421 -31.03255088 94.05292144 -32.70507812 94.04882812 C-36.80342046 94.03780724 -40.90169479 94.02054684 -45 94 C-44.99208089 94.66923115 -44.98416178 95.3384623 -44.97600269 96.02797318 C-44.78387903 112.35523898 -44.60912672 128.68259061 -44.45341206 145.01024246 C-44.37769434 152.90635892 -44.29622244 160.80233572 -44.20092773 168.69824219 C-44.11782799 175.58493608 -44.04580638 182.47164429 -43.98676747 189.35858798 C-43.95516416 193.00099938 -43.9182318 196.64317135 -43.86800575 200.2853775 C-43.81197399 204.36371233 -43.78069137 208.44189444 -43.7512207 212.52050781 C-43.72101585 214.30723907 -43.72101585 214.30723907 -43.69020081 216.13006592 C-43.61852661 234.96119805 -51.04558007 248.95645518 -63.99609375 262.09765625 C-83.06376004 280.79014154 -108.83846009 292.26727949 -135.62231445 292.31689453 C-162.57578643 291.88072807 -187.86903542 278.50024102 -206.44970703 259.51904297 C-222.5652552 242.29803383 -233.94940864 216.63146068 -233.33984375 192.8828125 C-231.77034518 174.95084037 -224.15316838 159.17146664 -212 146 C-211.42636719 145.34644531 -210.85273438 144.69289063 -210.26171875 144.01953125 C-201.46740141 134.51159388 -189.35585778 128.04258697 -176.375 127.375 C-163.01705694 127.80022541 -148.11233925 133.74076218 -138.73046875 143.31640625 C-128.13266476 155.88040764 -124.98701644 168.81263539 -125.8046875 184.87646484 C-126.53477974 192.81439277 -130.2797912 200.45579763 -136 206 C-144.70964899 212.07403347 -152.51714496 212.67486191 -163 212 C-166.45148133 211.2616234 -169.7102295 210.27345955 -173 209 C-162.67693009 216.38386251 -152.89668798 220.11071954 -140 219 C-126.22433857 216.6200175 -117.10001146 209.10745375 -108 199 C-107.67 198.34 -107.34 197.68 -107 197 C-106.34 197 -105.68 197 -105 197 C-104.87367188 196.41734375 -104.74734375 195.8346875 -104.6171875 195.234375 C-103.829076 192.38121187 -102.52090762 189.99193712 -101.1328125 187.390625 C-98.03857319 180.86071307 -96.55385603 175.64411964 -96.56762695 168.47265625 C-96.5574353 167.66194168 -96.54724365 166.85122711 -96.53674316 166.01594543 C-96.50680636 163.3647249 -96.49737709 160.71386678 -96.48828125 158.0625 C-96.4714202 156.21304136 -96.45326805 154.36359407 -96.43388367 152.51416016 C-96.38653235 147.66782176 -96.35662701 142.82152944 -96.33044434 137.97503662 C-96.30056355 133.02102564 -96.25405914 128.06717317 -96.20898438 123.11328125 C-96.12312055 113.40893734 -96.05570025 103.70456066 -96 94 C-97.09465576 94.01571045 -98.18931152 94.0314209 -99.31713867 94.04760742 C-103.38916631 94.1020211 -107.46116197 94.13639156 -111.53344727 94.16479492 C-113.29391896 94.17985553 -115.0543533 94.20030826 -116.81469727 94.22631836 C-119.34921503 94.26282229 -121.88323552 94.27975354 -124.41796875 94.29296875 C-125.20149216 94.30845261 -125.98501556 94.32393646 -126.7922821 94.33988953 C-131.36261782 94.34128826 -134.42371177 93.94626854 -138 91 C-139.28317892 87.15046324 -139.06643637 84.05261865 -139 80 C-139.66 80 -140.32 80 -141 80 C-141 74.72 -141 69.44 -141 64 C-118.23 64 -95.46 64 -72 64 C-71.67 63.01 -71.34 62.02 -71 61 C-72.98 59.68 -74.96 58.36 -77 57 C-77.70125 57.474375 -78.4025 57.94875 -79.125 58.4375 C-82.29135313 60.15834409 -84.4001657 60.85306799 -88 61 C-91.5123018 59.76036407 -93.4576948 58.69724955 -95.75 55.75 C-97.19527089 52.57040403 -98.09311587 49.36842677 -99 46 C-99.33 45.67 -99.66 45.34 -100 45 C-100.07289328 40.77218948 -100.07082919 38.2615248 -97.2890625 34.984375 C-91.98376985 30.29047295 -88.24018441 27.67090071 -81 28 C-80.67 28.99 -80.34 29.98 -80 31 C-78.58249437 30.88490339 -77.16598831 30.75746342 -75.75 30.625 C-74.96109375 30.55539062 -74.1721875 30.48578125 -73.359375 30.4140625 C-71.00467932 30.13735643 -71.00467932 30.13735643 -69.1875 28.96875 C-65.94317311 27.53197666 -62.72801508 27.78952893 -59.25 27.875 C-58.20392578 27.88853516 -58.20392578 27.88853516 -57.13671875 27.90234375 C-55.42433042 27.92580112 -53.71211996 27.96166896 -52 28 C-52 28.99 -52 29.98 -52 31 C-49.64828869 30.40138258 -47.3140622 29.73075648 -45 29 C-44.67 28.34 -44.34 27.68 -44 27 C-42.77539062 26.74089844 -41.55078125 26.48179687 -40.2890625 26.21484375 C-35.81442302 25.186294 -33.35545507 22.95122199 -30.375 19.5625 C-26.02784525 14.92203983 -21.51973243 10.78164988 -16.5 6.875 C-15.9126709 6.41424072 -15.3253418 5.95348145 -14.72021484 5.47875977 C-9.53640003 1.49161339 -6.58802748 -0.29945579 0 0 Z M-6 4 C-12.03699234 7.49570604 -16.70004141 12.59748793 -21 18 C-16.1396313 16.4805627 -12.93920644 13.67081346 -9.1875 10.375 C-8.59001953 9.859375 -7.99253906 9.34375 -7.37695312 8.8125 C-5.91287591 7.54753728 -4.45572845 6.27456166 -3 5 C-3.99 4.67 -4.98 4.34 -6 4 Z M-30 26 C-31.63676257 27.9600281 -31.63676257 27.9600281 -33 30 C-29.87802522 28.6910428 -29.87802522 28.6910428 -28 26 C-28.66 26 -29.32 26 -30 26 Z M-63 31 C-65.475 32.485 -65.475 32.485 -68 34 C-67.01 34.495 -67.01 34.495 -66 35 C-63.88316159 34.10836423 -63.88316159 34.10836423 -62 33 C-62.33 32.34 -62.66 31.68 -63 31 Z M-88 34 C-88.33 34.66 -88.66 35.32 -89 36 C-88.34 36 -87.68 36 -87 36 C-87.33 35.34 -87.66 34.68 -88 34 Z M-180 168 C-180.33 168.66 -180.66 169.32 -181 170 C-178.36 169.67 -175.72 169.34 -173 169 C-172.67 169.99 -172.34 170.98 -172 172 C-170.1128125 172.1546875 -170.1128125 172.1546875 -168.1875 172.3125 C-165.70619036 172.63633935 -164.25270182 172.83995551 -162.125 174.1875 C-160.58903208 176.66211498 -159.80520984 179.21273517 -159 182 C-155.81155382 181.05208357 -154.24514595 180.30234667 -152.125 177.6875 C-150.77264597 174.45687649 -150.77759183 173.25975511 -152 170 C-155.08291296 165.31853958 -158.69251208 161.69923402 -164.328125 160.5078125 C-171.54108325 159.95467153 -175.3649257 162.65090643 -180 168 Z M-186 191 C-185 194 -185 194 -185 194 Z " fill="#FEF7DF" transform="translate(485,858)"/>
<path d="M0 0 C1.31734131 0.00902344 2.63468262 0.01804687 3.99194336 0.02734375 C13.95051873 0.2041123 22.79057179 1.18363181 32.1875 4.4375 C33.01008301 4.71126465 33.83266602 4.9850293 34.68017578 5.26708984 C51.52816775 10.95710361 65.90957056 18.49992937 79.1875 30.4375 C79.94289063 31.11039063 80.69828125 31.78328125 81.4765625 32.4765625 C102.49658859 52.30817722 112.8843882 79.16319209 114.35546875 107.6953125 C114.53338455 133.81335202 107.26562461 159.30475147 90.1875 179.4375 C89.34316406 180.44425781 88.49882813 181.45101563 87.62890625 182.48828125 C69.60239282 203.36596066 44.49076254 216.01408181 16.99780273 218.09570312 C-10.95943095 219.78054833 -38.20980277 212.79336327 -59.8125 194.4375 C-60.658125 193.75300781 -61.50375 193.06851562 -62.375 192.36328125 C-83.43139678 174.56404585 -96.21806615 147.2911737 -100.8125 120.4375 C-100.94140625 119.72851562 -101.0703125 119.01953125 -101.203125 118.2890625 C-105.11147348 91.44487954 -98.48873629 63.67677591 -82.875 41.5625 C-81.54361933 39.83634947 -80.18963073 38.12737606 -78.8125 36.4375 C-77.79929687 35.17873047 -77.79929687 35.17873047 -76.765625 33.89453125 C-57.65686205 11.40337778 -29.19491383 -0.24142057 0 0 Z M-35.8125 68.4375 C-47.64784357 82.7494547 -51.58326424 99.13554129 -50.6015625 117.3515625 C-49.26833851 129.50150938 -45.81808777 140.10106004 -37.8125 149.4375 C-37.21308594 150.23929688 -36.61367188 151.04109375 -35.99609375 151.8671875 C-33.55111586 154.74517578 -30.97038522 156.81677583 -27.9375 159.0625 C-26.92945313 159.81789063 -25.92140625 160.57328125 -24.8828125 161.3515625 C-13.70897169 168.94295053 0.19028139 168.99622078 13.30615234 167.13720703 C25.93458556 164.49294988 36.20615109 157.38803811 45.1875 148.4375 C45.82558594 147.82261719 46.46367188 147.20773437 47.12109375 146.57421875 C59.52346881 133.6746438 63.38039515 115.77754303 63.1875 98.4375 C62.30122004 83.4674258 55.91946265 73.4608874 45.1875 63.4375 C21.22635229 43.04820039 -14.40945129 46.07789046 -35.8125 68.4375 Z " fill="#FEF7DF" transform="translate(572.8125,932.5625)"/>
<path d="M0 0 C1.31734131 0.00902344 2.63468262 0.01804687 3.99194336 0.02734375 C13.95051873 0.2041123 22.79057179 1.18363181 32.1875 4.4375 C33.01008301 4.71126465 33.83266602 4.9850293 34.68017578 5.26708984 C51.52816775 10.95710361 65.90957056 18.49992937 79.1875 30.4375 C79.94289063 31.11039063 80.69828125 31.78328125 81.4765625 32.4765625 C102.48090305 52.2933785 112.80274471 79.3351276 114.37109375 107.765625 C114.92332532 134.14280329 106.89958775 160.58893473 89.1875 180.4375 C88.52492188 181.241875 87.86234375 182.04625 87.1796875 182.875 C71.0424082 201.93008994 48.63213819 213.41307786 24.1875 217.4375 C23.33671875 217.58058594 22.4859375 217.72367188 21.609375 217.87109375 C0.270277 220.58880906 -22.92661547 216.72038052 -41.8125 206.4375 C-42.78960938 205.93734375 -43.76671875 205.4371875 -44.7734375 204.921875 C-71.3501948 190.55228969 -87.79476314 165.0586663 -96.62646484 136.83642578 C-105.22263054 107.6359631 -103.35168849 78.22505063 -88.9140625 51.12890625 C-85.99375347 45.87747334 -82.60661695 41.09325801 -78.8125 36.4375 C-77.79929687 35.17873047 -77.79929687 35.17873047 -76.765625 33.89453125 C-57.65686205 11.40337778 -29.19491383 -0.24142057 0 0 Z M-35.8125 68.4375 C-47.7478007 83.25048189 -51.67442494 99.40866324 -50.59765625 118.18359375 C-48.8025376 133.5190359 -42.64090528 147.15228968 -30.70703125 157.1484375 C-17.15352646 167.55348839 -5.47205632 168.565763 11.1875 167.4375 C24.62230483 165.53328129 35.80106368 157.79173585 45.1875 148.4375 C45.82558594 147.82261719 46.46367188 147.20773437 47.12109375 146.57421875 C59.52346881 133.6746438 63.38039515 115.77754303 63.1875 98.4375 C62.30122004 83.4674258 55.91946265 73.4608874 45.1875 63.4375 C21.257233 43.07447777 -14.44894726 46.04150791 -35.8125 68.4375 Z " fill="#FEF7DF" transform="translate(1150.8125,932.5625)"/>
<path d="M0 0 C12.54 0 25.08 0 38 0 C38 0.66 38 1.32 38 2 C39.051875 1.95875 40.10375 1.9175 41.1875 1.875 C44.75906093 1.99210036 46.87804309 2.34719928 50 4 C51.26788425 6.53576849 51.13324702 8.30444166 51.14476013 11.14407349 C51.15165863 12.23436859 51.15855713 13.3246637 51.16566467 14.44799805 C51.16827805 15.64996826 51.17089142 16.85193848 51.17358398 18.09033203 C51.18385024 20.02791729 51.19411854 21.96550254 51.20446312 23.90308738 C51.21470655 25.99148083 51.22255273 28.07987184 51.22979546 30.16827774 C51.24526735 34.5331136 51.26922415 38.89787732 51.29469299 43.26266479 C51.36581899 55.67717912 51.4253351 68.09173693 51.47680664 80.50634766 C51.50529286 87.35880436 51.54078294 94.21119138 51.58346039 101.06357467 C51.60565942 104.68358127 51.62425203 108.30352428 51.63390923 111.9235878 C50.22706721 135.94823173 50.22706721 135.94823173 56.25 158.5 C59.35863366 161.37359063 62.4882222 161.57963502 66.625 161.8125 C74.70459849 161.38500802 81.8131507 158.93032461 87.78515625 153.32421875 C98.25472042 140.04649159 94.20735597 113.92614223 94.30332303 98.23795438 C94.32546329 94.77465522 94.35271235 91.311396 94.37937927 87.84812927 C94.42893281 81.31440489 94.4740072 74.78065789 94.51740164 68.24689001 C94.56709699 60.79804804 94.62189339 53.34924618 94.67708123 45.9004432 C94.79032668 30.60033139 94.89661365 15.30018209 95 0 C107.54 0 120.08 0 133 0 C133 0.66 133 1.32 133 2 C134.051875 1.938125 135.10375 1.87625 136.1875 1.8125 C140.19113117 2.00939989 141.89973887 2.53802793 145 5 C146.00267206 8.00801618 146.12803228 10.00473604 146.13371277 13.14802551 C146.14011024 14.74728127 146.14011024 14.74728127 146.14663696 16.37884521 C146.14618378 17.54909241 146.14573059 18.7193396 146.14526367 19.92504883 C146.14862228 21.15811264 146.1519809 22.39117645 146.15544128 23.66160583 C146.16332863 27.05124578 146.1666202 30.44082444 146.16725707 33.83046937 C146.16796892 35.9575306 146.17010615 38.08458548 146.17275429 40.21164513 C146.18202162 47.66103901 146.18608883 55.110415 146.18530273 62.55981445 C146.18470666 69.4514682 146.19516134 76.34304247 146.2110464 83.23467618 C146.22425571 89.18238109 146.22948086 95.13006054 146.22884732 101.07777995 C146.22859554 104.61526982 146.23126366 108.15268958 146.24202538 111.69016457 C146.41301563 172.22014516 146.41301563 172.22014516 124.82421875 194.3046875 C109.9278554 208.52113385 91.1188596 213.24658703 71 213 C53.03755505 212.15609843 37.45573914 205.74815803 24 194 C23.37222656 193.47921875 22.74445313 192.9584375 22.09765625 192.421875 C5.58611091 177.59518123 1.46289876 151.97225123 0.20895386 130.96737671 C-0.31303108 120.33797346 -0.12397092 109.67512556 -0.10139394 99.03602529 C-0.09506963 95.54472505 -0.09454952 92.05342361 -0.09336853 88.56211853 C-0.09028163 81.97524005 -0.08210449 75.3883785 -0.07201904 68.80150741 C-0.06077506 61.29223588 -0.05532674 53.78296346 -0.05032361 46.27368557 C-0.03991915 30.84911229 -0.02160722 15.42456228 0 0 Z " fill="#FEF7DF" transform="translate(1295,938)"/>
<path d="M0 0 C0.82862045 0.00359528 1.65724091 0.00719055 2.51097107 0.01089478 C3.81329178 0.01067574 3.81329178 0.01067574 5.141922 0.01045227 C8.02594967 0.01115171 10.9099136 0.01894554 13.79393005 0.02676392 C15.78790247 0.02862799 17.78187535 0.03005194 19.77584839 0.03105164 C25.03498082 0.03487769 30.29408583 0.04470871 35.5532074 0.05575562 C40.91534555 0.06596786 46.27748811 0.07054885 51.63963318 0.07559204 C62.16894213 0.0863309 72.69823069 0.10340837 83.2275238 0.12442017 C83.2275238 0.78442017 83.2275238 1.44442017 83.2275238 2.12442017 C85.21320089 2.09186808 87.19887797 2.059316 89.18455505 2.02676392 C91.2275238 2.12442017 91.2275238 2.12442017 94.2275238 3.12442017 C94.2275238 2.13442017 94.2275238 1.14442017 94.2275238 0.12442017 C100.1675238 0.12442017 106.1075238 0.12442017 112.2275238 0.12442017 C112.2275238 0.78442017 112.2275238 1.44442017 112.2275238 2.12442017 C114.0528363 2.03160767 114.0528363 2.03160767 115.9150238 1.93692017 C119.80827106 1.93692017 122.14154428 2.59952783 125.2275238 5.12442017 C126.09171604 7.71699686 126.40333312 9.46479724 126.54393005 12.13613892 C126.60677185 13.27212524 126.60677185 13.27212524 126.67088318 14.43106079 C126.71019958 15.21674438 126.74951599 16.00242798 126.7900238 16.81192017 C126.8332074 17.60920532 126.87639099 18.40649048 126.92088318 19.22793579 C127.02679749 21.19323463 127.12764931 23.15880513 127.2275238 25.12442017 C127.90299255 24.77508423 128.5784613 24.42574829 129.2743988 24.06582642 C130.61244568 23.38326782 130.61244568 23.38326782 131.9775238 22.68692017 C133.30010193 22.00822876 133.30010193 22.00822876 134.6493988 21.31582642 C144.51069325 16.75871307 154.79608131 19.18439618 164.6025238 22.64785767 C171.23310897 25.34867792 174.57002299 28.25587001 177.5400238 34.74942017 C178.10506653 36.20677019 178.66766442 37.66507105 179.2275238 39.12442017 C179.87940747 40.46504312 180.54176058 41.8008073 181.2275238 43.12442017 C181.5678363 42.56754517 181.9081488 42.01067017 182.2587738 41.43692017 C189.24365533 30.43944713 197.31710891 22.86924879 210.16111755 19.31192017 C224.90857161 16.36652019 242.64110489 19.0143574 255.7587738 26.58535767 C263.63418714 32.17690114 267.95596538 39.15382482 269.7275238 48.62442017 C270.92633781 59.30135739 268.0459964 68.12581072 262.2275238 77.12442017 C259.09455536 80.69693941 255.76976664 83.96020324 252.2275238 87.12442017 C252.8875238 88.11442017 253.5475238 89.10442017 254.2275238 90.12442017 C255.3206488 90.12442017 256.4137738 90.12442017 257.5400238 90.12442017 C261.67604529 90.12442017 263.01037975 90.62454102 266.2275238 93.12442017 C268.89459267 99.18676783 270.68309814 107.5373295 269.2275238 114.12442017 C265.4246096 122.3795266 257.16916924 127.12105039 249.0478363 130.41348267 C234.21351864 135.35825522 221.28410585 134.86534174 207.01268005 128.53067017 C193.52286642 121.71954407 185.84666788 110.15636408 181.2275238 96.12442017 C181.21294128 97.00702515 181.19835876 97.88963013 181.18333435 98.79898071 C181.12210313 102.0888066 181.0479205 105.37781946 180.96507263 108.66714478 C180.93191823 110.08793219 180.90385689 111.5088483 180.88108826 112.92984009 C180.84736533 114.97832837 180.79504635 117.02564737 180.73924255 119.07363892 C180.71305847 120.30429077 180.68687439 121.53494263 180.65989685 122.80288696 C180.19570393 126.36886364 179.4293076 128.30246132 177.2275238 131.12442017 C173.22642258 132.45812057 169.54248978 132.34777491 165.3525238 132.37442017 C164.54943787 132.39504517 163.74635193 132.41567017 162.91893005 132.43692017 C158.22647449 132.46784244 154.98091606 132.27432582 151.2275238 129.12442017 C149.94434488 125.2748834 150.16108743 122.17703882 150.2275238 118.12442017 C149.5675238 118.12442017 148.9075238 118.12442017 148.2275238 118.12442017 C148.2275238 93.70442017 148.2275238 69.28442017 148.2275238 44.12442017 C139.64288847 46.78541351 139.64288847 46.78541351 133.7900238 52.12442017 C132.96631287 52.99067017 132.14260193 53.85692017 131.29393005 54.74942017 C127.69466616 58.88619228 126.97640677 61.02757102 126.95628357 66.44424438 C126.94609695 67.74924896 126.93591034 69.05425354 126.92541504 70.39880371 C126.92447405 71.09606441 126.92353306 71.79332512 126.92256355 72.51171494 C126.91889866 74.6978326 126.90216883 76.88349708 126.88180542 79.06951904 C126.82640805 85.28418543 126.79572973 91.49891884 126.77122498 97.71377563 C126.75532586 101.51695862 126.72508125 105.31982061 126.68646049 109.12283707 C126.67482965 110.5700349 126.66888031 112.0172902 126.66877937 113.46453476 C126.66858675 115.49167068 126.64877775 117.51877582 126.62815857 119.54580688 C126.62308792 120.69813812 126.61801727 121.85046936 126.61279297 123.03771973 C126.18177419 126.49095702 125.34699604 128.38167902 123.2275238 131.12442017 C119.22642258 132.45812057 115.54248978 132.34777491 111.3525238 132.37442017 C110.54943787 132.39504517 109.74635193 132.41567017 108.91893005 132.43692017 C104.22647449 132.46784244 100.98091606 132.27432582 97.2275238 129.12442017 C95.94434488 125.2748834 96.16108743 122.17703882 96.2275238 118.12442017 C95.5675238 118.12442017 94.9075238 118.12442017 94.2275238 118.12442017 C94.2275238 89.74442017 94.2275238 61.36442017 94.2275238 32.12442017 C91.5875238 31.79442017 88.9475238 31.46442017 86.2275238 31.12442017 C83.0400238 28.68692017 83.0400238 28.68692017 80.2275238 26.12442017 C76.22536526 24.15857116 72.31480972 23.57509309 67.9150238 22.99942017 C66.66076599 22.83184204 65.40650818 22.66426392 64.11424255 22.49160767 C63.16162537 22.37043579 62.20900818 22.24926392 61.2275238 22.12442017 C61.23751656 24.06214546 61.23751656 24.06214546 61.24771118 26.03901672 C61.30850192 38.20768491 61.35348673 50.37632232 61.38296032 62.54510784 C61.39862231 68.80134594 61.41987064 75.05746155 61.45384216 81.31362915 C61.48641611 87.35013345 61.5043728 93.38651984 61.51215553 99.42310524 C61.51770254 101.72722034 61.52853433 104.03132893 61.54471397 106.33539391 C61.56646172 109.56037767 61.56949178 112.78487302 61.56809998 116.00991821 C61.5788858 116.96441864 61.58967163 117.91891907 61.6007843 118.90234375 C61.57817581 123.73733204 61.53890893 127.28811149 58.2275238 131.12442017 C54.22642258 132.45812057 50.54248978 132.34777491 46.3525238 132.37442017 C45.54943787 132.39504517 44.74635193 132.41567017 43.91893005 132.43692017 C39.22647449 132.46784244 35.98091606 132.27432582 32.2275238 129.12442017 C30.94434488 125.2748834 31.16108743 122.17703882 31.2275238 118.12442017 C30.5675238 118.12442017 29.9075238 118.12442017 29.2275238 118.12442017 C29.2275238 86.44442017 29.2275238 54.76442017 29.2275238 22.12442017 C18.02152724 23.91819676 18.02152724 23.91819676 9.2275238 29.12442017 C5.57348791 31.361585 3.85260735 32.1350148 -0.4599762 32.06192017 C-3.7724762 31.12442017 -3.7724762 31.12442017 -5.7724762 29.62442017 C-7.32413046 25.74528452 -6.48856156 22.16210633 -5.7724762 18.12442017 C-7.0924762 17.79442017 -8.4124762 17.46442017 -9.7724762 17.12442017 C-9.29802864 14.47765928 -8.81816291 11.83208653 -8.3349762 9.18692017 C-8.20026917 8.43217407 -8.06556213 7.67742798 -7.92677307 6.89981079 C-6.66044178 0.01220402 -6.66044178 0.01220402 0 0 Z M214.9150238 49.31192017 C209.12980835 58.77003808 208.79962149 68.26837993 209.2275238 79.12442017 C220.94961118 77.23376091 229.21213109 71.70312944 236.2275238 62.12442017 C239.23573239 56.78727591 240.42407006 51.23804334 240.2275238 45.12442017 C238.89542353 42.0161862 238.23748998 40.62940325 235.2275238 39.12442017 C225.78721376 37.57714943 220.3134184 41.91904481 214.9150238 49.31192017 Z M246.2275238 90.12442017 C245.47728943 90.45055298 244.72705505 90.77668579 243.9540863 91.11270142 C233.81524629 95.44150087 224.10951267 98.36592387 213.2275238 100.12442017 C215.61537313 105.78502768 217.77590229 110.03859667 223.2275238 113.12442017 C228.72400456 113.48739531 232.76524396 111.06822226 236.9150238 107.68692017 C241.53203727 103.26464892 244.91587122 98.09451422 247.2275238 92.12442017 C246.7325238 91.13442017 246.7325238 91.13442017 246.2275238 90.12442017 Z " fill="#FEF7DF" transform="translate(833.7724761962891,790.8755798339844)"/>
<path d="M0 0 C73.86351603 0 73.86351603 0 89.9375 6.25 C90.7310791 6.55083496 91.5246582 6.85166992 92.34228516 7.16162109 C100.80137879 10.50187858 107.95555352 15.13873642 114 22 C114.55300781 22.62261719 115.10601563 23.24523437 115.67578125 23.88671875 C126.62240304 36.94296786 130.30116784 54.26808113 129 71 C127.23052272 86.19199859 121.54886904 99.68916972 110 110 C96.99203307 119.97603479 82.80869256 124.0437856 66.75 125.125 C65.56664062 125.21136719 64.38328125 125.29773437 63.1640625 125.38671875 C54.61706349 126 54.61706349 126 51 126 C51.00666183 126.94103073 51.01332367 127.88206146 51.02018738 128.85160828 C51.08102632 137.72384842 51.12598599 146.5960462 51.15543652 155.46844769 C51.17108639 160.0297535 51.19231226 164.59089078 51.22631836 169.15209961 C51.25893603 173.55467699 51.27685812 177.95709237 51.28463173 182.35978127 C51.29017092 184.03869998 51.30098765 185.71760991 51.31719017 187.39645958 C51.33899677 189.74977085 51.34196562 192.10241435 51.34057617 194.45581055 C51.351362 195.1484903 51.36214783 195.84117004 51.3732605 196.55484009 C51.34581302 200.8566545 50.69816111 203.61398658 48 207 C44.2405255 208.25315817 40.70718722 208.1817264 36.7890625 208.203125 C35.98391205 208.20882507 35.1787616 208.21452515 34.34921265 208.22039795 C32.64623322 208.22983936 30.9432356 208.23637852 29.24023438 208.24023438 C26.64160127 208.24993801 24.04375997 208.28096784 21.4453125 208.3125 C19.78906719 208.31903067 18.13281623 208.32428089 16.4765625 208.328125 C15.70245026 208.3404718 14.92833801 208.3528186 14.13076782 208.36553955 C9.59149166 208.34689622 6.55518939 207.91554566 3 205 C1.8422494 201.52674819 1.93133348 198.63932552 2 195 C1.34 195 0.68 195 0 195 C0 130.65 0 66.3 0 0 Z M51 50 C51 58.25 51 66.5 51 75 C63.61417983 75.38202482 63.61417983 75.38202482 73.8125 69.6875 C76.8965839 65.89848263 78.72362044 62.72737228 79.5 57.875 C79.24332345 54.83063553 79.24332345 54.83063553 76.8125 52.6875 C71.40204826 49.44122895 65.81137789 49.8751522 59.6875 49.9375 C56.820625 49.958125 53.95375 49.97875 51 50 Z " fill="#FEF7DF" transform="translate(897,938)"/>
<path d="M0 0 C5.71084339 -0.049623 11.42155985 -0.08582503 17.13256836 -0.10986328 C19.07334582 -0.1198898 21.0141083 -0.13351443 22.95483398 -0.15087891 C25.75247916 -0.17527489 28.54992371 -0.18651681 31.34765625 -0.1953125 C32.2083522 -0.20563507 33.06904816 -0.21595764 33.95582581 -0.22659302 C40.91399908 -0.22787436 47.31576708 0.64809508 53 5 C54.75415039 7.63769531 54.75415039 7.63769531 56.34765625 10.828125 C56.78819084 11.6948584 56.78819084 11.6948584 57.23762512 12.57910156 C58.19194947 14.46330012 59.12701465 16.35638843 60.0625 18.25 C60.71938963 19.55380472 61.37776996 20.8568594 62.03759766 22.15917969 C63.37885066 24.80905599 64.71390553 27.46191096 66.04443359 30.1171875 C68.92811694 35.85923839 71.89983668 41.55488338 74.875 47.25 C75.38039307 48.22485352 75.88578613 49.19970703 76.40649414 50.20410156 C76.86789795 51.0906543 77.32930176 51.97720703 77.8046875 52.890625 C78.20671387 53.66438477 78.60874023 54.43814453 79.02294922 55.23535156 C79.87645633 56.96848963 79.87645633 56.96848963 81 58 C81.34144043 57.31188232 81.68288086 56.62376465 82.03466797 55.91479492 C91.38063235 37.0991926 101.03842595 18.50006608 111 0 C124.53 0 138.06 0 152 0 C152 0.33 152 0.66 152 1 C153.03060547 1.12955078 153.03060547 1.12955078 154.08203125 1.26171875 C155.43361328 1.47248047 155.43361328 1.47248047 156.8125 1.6875 C157.70582031 1.81511719 158.59914063 1.94273437 159.51953125 2.07421875 C162 3 162 3 163.88671875 5.01879883 C165.14810159 8.39659396 165.00228801 8.81571599 163.66479492 11.9765625 C162.89672867 13.53733861 162.10430857 15.0862747 161.29296875 16.625 C160.87419968 17.46039307 160.4554306 18.29578613 160.02397156 19.15649414 C158.70240672 21.78157346 157.35204212 24.39051392 156 27 C155.19653742 28.58873657 154.39519654 30.17854828 153.59619141 31.76953125 C151.19820542 36.52858195 148.75778553 41.2651246 146.3125 46 C145.43133918 47.71163803 144.55040178 49.42339109 143.66967773 51.13525391 C141.11777515 56.09257868 138.55992012 61.04681156 136 66 C135.47031616 67.02522766 135.47031616 67.02522766 134.92993164 68.07116699 C131.83613817 74.05865596 128.73674524 80.04322524 125.62890625 86.0234375 C125.11086426 87.07337891 124.59282227 88.12332031 124.05908203 89.20507812 C122.49766386 92.24102568 120.66023553 94.99371671 118.73388672 97.81054688 C106.21835581 117.2165305 107.40685536 136.46680146 107.9352417 158.82794189 C108.10686921 166.57220853 108.1703346 174.31775517 108.22036743 182.06360626 C108.24947719 184.748652 108.31484243 187.43093972 108.38549805 190.11517334 C108.40897589 191.75222481 108.43156733 193.38928931 108.453125 195.02636719 C108.48217422 195.76392746 108.51122345 196.50148773 108.54115295 197.26139832 C108.56097687 201.14702842 108.11935515 202.84491895 105.72120667 205.96089172 C102.16734315 208.62394286 102.16734315 208.62394286 99.00756836 208.59936523 C98.26006821 208.60544296 97.51256805 208.61152069 96.74241638 208.61778259 C95.94956741 208.59825027 95.15671844 208.57871796 94.33984375 208.55859375 C93.51295547 208.55626236 92.6860672 208.55393097 91.8341217 208.55152893 C90.09170161 208.54181346 88.34931208 208.52007687 86.60717773 208.48706055 C83.94272016 208.43759691 81.28010998 208.42557457 78.61523438 208.41992188 C76.91925122 208.40583665 75.22328407 208.38963252 73.52734375 208.37109375 C72.73247055 208.36573105 71.93759735 208.36036835 71.11863708 208.35484314 C64.05851252 208.20320303 64.05851252 208.20320303 61 206 C59.79727181 203.59454362 59.89928528 202.05003047 59.9375 199.375 C59.94652344 198.55773438 59.95554687 197.74046875 59.96484375 196.8984375 C59.97644531 196.27195312 59.98804688 195.64546875 60 195 C59.01 195 58.02 195 57 195 C57.03188416 194.05930161 57.06376831 193.11860321 57.09661865 192.1493988 C60.77315708 131.7517068 60.77315708 131.7517068 38.44042969 77.45068359 C34.96489152 72.6526294 32.41498727 67.43189473 29.8125 62.125 C28.90734776 60.38540797 27.99710509 58.64845602 27.08203125 56.9140625 C24.58007472 52.12748941 22.10554667 47.32714743 19.63671875 42.5234375 C19.25441605 41.77981964 18.87211334 41.03620178 18.47822571 40.27005005 C16.57807475 36.5732554 14.67990818 32.87545899 12.78442383 29.17626953 C12.08550028 27.81540346 11.38652787 26.45456249 10.6875 25.09375 C10.37443405 24.48115326 10.0613681 23.86855652 9.73881531 23.23739624 C8.20010819 20.24541582 6.60132668 17.31608878 4.87890625 14.42773438 C3.1422023 11.25942311 2.11132063 8.55084854 1.25 5.0625 C1.00765625 4.10472656 0.7653125 3.14695312 0.515625 2.16015625 C0.34546875 1.44730469 0.1753125 0.73445312 0 0 Z " fill="#FEF7DF" transform="translate(705,938)"/>
<path d="M0 0 C7.54782509 6.46565053 10.89950478 13.91355821 12 23.71484375 C12.41284331 34.15203867 8.37031536 44.03407323 1.5078125 51.859375 C-0.89686228 54.27086189 -3.33556068 56.60656804 -5.875 58.875 C-4.885 60.36 -4.885 60.36 -3.875 61.875 C-2.781875 61.875 -1.68875 61.875 -0.5625 61.875 C3.57352148 61.875 4.90785595 62.37512085 8.125 64.875 C10.79206887 70.93734767 12.58057434 79.28790934 11.125 85.875 C7.3220858 94.13010643 -0.93335456 98.87163023 -9.0546875 102.1640625 C-23.88900516 107.10883505 -36.81841796 106.61592158 -51.08984375 100.28125 C-64.57965738 93.4701239 -72.25585593 81.90694391 -76.875 67.875 C-76.88958252 68.75760498 -76.90416504 69.64020996 -76.91918945 70.54956055 C-76.98042067 73.83938643 -77.0546033 77.1283993 -77.13745117 80.41772461 C-77.17060557 81.83851202 -77.19866692 83.25942813 -77.22143555 84.68041992 C-77.25515847 86.7289082 -77.30747745 88.7762272 -77.36328125 90.82421875 C-77.38946533 92.05487061 -77.41564941 93.28552246 -77.44262695 94.5534668 C-77.90681987 98.11944347 -78.67321621 100.05304115 -80.875 102.875 C-84.87610123 104.20870041 -88.56003403 104.09835475 -92.75 104.125 C-93.95462891 104.1559375 -93.95462891 104.1559375 -95.18359375 104.1875 C-99.87604931 104.21842228 -103.12160775 104.02490566 -106.875 100.875 C-107.875 97.875 -107.875 97.875 -107.875 89.875 C-102.595 89.875 -97.315 89.875 -91.875 89.875 C-91.93801423 79.19112936 -92.0135062 68.50754416 -92.11071491 57.82392883 C-92.15536363 52.86261635 -92.19463186 47.90138494 -92.22143555 42.93994141 C-92.24752338 38.1481667 -92.2879645 33.35670491 -92.33818626 28.56512451 C-92.35481796 26.74082341 -92.3663552 24.91646823 -92.37261391 23.09210205 C-92.38229538 20.52851884 -92.41040213 17.96572952 -92.44262695 15.40234375 C-92.44119186 14.65499466 -92.43975677 13.90764557 -92.4382782 13.13764954 C-92.56639896 5.88894731 -94.87973302 -0.03697413 -98.875 -6.125 C-92.4852017 -5.8587584 -88.31297916 -3.77741933 -83.875 0.875 C-81.87327874 4.0848308 -80.35440456 7.40011951 -78.875 10.875 C-78.21741884 12.21283753 -77.55387051 13.54783873 -76.875 14.875 C-76.5346875 14.318125 -76.194375 13.76125 -75.84375 13.1875 C-68.85886848 2.19002696 -60.78541489 -5.38017137 -47.94140625 -8.9375 C-32.59426068 -12.00267193 -12.95576175 -9.19859084 0 0 Z M-43.1875 21.0625 C-48.97271546 30.52061791 -49.30290232 40.01895977 -48.875 50.875 C-37.15291262 48.98434075 -28.89039271 43.45370928 -21.875 33.875 C-18.86679142 28.53785574 -17.67845374 22.98862317 -17.875 16.875 C-19.20710027 13.76676603 -19.86503383 12.37998309 -22.875 10.875 C-32.31531005 9.32772927 -37.78910541 13.66962465 -43.1875 21.0625 Z M-11.875 61.875 C-12.62523437 62.20113281 -13.37546875 62.52726563 -14.1484375 62.86328125 C-24.28727752 67.1920807 -33.99301113 70.1165037 -44.875 71.875 C-42.48715068 77.53560752 -40.32662151 81.7891765 -34.875 84.875 C-29.37851924 85.23797514 -25.33727984 82.81880209 -21.1875 79.4375 C-16.57048654 75.01522876 -13.18665258 69.84509406 -10.875 63.875 C-11.37 62.885 -11.37 62.885 -11.875 61.875 Z " fill="#FDF5DD" transform="translate(1091.875,819.125)"/>
<path d="M0 0 C8.78723404 -0.44680851 8.78723404 -0.44680851 13 3 C14.21950118 6.65850355 14.22253359 10.06403569 14.25 13.875 C14.2809375 14.93654297 14.2809375 14.93654297 14.3125 16.01953125 C14.34608824 20.52875288 13.87325154 23.46885441 11 27 C7.30459598 28.23180134 3.89696622 28.12412112 0.05078125 28.09765625 C-0.72183548 28.0962413 -1.49445221 28.09482635 -2.29048157 28.09336853 C-4.75619389 28.08777466 -7.22181515 28.07522333 -9.6875 28.0625 C-11.36002473 28.05748421 -13.03255088 28.05292144 -14.70507812 28.04882812 C-18.80342046 28.03780724 -22.90169479 28.02054684 -27 28 C-26.99208089 28.66923115 -26.98416178 29.3384623 -26.97600269 30.02797318 C-26.78387903 46.35523898 -26.60912672 62.68259061 -26.45341206 79.01024246 C-26.37769434 86.90635892 -26.29622244 94.80233572 -26.20092773 102.69824219 C-26.11782799 109.58493608 -26.04580638 116.47164429 -25.98676747 123.35858798 C-25.95516416 127.00099938 -25.9182318 130.64317135 -25.86800575 134.2853775 C-25.81197399 138.36371233 -25.78069137 142.44189444 -25.7512207 146.52050781 C-25.72101585 148.30723907 -25.72101585 148.30723907 -25.69020081 150.13006592 C-25.61852661 168.96119805 -33.04558007 182.95645518 -45.99609375 196.09765625 C-65.06376004 214.79014154 -90.83846009 226.26727949 -117.62231445 226.31689453 C-144.57578643 225.88072807 -169.86903542 212.50024102 -188.44970703 193.51904297 C-196.87962419 184.51086782 -203.69725425 173.5800585 -208 162 C-207.67 161.01 -207.34 160.02 -207 159 C-206.59910156 159.73863281 -206.19820313 160.47726562 -205.78515625 161.23828125 C-192.45492527 185.0271515 -171.95654559 201.02405933 -146 209 C-144.20949219 209.556875 -144.20949219 209.556875 -142.3828125 210.125 C-126.80527115 213.86037323 -108.63051927 212.25842754 -94 206 C-92.19402344 205.31357422 -92.19402344 205.31357422 -90.3515625 204.61328125 C-70.84823934 196.89233444 -52.99075096 182.30589102 -43.91015625 163.12890625 C-42.26573298 159.28250848 -41.86711292 156.33039288 -41.84178162 152.17243958 C-41.8319928 150.9566774 -41.82220398 149.74091522 -41.81211853 148.48831177 C-41.80621439 147.13909951 -41.80040394 145.78988685 -41.79467773 144.44067383 C-41.78509871 143.02152725 -41.77508862 141.60238353 -41.76467896 140.1832428 C-41.73762642 136.32818973 -41.71661874 132.47312441 -41.69667697 128.61802888 C-41.67481958 124.59011236 -41.64742968 120.5622336 -41.62062073 116.53434753 C-41.57069051 108.90586874 -41.52575289 101.27736899 -41.48259836 93.64884919 C-41.43322881 84.9645185 -41.37830963 76.2802257 -41.32291877 67.59593165 C-41.20909366 49.7306547 -41.10298841 31.86534294 -41 14 C-27.47 14 -13.94 14 0 14 C0 9.38 0 4.76 0 0 Z " fill="#6A2A1A" transform="translate(467,924)"/>
<path d="M0 0 C11.87655219 1.86724586 21.70563617 9.28103446 28.6875 18.75 C39.1806207 34.54943687 42.99408849 52.11731637 39.48266602 70.70141602 C33.21977952 100.60400403 11.35940485 127.35963313 -13.72729492 143.8972168 C-33.55697833 156.54656825 -56.28410854 164.712604 -80.04296875 160.33984375 C-103.8834547 154.63295022 -123.89796134 138.44440876 -136.85449219 117.93310547 C-139.36576342 113.69520145 -141.67468594 109.34185053 -144 105 C-144.00142502 105.59246521 -144.00285004 106.18493042 -144.00431824 106.79534912 C-144.02399978 112.96006611 -144.07823977 119.12379086 -144.15258789 125.28808594 C-144.17578968 127.58879478 -144.19016869 129.88961016 -144.19555664 132.19042969 C-144.20482991 135.49742192 -144.24578712 138.80273329 -144.29296875 142.109375 C-144.28706978 143.6533194 -144.28706978 143.6533194 -144.28105164 145.22845459 C-144.42442902 152.240678 -144.42442902 152.240678 -147.00512695 155.64526367 C-150.98898256 157.44736808 -154.29540572 157.59359873 -158.625 157.56640625 C-159.4495166 157.57260483 -160.2740332 157.57880341 -161.12353516 157.58518982 C-162.86164167 157.5922736 -164.59981624 157.58913913 -166.33789062 157.57641602 C-168.99215836 157.56254099 -171.6429043 157.596648 -174.296875 157.63476562 C-175.98958419 157.63571683 -177.68229778 157.63385791 -179.375 157.62890625 C-180.16471191 157.64216446 -180.95442383 157.65542267 -181.76806641 157.66908264 C-185.73652525 157.60225612 -187.63296342 157.23874479 -191.0390625 155.02319336 C-193 152 -193 152 -193 143 C-181.45 143 -169.9 143 -158 143 C-158 115.94 -158 88.88 -158 61 C-154 62 -154 62 -152.796875 63.54296875 C-151.8869593 66.34854217 -151.63202039 69.05637709 -151.41967773 71.98925781 C-149.93285998 92.34689486 -140.0080674 108.56208216 -126 123 C-125.38898438 123.68449219 -124.77796875 124.36898438 -124.1484375 125.07421875 C-114.09281521 135.96424374 -98.62999473 145.0418807 -83.66674805 146.17700195 C-71.18115101 146.49513055 -59.86027369 146.21103612 -48 142 C-47.34870117 141.76925781 -46.69740234 141.53851562 -46.02636719 141.30078125 C-17.69655225 130.85839213 5.39672253 107.74072117 18.52734375 80.875 C19.80798213 77.94782657 20.93345235 75.01142867 22 72 C22.391875 70.948125 22.78375 69.89625 23.1875 68.8125 C28.79329706 51.99510882 26.94640498 36.51253454 19.42578125 20.6875 C15.68276571 13.70751764 11.22362991 8.83930849 5 4 C3.989375 3.175 2.97875 2.35 1.9375 1.5 C1.298125 1.005 0.65875 0.51 0 0 Z " fill="#692818" transform="translate(1678,989)"/>
<path d="M0 0 C5.17201521 0.5693226 9.12081305 2.22862306 13.6875 4.5625 C14.39084473 4.91965088 15.09418945 5.27680176 15.81884766 5.64477539 C41.21578101 18.86521603 60.33998172 42.01458719 69.09008789 69.15209961 C77.67149612 97.24565546 75.33305355 128.02444507 61.625 154.125 C58.05106124 160.64891584 53.95965247 166.44210151 49 172 C48.33742188 172.804375 47.67484375 173.60875 46.9921875 174.4375 C30.8549082 193.49258994 8.44463819 204.97557786 -16 209 C-16.85078125 209.14308594 -17.7015625 209.28617188 -18.578125 209.43359375 C-39.917223 212.15130906 -63.11411547 208.28288052 -82 198 C-82.97710938 197.49984375 -83.95421875 196.9996875 -84.9609375 196.484375 C-107.08605488 184.52171311 -122.74321018 164.30055603 -132.3203125 141.390625 C-133 139 -133 139 -132 136 C-131.67128906 136.72703125 -131.34257813 137.4540625 -131.00390625 138.203125 C-119.66433223 162.17295627 -99.95943963 180.3343828 -75.27734375 189.90234375 C-48.88998722 198.74006387 -20.21271984 197.22439368 4.88427734 185.08886719 C13.40017855 180.75096036 20.89444249 175.38026934 28 169 C28.69480469 168.38769531 29.38960937 167.77539062 30.10546875 167.14453125 C47.6476503 150.72280841 57.73345931 126.68466894 59.19067383 102.88598633 C59.2662637 99.75479303 59.27334373 96.63195073 59.25 93.5 C59.25773437 92.46230469 59.26546875 91.42460938 59.2734375 90.35546875 C59.20516449 62.94385657 47.30542103 39.73387085 28.6875 20.25 C20.26836315 12.09247475 10.70033814 5.80669817 0 1 C0 0.67 0 0.34 0 0 Z " fill="#692919" transform="translate(1191,941)"/>
<path d="M0 0 C5.17201521 0.5693226 9.12081305 2.22862306 13.6875 4.5625 C14.39084473 4.91965088 15.09418945 5.27680176 15.81884766 5.64477539 C39.37369523 17.90631343 59.12529207 39.81955506 68 65 C77.44451827 96.40151933 75.54784712 127.99512688 60.08251953 157.08984375 C57.22308046 162.13545749 53.7423961 166.58823225 50 171 C49.15566406 172.00675781 48.31132813 173.01351563 47.44140625 174.05078125 C29.41489282 194.92846066 4.30326254 207.57658181 -23.18969727 209.65820312 C-51.14693095 211.34304833 -78.39730277 204.35586327 -100 186 C-100.845625 185.31550781 -101.69125 184.63101562 -102.5625 183.92578125 C-116.21755174 172.38299533 -127.53436109 156.08012159 -133 139 C-132.67 138.01 -132.34 137.02 -132 136 C-131.67128906 136.72703125 -131.34257812 137.4540625 -131.00390625 138.203125 C-119.66666461 162.16802603 -99.95789401 180.34602529 -75.2734375 189.90234375 C-48.82779047 198.77015618 -20.26567946 197.22382572 4.88867188 185.08886719 C13.40235107 180.75094493 20.89603142 175.3788426 28 169 C28.69480469 168.38769531 29.38960937 167.77539062 30.10546875 167.14453125 C47.6476503 150.72280841 57.73345931 126.68466894 59.19067383 102.88598633 C59.2662637 99.75479303 59.27334373 96.63195073 59.25 93.5 C59.25773438 92.46230469 59.26546875 91.42460938 59.2734375 90.35546875 C59.20516449 62.94385657 47.30542103 39.73387085 28.6875 20.25 C20.26836315 12.09247475 10.70033814 5.80669817 0 1 C0 0.67 0 0.34 0 0 Z " fill="#692919" transform="translate(613,941)"/>
<path d="M0 0 C3.9336482 0.26224321 5.6958038 0.8246089 8.75 3.25 C9.75267206 6.25801618 9.87803228 8.25473604 9.88371277 11.39802551 C9.89011024 12.99728127 9.89011024 12.99728127 9.89663696 14.62884521 C9.89618378 15.79909241 9.89573059 16.9693396 9.89526367 18.17504883 C9.89862228 19.40811264 9.9019809 20.64117645 9.90544128 21.91160583 C9.91332863 25.30124578 9.9166202 28.69082444 9.91725707 32.08046937 C9.91796892 34.2075306 9.92010615 36.33458548 9.92275429 38.46164513 C9.93202162 45.91103901 9.93608883 53.360415 9.93530273 60.80981445 C9.93470666 67.7014682 9.94516134 74.59304247 9.9610464 81.48467618 C9.97425571 87.43238109 9.97948086 93.38006054 9.97884732 99.32777995 C9.97859554 102.86526982 9.98126366 106.40268958 9.99202538 109.94016457 C10.16301563 170.47014516 10.16301563 170.47014516 -11.42578125 192.5546875 C-26.3221446 206.77113385 -45.1311404 211.49658703 -65.25 211.25 C-83.21244495 210.40609843 -98.79426086 203.99815803 -112.25 192.25 C-112.87777344 191.72921875 -113.50554687 191.2084375 -114.15234375 190.671875 C-118.17577958 187.05899384 -120.91563182 182.83472652 -123.625 178.1875 C-124.14441162 177.30263916 -124.14441162 177.30263916 -124.67431641 176.39990234 C-126.73706633 172.69936 -127.80170613 169.45755815 -128.25 165.25 C-127.693125 165.95125 -127.13625 166.6525 -126.5625 167.375 C-125.35092631 168.8812808 -124.13412646 170.38425574 -122.87109375 171.84765625 C-119.25 176.04647436 -119.25 176.04647436 -119.25 178.25 C-118.67121094 178.51296875 -118.09242187 178.7759375 -117.49609375 179.046875 C-115.13686574 180.31060061 -113.34702828 181.76616016 -111.3125 183.5 C-94.86547462 196.44192161 -75.8983737 197.46535057 -55.87890625 196.00390625 C-44.43131983 194.35395695 -33.76286916 188.95944577 -25.25 181.25 C-24.34894531 180.48623047 -24.34894531 180.48623047 -23.4296875 179.70703125 C-13.28576611 170.49562282 -7.3846581 157.60294203 -6.08618164 144.10595703 C-5.96683935 142.90729602 -5.96683935 142.90729602 -5.8450861 141.68441963 C-4.76407885 129.3927612 -4.91127008 117.03109313 -4.8782146 104.70180655 C-4.86612385 101.05613545 -4.84230564 97.41054079 -4.81959534 93.7649231 C-4.778327 86.89253144 -4.7457206 80.02013259 -4.71712118 73.14767754 C-4.66565441 60.7929652 -4.60401111 48.43831059 -4.53178078 36.08370221 C-4.50687348 31.75283706 -4.48744014 27.42199164 -4.47239864 23.09108138 C-4.46467295 21.05690314 -4.45474913 19.02274993 -4.44384766 16.98858643 C-4.43064085 14.50582587 -4.42106788 12.02304249 -4.41566467 9.54025269 C-4.40876617 8.45566772 -4.40186768 7.37108276 -4.39476013 6.25363159 C-4.38897776 4.83191052 -4.38897776 4.83191052 -4.38307858 3.38146782 C-4.16561241 -0.10160327 -3.59172219 0.27628632 0 0 Z " fill="#692919" transform="translate(1431.25,939.75)"/>
<path d="M0 0 C10.07989964 2.25189247 18.15172296 7.22628012 25 15 C25.82951172 15.93392578 25.82951172 15.93392578 26.67578125 16.88671875 C37.62240304 29.94296786 41.30116784 47.26808113 40 64 C38.23052272 79.19199859 32.54886904 92.68916972 21 103 C7.99203307 112.97603479 -6.19130744 117.0437856 -22.25 118.125 C-23.43335938 118.21136719 -24.61671875 118.29773437 -25.8359375 118.38671875 C-34.38293651 119 -34.38293651 119 -38 119 C-37.99333817 119.94103073 -37.98667633 120.88206146 -37.97981262 121.85160828 C-37.91897368 130.72384842 -37.87401401 139.5960462 -37.84456348 148.46844769 C-37.82891361 153.0297535 -37.80768774 157.59089078 -37.77368164 162.15209961 C-37.74106397 166.55467699 -37.72314188 170.95709237 -37.71536827 175.35978127 C-37.70982908 177.03869998 -37.69901235 178.71760991 -37.68280983 180.39645958 C-37.66100323 182.74977085 -37.65803438 185.10241435 -37.65942383 187.45581055 C-37.648638 188.1484903 -37.63785217 188.84117004 -37.6267395 189.55484009 C-37.65418698 193.8566545 -38.30183889 196.61398658 -41 200 C-44.7594745 201.25315817 -48.29281278 201.1817264 -52.2109375 201.203125 C-53.01608795 201.20882507 -53.8212384 201.21452515 -54.65078735 201.22039795 C-56.35376678 201.22983936 -58.0567644 201.23637852 -59.75976562 201.24023438 C-62.35839873 201.24993801 -64.95624003 201.28096784 -67.5546875 201.3125 C-69.21093281 201.31903067 -70.86718377 201.32428089 -72.5234375 201.328125 C-73.29754974 201.3404718 -74.07166199 201.3528186 -74.86923218 201.36553955 C-79.40850834 201.34689622 -82.44481061 200.91554566 -86 198 C-87.16461426 194.50615721 -87.13568319 191.66344611 -87 188 C-86.67 187.67 -86.34 187.34 -86 187 C-74.78 187 -63.56 187 -52 187 C-52 159.94 -52 132.88 -52 105 C-41.605 104.505 -41.605 104.505 -31 104 C-13.11630184 101.77842259 3.02364475 98.20220435 14.9375 83.5 C22.53338006 72.87664507 25.57622579 61.65531566 25.4375 48.625 C25.42992676 47.62057861 25.42235352 46.61615723 25.41455078 45.58129883 C25.09880136 31.31380411 20.26036384 19.33466277 10.72265625 8.6015625 C7.99096552 6.06189539 4.92448922 4.11841414 1.7578125 2.1640625 C1.17773438 1.77992188 0.59765625 1.39578125 0 1 C0 0.67 0 0.34 0 0 Z " fill="#682818" transform="translate(986,945)"/>
<path d="M0 0 C3.500344 0.06273018 6.20513287 0.30684677 9.25 2.1875 C10.55371094 4.37060547 10.55371094 4.37060547 11.25 7.1875 C10.25878906 10.20751953 10.25878906 10.20751953 8.515625 13.5703125 C8.05250664 14.48154877 8.05250664 14.48154877 7.58003235 15.41119385 C6.57025331 17.38752306 5.53562945 19.34961227 4.5 21.3125 C3.79786722 22.67450503 3.09727176 24.03730363 2.39819336 25.40087891 C0.67855711 28.74413831 -1.06126191 32.07628177 -2.81158447 35.40356445 C-4.11215719 37.87596376 -5.40493744 40.35242775 -6.69921875 42.828125 C-8.31228277 45.90347064 -9.93632311 48.97271086 -11.56640625 52.0390625 C-13.65045749 55.9740863 -15.64972109 59.94699159 -17.625 63.9375 C-21.74068451 72.24368049 -26.03225556 80.45591882 -30.33203125 88.66796875 C-30.83283203 89.67714355 -31.33363281 90.68631836 -31.84960938 91.72607422 C-33.3137131 94.39283458 -34.7770246 96.6391598 -36.55664062 99.07470703 C-48.36925671 116.42930097 -46.05478512 136.6504551 -45.6774292 156.74078369 C-45.53892679 164.52513505 -45.48284157 172.30992738 -45.45175552 180.09535217 C-45.43005549 182.79791921 -45.37373685 185.49813316 -45.3132019 188.20007324 C-45.296109 189.85016829 -45.28003141 191.50027427 -45.26513672 193.15039062 C-45.23922958 193.89423508 -45.21332245 194.63807953 -45.18663025 195.40446472 C-45.1831982 199.3009227 -45.62710202 201.02774076 -48.03077698 204.15235901 C-50.64160211 206.10637205 -51.58414111 206.81143132 -54.74243164 206.78686523 C-55.48993179 206.79294296 -56.23743195 206.79902069 -57.00758362 206.80528259 C-57.80043259 206.78575027 -58.59328156 206.76621796 -59.41015625 206.74609375 C-60.23704453 206.74376236 -61.0639328 206.74143097 -61.9158783 206.73902893 C-63.65829839 206.72931346 -65.40068792 206.70757687 -67.14282227 206.67456055 C-69.80727984 206.62509691 -72.46989002 206.61307457 -75.13476562 206.60742188 C-76.83074878 206.59333665 -78.52671593 206.57713252 -80.22265625 206.55859375 C-81.01752945 206.55323105 -81.81240265 206.54786835 -82.63136292 206.54234314 C-89.69148748 206.39070303 -89.69148748 206.39070303 -92.75 204.1875 C-93.75 202.1875 -93.75 202.1875 -93.75 192.1875 C-82.53 192.1875 -71.31 192.1875 -59.75 192.1875 C-59.80236816 189.74762695 -59.85473633 187.30775391 -59.90869141 184.79394531 C-60.0758131 176.65209005 -60.18540473 168.51015051 -60.26812172 160.36702347 C-60.31989248 155.43873205 -60.38987896 150.51222538 -60.50439453 145.58496094 C-61.4235269 104.9224594 -61.4235269 104.9224594 -51.14996338 90.26550293 C-48.67714332 86.59503025 -46.77093823 82.62608586 -44.765625 78.6875 C-43.93419038 77.11063212 -43.10020485 75.53510662 -42.26367188 73.9609375 C-38.37571216 66.60096397 -34.60200717 59.18220366 -30.81774902 51.76855469 C-28.54823791 47.32329827 -26.27408598 42.88041732 -24 38.4375 C-23.55186951 37.5619043 -23.10373901 36.68630859 -22.64202881 35.78417969 C-18.61078442 27.91027202 -14.56452197 20.0442793 -10.5 12.1875 C-9.6332666 10.50720703 -9.6332666 10.50720703 -8.74902344 8.79296875 C-8.22856445 7.78878906 -7.70810547 6.78460937 -7.171875 5.75 C-6.72424805 4.88503906 -6.27662109 4.02007813 -5.81542969 3.12890625 C-4.01053473 -0.15993992 -4.19754049 0.20987702 0 0 Z " fill="#6A2A19" transform="translate(858.75,939.8125)"/>
<path d="M0 0 C0.82862045 0.00359528 1.65724091 0.00719055 2.51097107 0.01089478 C3.81329178 0.01067574 3.81329178 0.01067574 5.141922 0.01045227 C8.02594967 0.01115171 10.9099136 0.01894554 13.79393005 0.02676392 C15.78790247 0.02862799 17.78187535 0.03005194 19.77584839 0.03105164 C25.03498082 0.03487769 30.29408583 0.04470871 35.5532074 0.05575562 C40.91534555 0.06596786 46.27748811 0.07054885 51.63963318 0.07559204 C62.16894407 0.08633091 72.69822737 0.10392841 83.2275238 0.12442017 C84.2175238 6.06442017 85.2075238 12.00442017 86.2275238 18.12442017 C80.72387417 18.12442017 80.72387417 18.12442017 77.6650238 15.31192017 C68.93888639 8.39625238 57.98050626 8.89249034 47.2275238 8.12442017 C47.2275238 44.42442017 47.2275238 80.72442017 47.2275238 118.12442017 C41.2875238 118.12442017 35.3475238 118.12442017 29.2275238 118.12442017 C29.2275238 86.44442017 29.2275238 54.76442017 29.2275238 22.12442017 C18.02152724 23.91819676 18.02152724 23.91819676 9.2275238 29.12442017 C5.57348791 31.361585 3.85260735 32.1350148 -0.4599762 32.06192017 C-3.7724762 31.12442017 -3.7724762 31.12442017 -5.7724762 29.62442017 C-7.32413046 25.74528452 -6.48856156 22.16210633 -5.7724762 18.12442017 C-7.0924762 17.79442017 -8.4124762 17.46442017 -9.7724762 17.12442017 C-9.29802864 14.47765928 -8.81816291 11.83208653 -8.3349762 9.18692017 C-8.20026917 8.43217407 -8.06556213 7.67742798 -7.92677307 6.89981079 C-6.66044178 0.01220402 -6.66044178 0.01220402 0 0 Z " fill="#FEF7DF" transform="translate(833.7724761962891,790.8755798339844)"/>
<path d="M0 0 C0.70769531 0.54140625 1.41539062 1.0828125 2.14453125 1.640625 C3.25248047 2.48367188 3.25248047 2.48367188 4.3828125 3.34375 C12.66243396 10.15048543 21.4330434 21.0244607 24.14453125 31.640625 C23.81453125 32.630625 23.48453125 33.620625 23.14453125 34.640625 C22.73203125 33.939375 22.31953125 33.238125 21.89453125 32.515625 C13.57082695 18.84096793 2.57724312 9.53906256 -12.85546875 4.640625 C-28.1480574 1.17402839 -44.51465852 2.77185092 -58.16796875 10.453125 C-71.41240321 19.04700562 -79.06327019 30.45363924 -84.10546875 45.328125 C-87.67093138 62.12693932 -86.50904904 81.21362754 -77.37109375 96.05078125 C-74.55416064 99.93495448 -71.37563531 103.37803161 -67.85546875 106.640625 C-67.34371094 107.12273437 -66.83195313 107.60484375 -66.3046875 108.1015625 C-61.89009412 112.10006777 -57.14454841 114.93012159 -51.85546875 117.640625 C-56.30845427 119.12495351 -58.72608955 117.18451025 -62.82421875 115.2109375 C-79.68202284 106.47789981 -91.8116985 94.10973334 -97.79296875 75.890625 C-103.35947391 56.91995794 -100.73243169 36.72931533 -91.54296875 19.453125 C-82.5996407 4.54757825 -68.92795124 -4.96802051 -52.54296875 -10.296875 C-34.68913625 -14.56913625 -14.85401838 -10.59854284 0 0 Z " fill="#6A2A19" transform="translate(608.85546875,980.359375)"/>
<path d="M0 0 C0.70769531 0.54140625 1.41539063 1.0828125 2.14453125 1.640625 C3.25248047 2.48367188 3.25248047 2.48367188 4.3828125 3.34375 C12.66243396 10.15048543 21.4330434 21.0244607 24.14453125 31.640625 C23.81453125 32.630625 23.48453125 33.620625 23.14453125 34.640625 C22.73203125 33.939375 22.31953125 33.238125 21.89453125 32.515625 C13.57082695 18.84096793 2.57724312 9.53906256 -12.85546875 4.640625 C-28.1480574 1.17402839 -44.51465852 2.77185092 -58.16796875 10.453125 C-71.31312078 18.98258449 -80.40523141 31.13061752 -84.25390625 46.3984375 C-87.460416 63.68027574 -86.17410226 81.49289315 -76.94921875 96.8046875 C-71.58702727 104.47883835 -65.49730566 109.43178971 -57.85546875 114.640625 C-56.51656085 115.63314876 -55.18082686 116.63007879 -53.85546875 117.640625 C-65.50002802 116.246067 -74.85286339 108.75634139 -82.85546875 100.640625 C-83.50257812 100.00382812 -84.1496875 99.36703125 -84.81640625 98.7109375 C-98.2013692 84.62457911 -100.39399957 66.41549491 -100.1328125 47.91796875 C-99.54017681 31.40377725 -91.42087159 15.82274515 -79.61328125 4.48828125 C-57.02249891 -14.80646891 -24.54682873 -17.51449401 0 0 Z " fill="#692919" transform="translate(1186.85546875,980.359375)"/>
<path d="M0 0 C8.29148488 0.43639394 16.24061526 6.36860159 22 12 C32.54542362 24.74721537 35.32332205 38.84249021 34 55 C32.36835205 62.99041312 28.57048952 70.81258035 21.75390625 75.56640625 C13.01111828 80.60535301 3.79735234 81.45415995 -6.140625 79.328125 C-8.46352282 78.6246188 -10.73705223 77.87597978 -13 77 C-12.39671875 77.39832031 -11.7934375 77.79664063 -11.171875 78.20703125 C-10.37265625 78.73683594 -9.5734375 79.26664063 -8.75 79.8125 C-7.96109375 80.33457031 -7.1721875 80.85664062 -6.359375 81.39453125 C-4.18907519 82.87134122 -2.08586232 84.40689873 0 86 C-5.01559091 85.46068915 -8.94393768 83.77645153 -13.3125 81.375 C-13.97113037 81.01599609 -14.62976074 80.65699219 -15.30834961 80.28710938 C-26.42561399 74.09583728 -34.85688494 66.85492541 -39.3046875 54.6328125 C-41.61036155 45.90233884 -39.92767246 37.98869183 -36 30 C-32.1050811 23.57776012 -27.01740606 17.99619585 -20 15 C-13.52835008 13.95383103 -8.3477879 15.31451018 -3 19 C2.69029085 23.4599577 6.68990124 29.11783079 9 36 C8.67 36.99 8.34 37.98 8 39 C7.46375 38.2575 6.9275 37.515 6.375 36.75 C2.47661332 32.23607858 -0.86349157 29.77350525 -6.875 29.3125 C-11.94362049 29.54842678 -14.64796137 31.25668049 -18.171875 34.81640625 C-23.45069452 41.1216629 -26.68345289 46.39332085 -26.6015625 54.7734375 C-25.77559809 57.83057848 -24.43920401 59.00729435 -22 61 C-14.38924472 65.35555272 -6.72301623 67.46951082 2 66 C7.83727528 64.0301206 12.8291921 61.45378959 16 56 C20.78981996 45.11404555 21.74032295 34.22199724 18 22.75 C14.21279998 13.21781012 8.55464806 6.52487687 0 1 C0 0.67 0 0.34 0 0 Z " fill="#692919" transform="translate(325,990)"/>
<path d="M0 0 C1.258125 -0.020625 2.51625 -0.04125 3.8125 -0.0625 C4.52019531 -0.07410156 5.22789062 -0.08570313 5.95703125 -0.09765625 C8 0 8 0 11 1 C11 10.57 11 20.14 11 30 C3.04941557 29.00617695 2.32135643 28.84834697 -3 24 C-7.00215854 22.034151 -10.91271408 21.45067292 -15.3125 20.875 C-16.56675781 20.70742188 -17.82101562 20.53984375 -19.11328125 20.3671875 C-20.06589844 20.24601563 -21.01851562 20.12484375 -22 20 C-21.99333817 21.29181686 -21.98667633 22.58363373 -21.97981262 23.91459656 C-21.91902188 36.08326474 -21.87403707 48.25190215 -21.84456348 60.42068768 C-21.82890149 66.67692578 -21.80765317 72.93304138 -21.77368164 79.18920898 C-21.74110769 85.22571328 -21.72315101 91.26209968 -21.71536827 97.29868507 C-21.70982127 99.60280018 -21.69898948 101.90690877 -21.68280983 104.21097374 C-21.66106208 107.43595751 -21.65803202 110.66045286 -21.65942383 113.88549805 C-21.648638 114.83999847 -21.63785217 115.7944989 -21.6267395 116.77792358 C-21.649348 121.61291187 -21.68861487 125.16369132 -25 129 C-29.00110123 130.33370041 -32.68503403 130.22335475 -36.875 130.25 C-37.67808594 130.270625 -38.48117187 130.29125 -39.30859375 130.3125 C-44.00104931 130.34342228 -47.24660775 130.14990566 -51 127 C-52 124 -52 124 -52 116 C-46.72 116 -41.44 116 -36 116 C-36 79.7 -36 43.4 -36 6 C-12.37313433 6 -12.37313433 6 -3.81640625 13.6953125 C-1.59196858 15.29308064 0.31379345 15.62218021 3 16 C2.7834375 15.09636719 2.566875 14.19273437 2.34375 13.26171875 C2.0653125 12.08222656 1.786875 10.90273438 1.5 9.6875 C1.2215625 8.51574219 0.943125 7.34398437 0.65625 6.13671875 C0 3 0 3 0 0 Z " fill="#682717" transform="translate(917,793)"/>
<path d="M0 0 C7.97413793 -0.13133874 7.97413793 -0.13133874 12 2 C13.26788425 4.53576849 13.13324702 6.30444166 13.14476013 9.14407349 C13.15510788 10.77951614 13.15510788 10.77951614 13.16566467 12.44799805 C13.16958473 14.25095337 13.16958473 14.25095337 13.17358398 16.09033203 C13.18385024 18.02791729 13.19411854 19.96550254 13.20446312 21.90308738 C13.21470655 23.99148083 13.22255273 26.07987184 13.22979546 28.16827774 C13.24526735 32.5331136 13.26922415 36.89787732 13.29469299 41.26266479 C13.36581899 53.67717912 13.4253351 66.09173693 13.47680664 78.50634766 C13.50529286 85.35880436 13.54078294 92.21119138 13.58346039 99.06357467 C13.60565942 102.68358127 13.62425203 106.30352428 13.63390923 109.9235878 C11.90576646 135.86391647 11.90576646 135.86391647 20.7578125 158.8125 C21.16773438 159.204375 21.57765625 159.59625 22 160 C14.73174033 159.41853923 10.55550289 156.9032405 5.75 151.5625 C-1.0898458 143.15109695 -0.14328571 133.03927598 -0.11352539 122.72094727 C-0.11324298 121.38003034 -0.11340231 120.03911325 -0.1139679 118.69819641 C-0.11425375 115.07474586 -0.10839134 111.45132869 -0.10139394 107.82788587 C-0.09512505 104.0349121 -0.09455381 100.2419375 -0.09336853 96.44895935 C-0.09026562 89.27391015 -0.08206628 82.09887626 -0.07201904 74.92383379 C-0.06082557 66.7521241 -0.05533931 58.58041366 -0.05032361 50.4086982 C-0.03988277 33.60578985 -0.02230352 16.80289688 0 0 Z " fill="#682717" transform="translate(1333,940)"/>
<path d="M0 0 C2.50080927 2.25879547 2.93067166 3.54441377 3.4375 6.875 C2.39795287 14.30033666 -3.27753436 18.26269533 -8.66015625 22.94921875 C-10.51785582 24.57741954 -12.28311207 26.22682066 -14 28 C-13.505 28.969375 -13.01 29.93875 -12.5 30.9375 C-10.66022414 35.30696767 -10.13407749 39.31887436 -11 44 C-14.51167019 50.17569586 -20.57701611 53.2651095 -27 56 C-32.20892821 57.23131843 -34.38046775 56.75206177 -39 54 C-39.94875 53.443125 -40.8975 52.88625 -41.875 52.3125 C-42.57625 51.879375 -43.2775 51.44625 -44 51 C-45.12894876 51.93274109 -46.25300876 52.87140122 -47.375 53.8125 C-48.31472656 54.59560547 -48.31472656 54.59560547 -49.2734375 55.39453125 C-51.2221048 57.08225739 -51.2221048 57.08225739 -53 60 C-55.24658203 60.34057617 -55.24658203 60.34057617 -58.0078125 60.29296875 C-58.99394531 60.28330078 -59.98007812 60.27363281 -60.99609375 60.26367188 C-62.02863281 60.23853516 -63.06117188 60.21339844 -64.125 60.1875 C-65.68541016 60.16719727 -65.68541016 60.16719727 -67.27734375 60.14648438 C-69.85207627 60.11105228 -72.4257833 60.06165221 -75 60 C-72.23689408 55.31617219 -69.5557029 51.1886906 -65.5625 47.4375 C-62.74000227 44.75449969 -60.30165406 42.13512211 -58 39 C-55.61637105 36.08443126 -53.85142768 35.48622153 -50.125 35.0625 C-48.75083156 35.01034509 -47.37499147 34.97861124 -46 35 C-46 34.34 -46 33.68 -46 33 C-49.465 33.495 -49.465 33.495 -53 34 C-49.35348712 29.28022269 -46.43009721 26.60644666 -41 24 C-39.7464714 22.92357036 -38.51950961 21.81584503 -37.3125 20.6875 C-34.24699256 17.89110199 -31.25564187 15.95033509 -27.5625 14.0625 C-21.29457087 10.81084831 -15.58785515 6.61005794 -11.4375 0.8203125 C-8.11306193 -3.38943788 -4.39965202 -1.64986951 0 0 Z " fill="#6A2A1A" transform="translate(496,862)"/>
<path d="M0 0 C3.79000207 3.22553368 5.16600048 5.46509825 5.8125 10.375 C5.874375 11.57125 5.93625 12.7675 6 14 C4.72125 14.28875 3.4425 14.5775 2.125 14.875 C-5.30400032 17.30031548 -10.75696727 23.6354509 -15 30 C-15.30929728 32.93744072 -15.30929728 32.93744072 -15.27124023 36.31982422 C-15.28142685 37.6248288 -15.29161346 38.92983337 -15.30210876 40.27438354 C-15.30304976 40.97164425 -15.30399075 41.66890495 -15.30496025 42.38729477 C-15.30862514 44.57341243 -15.32535498 46.75907691 -15.34571838 48.94509888 C-15.40111575 55.15976526 -15.43179407 61.37449867 -15.45629883 67.58935547 C-15.47219794 71.39253845 -15.50244255 75.19540044 -15.54106331 78.9984169 C-15.55269415 80.44561473 -15.55864349 81.89287003 -15.55874443 83.34011459 C-15.55893706 85.36725051 -15.57874606 87.39435566 -15.59936523 89.42138672 C-15.60697121 91.14988358 -15.60697121 91.14988358 -15.61473083 92.91329956 C-16.04574961 96.36653685 -16.88052776 98.25725885 -19 101 C-23.00110123 102.33370041 -26.68503403 102.22335475 -30.875 102.25 C-32.07962891 102.2809375 -32.07962891 102.2809375 -33.30859375 102.3125 C-38.00104931 102.34342228 -41.24660775 102.14990566 -45 99 C-46 96 -46 96 -46 88 C-40.72 88 -35.44 88 -30 88 C-30.03665771 86.01750244 -30.07331543 84.03500488 -30.11108398 81.99243164 C-30.22432678 75.4148348 -30.30455635 68.83746995 -30.3626852 62.25916386 C-30.39909441 58.27369915 -30.44841191 54.28929675 -30.52807617 50.30444336 C-30.60458663 46.45288726 -30.64608273 42.60234748 -30.6641407 38.75008965 C-30.67699526 37.28646292 -30.70209793 35.82288684 -30.7401104 34.35969734 C-30.94753504 26.03838282 -30.62578243 20.03024027 -24.72084045 13.66558838 C-24.1529631 13.11594421 -23.58508575 12.56630005 -23 12 C-21.9171875 10.76830078 -21.9171875 10.76830078 -20.8125 9.51171875 C-14.62922605 3.28846674 -9.21839407 -1.48683775 0 0 Z " fill="#682717" transform="translate(976,821)"/>
<path d="M0 0 C8.64806948 1.2354385 14.2495996 4.43220464 19.828125 11.2265625 C24.98849359 18.91701472 26.91415005 27.88525542 25.5 37.0625 C21.99497549 50.57875075 14.10500228 60.41749856 2.375 67.8125 C-7.57100856 73.24691705 -18.85742105 76.20540195 -30 78 C-29.06692579 79.44037669 -28.12834923 80.87718985 -27.1875 82.3125 C-26.66542969 83.11300781 -26.14335938 83.91351562 -25.60546875 84.73828125 C-24.19610151 86.7237402 -22.77903343 88.3491852 -21 90 C-28.36106802 89.68676306 -33.66852484 86.44203296 -38.765625 81.17578125 C-42.67250763 76.31190969 -47 69.41892904 -47 63 C-45.80246094 62.91363281 -44.60492187 62.82726562 -43.37109375 62.73828125 C-25.74102516 61.28988259 -9.28192331 57.44798101 3.3125 44.06640625 C9.11617221 36.95959468 11.38962901 28.52509524 10.875 19.4375 C10.05224886 12.67580957 8.061108 7.46958962 2.75 3.0625 C1.38875 2.0415625 1.38875 2.0415625 0 1 C0 0.67 0 0.34 0 0 Z " fill="#682717" transform="translate(1078,814)"/>
<path d="M0 0 C6.41295309 0.26720638 10.52482357 2.36533091 15 7 C18.96452912 12.77548686 21.27114495 18.9502313 21 26 C20.55207653 27.91967202 20.09918274 29.83982993 19.5546875 31.734375 C16.87314063 42.68717206 17.60281986 55.51601039 21.03662109 66.23632812 C22.06186714 70.24169888 22.21678435 73.85340438 22.08203125 77.9453125 C22.05516487 79.04466629 22.05516487 79.04466629 22.02775574 80.16622925 C21.98682891 81.70423789 21.94030861 83.24210704 21.88842773 84.77978516 C21.81249253 87.12523085 21.76364212 89.47021999 21.71679688 91.81640625 C21.67350737 93.31775629 21.62863962 94.81906183 21.58203125 96.3203125 C21.56936722 97.01625519 21.55670319 97.71219788 21.5436554 98.42922974 C21.37200509 102.73026676 20.69251439 105.60400004 18 109 C13.99889877 110.33370041 10.31496597 110.22335475 6.125 110.25 C4.92037109 110.2809375 4.92037109 110.2809375 3.69140625 110.3125 C-1.00104931 110.34342228 -4.24660775 110.14990566 -8 107 C-9 104 -9 104 -9 96 C-3.72 96 1.56 96 7 96 C6.93698577 85.31612936 6.8614938 74.63254416 6.76428509 63.94892883 C6.71963637 58.98761635 6.68036814 54.02638494 6.65356445 49.06494141 C6.62747662 44.2731667 6.5870355 39.48170491 6.53681374 34.69012451 C6.52018204 32.86582341 6.5086448 31.04146823 6.50238609 29.21710205 C6.49270462 26.65351884 6.46459787 24.09072952 6.43237305 21.52734375 C6.43380814 20.77999466 6.43524323 20.03264557 6.4367218 19.26264954 C6.30860104 12.01394731 3.99526698 6.08802587 0 0 Z " fill="#682717" transform="translate(993,813)"/>
<path d="M0 0 C14.13680521 3.75007747 25.45309677 11.5803092 32.94140625 24.296875 C42.09346332 41.32817091 44.0888176 59.42727844 39.18359375 78.109375 C35.86102622 87.95195999 30.74412818 96.08069021 23 103 C30.12299812 111.58412594 37.53342922 118.97896971 46.71484375 125.37109375 C49 127 49 127 51 129 C35.12564647 126.90033987 22.9947168 113.11533197 12.125 102.375 C11.51164795 101.77107422 10.8982959 101.16714844 10.26635742 100.54492188 C6 96.24601559 6 96.24601559 6 94 C7.31907693 92.97405128 8.68243548 92.00481451 10.0625 91.0625 C19.32577531 84.02765413 24.58052493 73.03098983 26.58203125 61.70703125 C28.54950141 44.25722578 26.4285814 28.65523659 16 14 C11.36825165 8.3379429 6.70576965 4.87390128 0 2 C0 1.34 0 0.68 0 0 Z " fill="#6A2A19" transform="translate(1570,944)"/>
<path d="M0 0 C4.35298619 4.64318527 5.04273165 12.40532848 5.5 18.5625 C5.31936646 24.02904133 2.88398405 27.31172058 -1 31 C-11.95831337 39.77381299 -25.78403186 43.88463974 -39.7734375 42.78125 C-54.86264326 40.53300158 -66.90000043 33.11388831 -76 21 C-79.10022153 15.91226022 -81.52459298 11.02182231 -82 5 C-81.4225 5.72316406 -80.845 6.44632813 -80.25 7.19140625 C-79.5075 8.11824219 -78.765 9.04507813 -78 10 C-77.360625 10.81339844 -76.72125 11.62679687 -76.0625 12.46484375 C-68.81787939 21.15015596 -60.19832817 26.25497198 -48.90625 27.8125 C-35.44664553 28.68086158 -23.34678093 25.80956507 -12.48828125 17.625 C-9.81023572 14.70093978 -8.99154088 12.04470078 -9.0234375 8.10546875 C-9.13945313 7.14253906 -9.25546875 6.17960938 -9.375 5.1875 C-9.48585938 4.21167969 -9.59671875 3.23585938 -9.7109375 2.23046875 C-9.80632812 1.49441406 -9.90171875 0.75835938 -10 0 C-6.72390475 -1.63804763 -3.40367341 -0.99244687 0 0 Z " fill="#682717" transform="translate(1098,882)"/>
<path d="M0 0 C0.33 0.99 0.66 1.98 1 3 C2.41750563 2.88490339 3.83401169 2.75746342 5.25 2.625 C6.43335938 2.52058594 6.43335938 2.52058594 7.640625 2.4140625 C9.99532068 2.13735643 9.99532068 2.13735643 11.8125 0.96875 C15.05682689 -0.46802334 18.27198492 -0.21047107 21.75 -0.125 C22.44738281 -0.11597656 23.14476562 -0.10695313 23.86328125 -0.09765625 C25.57566958 -0.07419888 27.28788004 -0.03833104 29 0 C29 0.99 29 1.98 29 3 C30.98 2.67 32.96 2.34 35 2 C34.6875 3.875 34.6875 3.875 34 6 C33.01 6.66 32.02 7.32 31 8 C31 9.32 31 10.64 31 12 C29.34765625 14.2265625 29.34765625 14.2265625 27.0625 16.625 C24.50248671 19.33417942 21.97842483 22.02557057 19.57421875 24.875 C18.80722656 25.7825 18.04023438 26.69 17.25 27.625 C16.55390625 28.46289062 15.8578125 29.30078125 15.140625 30.1640625 C13 32 13 32 10.37890625 32.3671875 C7.52606194 31.926847 6.13482259 30.89762008 4 29 C3.29875 29.474375 2.5975 29.94875 1.875 30.4375 C-1.29135313 32.15834409 -3.4001657 32.85306799 -7 33 C-10.5123018 31.76036407 -12.4576948 30.69724955 -14.75 27.75 C-16.19527089 24.57040403 -17.09311587 21.36842677 -18 18 C-18.33 17.67 -18.66 17.34 -19 17 C-19.07289328 12.77218948 -19.07082919 10.2615248 -16.2890625 6.984375 C-10.98376985 2.29047295 -7.24018441 -0.32909929 0 0 Z M18 3 C15.525 4.485 15.525 4.485 13 6 C13.99 6.495 13.99 6.495 15 7 C17.11683841 6.10836423 17.11683841 6.10836423 19 5 C18.67 4.34 18.34 3.68 18 3 Z M-7 6 C-7.33 6.66 -7.66 7.32 -8 8 C-7.34 8 -6.68 8 -6 8 C-6.33 7.34 -6.66 6.68 -7 6 Z " fill="#6B2C1B" transform="translate(404,886)"/>
<path d="M0 0 C4.44890255 3.00042265 7.22503296 6.62738957 8.6875 11.8125 C8.3125 14.125 8.3125 14.125 7.6875 15.8125 C6.6975 15.1525 5.7075 14.4925 4.6875 13.8125 C0.73522205 13.00177632 -2.84645592 13.10169075 -6.50390625 14.875 C-14.931947 20.76023529 -18.54677787 28.8944012 -20.3125 38.8125 C-20.64133313 42.55732908 -20.86944668 46.28234362 -21.00390625 50.0390625 C-21.10574219 50.95429687 -21.20757813 51.86953125 -21.3125 52.8125 C-23.95708379 54.13479189 -25.99011301 53.90927194 -28.9375 53.875 C-29.94039062 53.86597656 -30.94328125 53.85695313 -31.9765625 53.84765625 C-32.74742188 53.83605469 -33.51828125 53.82445312 -34.3125 53.8125 C-38.14048258 46.15653483 -35.96473167 31.50554446 -33.6875 23.625 C-29.86221009 13.28601713 -24.50577779 5.05468947 -14.875 -0.625 C-9.66411493 -1.76885282 -5.04307794 -1.80789587 0 0 Z " fill="#682717" transform="translate(1064.3125,817.1875)"/>
<path d="M0 0 C3.279375 -0.04125 6.55875 -0.0825 9.9375 -0.125 C10.95191162 -0.14320801 11.96632324 -0.16141602 13.01147461 -0.18017578 C21.11760549 -0.22894629 29.02040991 0.55844267 36 5 C39.33839452 8.37458307 41.96507903 11.2539516 42.0625 16.125 C42.041875 17.07375 42.02125 18.0225 42 19 C40.9171875 18.2884375 40.9171875 18.2884375 39.8125 17.5625 C34.46146065 14.58970036 28.67656742 14.72618827 22.6875 14.4375 C19.820625 14.293125 16.95375 14.14875 14 14 C14 22.58 14 31.16 14 40 C9.38 40 4.76 40 0 40 C0 26.8 0 13.6 0 0 Z " fill="#692818" transform="translate(934,974)"/>
<path d="M0 0 C3.58875 -0.061875 7.1775 -0.12375 10.875 -0.1875 C12.53958252 -0.22846802 12.53958252 -0.22846802 14.23779297 -0.27026367 C22.05238947 -0.3346811 29.11168229 0.63319791 35.875 4.75 C39.25741311 8.33137859 41.81994573 11.88436232 42.25 16.9375 C42.1675 17.618125 42.085 18.29875 42 19 C41.2575 18.525625 40.515 18.05125 39.75 17.5625 C35.89310308 15.3710813 32.62977196 14.8808231 28.234375 14.68359375 C27.43225586 14.64548584 26.63013672 14.60737793 25.80371094 14.56811523 C24.79598633 14.52501221 23.78826172 14.48190918 22.75 14.4375 C19.5325 14.293125 16.315 14.14875 13 14 C13 22.58 13 31.16 13 40 C8.71 40 4.42 40 0 40 C0 26.8 0 13.6 0 0 Z " fill="#692818" transform="translate(1520,974)"/>
<path d="M0 0 C6.61698842 2.63329131 10.59675947 6.82254216 13.921875 13.0390625 C14.53583576 15.56312341 14.37873559 16.93678891 13.484375 19.3515625 C13.01 18.7328125 12.535625 18.1140625 12.046875 17.4765625 C8.47774723 14.51679801 5.06899038 13.71492999 0.484375 13.3515625 C-2.94824633 13.96057596 -5.41721396 14.69251587 -8.390625 16.4765625 C-10.61644233 20.18625805 -10.81240873 24.65565547 -10.078125 28.8515625 C-9.8925 29.3465625 -9.706875 29.8415625 -9.515625 30.3515625 C-14.9302989 29.91838859 -18.32291882 28.86173512 -22.515625 25.3515625 C-24.97612396 21.32529147 -25.06805303 16.95512943 -24.515625 12.3515625 C-22.72112016 6.46957441 -20.34701229 3.84660862 -15.515625 0.3515625 C-10.95897196 -1.92676402 -4.81209194 -1.24038395 0 0 Z " fill="#6A2A1A" transform="translate(1660.515625,1007.6484375)"/>
<path d="M0 0 C3.1913049 -0.17729472 5.94451506 0.02345292 9 1 C11.78170987 3.53839246 13.29834482 6.67261651 15 10 C15.52207031 11.01191406 16.04414062 12.02382813 16.58203125 13.06640625 C17.50283229 14.89396561 18.42218826 16.72243082 19.31420898 18.56420898 C21.45788316 22.98325234 23.70009201 27.3364259 26.0307312 31.65908813 C27.52883792 34.43916789 29.01179858 37.22723101 30.49493408 40.01531982 C31.24605351 41.41755818 32.00412794 42.81609399 32.76922607 44.21075439 C33.85700332 46.19621247 34.91880211 48.19374041 35.9765625 50.1953125 C36.31149719 50.79170532 36.64643188 51.38809814 36.99151611 52.00256348 C38.65206237 55.20662508 39.06599552 56.70804487 38.25927734 60.27685547 C36.06422351 65.02358491 36.06422351 65.02358491 35 67 C34.34 67 33.68 67 33 67 C32.55374268 66.10240967 32.10748535 65.20481934 31.64770508 64.2800293 C26.22031323 53.38394345 20.70519145 42.5335487 15.16186523 31.69604492 C13.67057282 28.77939404 12.18195139 25.86138922 10.69335938 22.94335938 C9.73714144 21.0728337 8.78076709 19.20238798 7.82421875 17.33203125 C7.3835759 16.46745804 6.94293304 15.60288483 6.48893738 14.71211243 C4.81056745 11.43615148 3.14402625 8.2315077 1.19848633 5.10424805 C0 3 0 3 0 0 Z " fill="#6A2A1A" transform="translate(747,940)"/>
<path d="M0 0 C1.0828125 1.11375 1.0828125 1.11375 2.1875 2.25 C8.66512414 8.58367694 14.21689614 12.0343337 23.375 12.5 C29.36640832 12.34145298 34.04278326 10.28323124 39 7 C39.5053125 6.45472656 40.010625 5.90945313 40.53125 5.34765625 C42.43617681 3.59978458 43.45494696 3.65359648 46 3.75 C46.680625 3.76546875 47.36125 3.7809375 48.0625 3.796875 C50 4 50 4 53 5 C52.83301129 11.51255975 49.10901934 15.34311142 45 20 C44.49597656 20.63035156 43.99195313 21.26070312 43.47265625 21.91015625 C40.75201803 24.83847678 38.78640898 25.87628444 34.796875 26.50390625 C24.70464054 26.84249853 16.02634708 24.76576283 8.53125 17.765625 C4.04244639 12.58975961 1.54569194 6.6043201 0 0 Z " fill="#692919" transform="translate(1620,1037)"/>
<path d="M0 0 C14.19 0 28.38 0 43 0 C43 4.62 43 9.24 43 14 C37.82221598 14.07431132 32.64474431 14.12867808 27.46655273 14.16479492 C25.70608104 14.17985553 23.9456467 14.20030826 22.18530273 14.22631836 C19.65078497 14.26282229 17.11676448 14.27975354 14.58203125 14.29296875 C13.79850784 14.30845261 13.01498444 14.32393646 12.2077179 14.33988953 C7.63738218 14.34128826 4.57628823 13.94626854 1 11 C0 8 0 8 0 0 Z " fill="#682717" transform="translate(346,938)"/>
<path d="M0 0 C0 4.62 0 9.24 0 14 C-1.815 14.226875 -3.63 14.45375 -5.5 14.6875 C-11.40512314 15.66010852 -15.21208311 17.55226752 -20 21 C-23.6540359 23.23716484 -25.37491646 24.01059464 -29.6875 23.9375 C-33 23 -33 23 -35 21.5 C-36.60563589 17.48591028 -36.49339783 14.05753372 -35 10 C-26.13519187 -0.1813638 -12.36637837 -0.12618753 0 0 Z " fill="#682717" transform="translate(863,799)"/>
<path d="M0 0 C9.33333333 0 9.33333333 0 13 3 C15.24140023 9.7242007 15.46971394 18.07395404 14 25 C11.26491744 29.07450617 8.05721651 31.33822008 4 34 C2.68 35.32 1.36 36.64 0 38 C0 25.46 0 12.92 0 0 Z " fill="#682717" transform="translate(946,793)"/>
<path d="M0 0 C0.68835938 0.01353516 1.37671875 0.02707031 2.0859375 0.04101562 C3.76597001 0.0760163 5.4455935 0.12981046 7.125 0.1875 C7.125 3.1875 7.125 3.1875 5.515625 4.8359375 C4.80921875 5.40570312 4.1028125 5.97546875 3.375 6.5625 C0.20623913 9.20875243 -2.43327612 11.83012966 -4.875 15.1875 C-2.37112697 13.7269074 0.01529816 12.27212714 2.3125 10.5 C4.125 9.1875 4.125 9.1875 6.125 9.1875 C4.72004255 12.51884241 3.13645032 14.28083146 0.25 16.4375 C-0.42804688 16.95828125 -1.10609375 17.4790625 -1.8046875 18.015625 C-3.875 19.1875 -3.875 19.1875 -7.875 19.1875 C-8.205 17.8675 -8.535 16.5475 -8.875 15.1875 C-9.9475 15.8475 -11.02 16.5075 -12.125 17.1875 C-15.18480686 19.07045807 -16.0085864 19.1875 -19.875 19.1875 C-21.38389469 16.16971063 -21.37526276 14.56427363 -20.875 11.1875 C-15.62644952 3.16298207 -9.65013357 -0.36468528 0 0 Z M-3.875 3.1875 C-6.35 4.6725 -6.35 4.6725 -8.875 6.1875 C-7.885 6.6825 -7.885 6.6825 -6.875 7.1875 C-4.75816159 6.29586423 -4.75816159 6.29586423 -2.875 5.1875 C-3.205 4.5275 -3.535 3.8675 -3.875 3.1875 Z " fill="#F8EED6" transform="translate(425.875,885.8125)"/>
<path d="M0 0 C2.39343963 2.18650944 3.83396876 4.28317564 5.29321289 7.16992188 C5.72118668 8.00930298 6.14916046 8.84868408 6.59010315 9.71350098 C7.04634567 10.62273315 7.5025882 11.53196533 7.97265625 12.46875 C8.4552037 13.41826538 8.93775116 14.36778076 9.43492126 15.34606934 C10.98295574 18.39462341 12.52303555 21.4471106 14.0625 24.5 C16.07195825 28.46989745 18.08449955 32.43822699 20.09765625 36.40625 C20.59565231 37.38882278 21.09364838 38.37139557 21.60673523 39.38374329 C25.92504429 47.88893481 30.35326176 56.33310592 34.81655884 64.76287842 C37.88607834 70.5653539 40.93425419 76.37884074 43.96264648 82.20288086 C44.70886864 83.63420287 45.45832798 85.06384093 46.21069336 86.49194336 C47.32676443 88.61169427 48.43199885 90.73678744 49.53515625 92.86328125 C50.03813988 93.8101757 50.03813988 93.8101757 50.55128479 94.77619934 C52.47213312 98.51128166 53.53669998 101.82551115 54 106 C51.32534469 102.6907326 49.39523997 99.11797817 47.48046875 95.33984375 C47.14556931 94.68667679 46.81066986 94.03350983 46.46562195 93.36054993 C45.36955696 91.22123305 44.27860182 89.0793518 43.1875 86.9375 C42.42052062 85.43890439 41.65310012 83.94053447 40.88525391 82.44238281 C39.71510939 80.15918521 38.54522527 77.8758588 37.37670898 75.59182739 C33.90093057 68.7982688 30.39333631 62.02162734 26.875 55.25 C23.23260718 48.23601835 19.59518003 41.21957418 15.97265625 34.1953125 C15.29250294 32.87726705 14.61232731 31.55923312 13.93212891 30.24121094 C12.94911263 28.33639731 11.96651707 26.43137463 10.98553467 24.5255127 C7.74295169 18.22596714 4.49985719 11.96444221 0.84985352 5.88916016 C0 4 0 4 0 0 Z " fill="#713423" transform="translate(708,945)"/>
<path d="M0 0 C0.6875 1.75 0.6875 1.75 1 4 C-0.4375 6.25 -0.4375 6.25 -2 8 C-3.65 7.67 -5.3 7.34 -7 7 C-9.31 9.64 -11.62 12.28 -14 15 C-10.23301587 14.05825397 -8.00430209 12.95002893 -4.75 10.9375 C-3.85796875 10.38964844 -2.9659375 9.84179688 -2.046875 9.27734375 C-1.37140625 8.85582031 -0.6959375 8.43429687 0 8 C0 8.99 0 9.98 0 11 C-1.8984375 12.7890625 -1.8984375 12.7890625 -4.375 14.625 C-5.59316406 15.54152344 -5.59316406 15.54152344 -6.8359375 16.4765625 C-10.41982488 18.99951571 -12.60757392 19.27452663 -17 19 C-19 17 -19 17 -19.125 13.3125 C-18.41682306 8.51263405 -15.75616157 6.39052435 -12.10546875 3.4453125 C-7.86269416 0.53283273 -5.2027924 -0.23649056 0 0 Z " fill="#FCF5DD" transform="translate(404,886)"/>
<path d="M0 0 C0.33 0.99 0.66 1.98 1 3 C-2.33532472 8.40552628 -5.83584123 10.08703033 -11.79296875 12.04296875 C-14.32892546 12.905473 -14.32892546 12.905473 -16 16 C-9.65660349 14.19389405 -4.43061745 11.74372266 1 8 C1 11 1 11 -0.3203125 12.53515625 C-4.0289974 15.67389174 -7.10989327 18.06359658 -12 19 C-15.375 18.625 -15.375 18.625 -18 18 C-18.40517987 14.69103108 -18.62269557 12.07576798 -16.91015625 9.1171875 C-12.60335872 3.83936135 -7.2323183 -0.87664464 0 0 Z " fill="#F4E9D2" transform="translate(470,886)"/>
<path d="M0 0 C-1.33463542 1.46484375 -2.66927083 2.9296875 -4.00390625 4.39453125 C-4.33261719 4.92433594 -4.66132813 5.45414063 -5 6 C-4.67 6.99 -4.34 7.98 -4 9 C-0.43009831 8.68500867 1.54079548 7.73954766 4.1875 5.4375 C7 3 7 3 9 3 C7.59504255 6.33134241 6.01145032 8.09333146 3.125 10.25 C2.44695312 10.77078125 1.76890625 11.2915625 1.0703125 11.828125 C-1 13 -1 13 -5 13 C-5.33 11.68 -5.66 10.36 -6 9 C-7.98 9.99 -9.96 10.98 -12 12 C-12.33 11.34 -12.66 10.68 -13 10 C-13.66 10 -14.32 10 -15 10 C-13.64319732 5.55955487 -11.86646942 3.54835485 -8 1 C-2.51612903 -1.25806452 -2.51612903 -1.25806452 0 0 Z " fill="#F7EED6" transform="translate(423,892)"/>
<path d="M0 0 C1.8125 1.1875 1.8125 1.1875 3 3 C3.6875 6.6875 3.6875 6.6875 4 10 C-0.64474974 10.32405231 -3.29105728 9.88473323 -7 7 C-9.03671629 3.99341882 -9 2.80903404 -9 -1 C-5.17456525 -2.27514492 -3.66576992 -1.52740413 0 0 Z " fill="#6C2D1D" transform="translate(322,1031)"/>
<path d="M0 0 C0.8971875 0.5259375 0.8971875 0.5259375 1.8125 1.0625 C1.39097656 1.50980469 0.96945312 1.95710937 0.53515625 2.41796875 C-3.7252979 7.04649766 -3.7252979 7.04649766 -5.1875 13.0625 C-6.6481285 10.41511084 -7.1875 9.16801666 -7.1875 6.0625 C-7.87457031 6.5678125 -8.56164062 7.073125 -9.26953125 7.59375 C-10.17058594 8.2434375 -11.07164062 8.893125 -12 9.5625 C-12.89332031 10.2121875 -13.78664063 10.861875 -14.70703125 11.53125 C-17.1875 13.0625 -17.1875 13.0625 -20.1875 13.0625 C-18.62287634 8.83801612 -15.76995016 6.66153247 -12.1875 4.0625 C-10.53009285 3.68581656 -8.86404729 3.34192455 -7.1875 3.0625 C-6.5275 2.0725 -5.8675 1.0825 -5.1875 0.0625 C-2.1875 -0.9375 -2.1875 -0.9375 0 0 Z " fill="#7B4230" transform="translate(410.1875,888.9375)"/>
<path d="M0 0 C-0.125 1.75 -0.125 1.75 -1 4 C-3.75546456 6.12922261 -6.31642041 7.73323723 -9.5625 9 C-12.50504371 10.20719742 -14.59676187 11.94008161 -17 14 C-17.66 13.67 -18.32 13.34 -19 13 C-17.2841907 11.00773806 -15.55403348 9.03206483 -13.8125 7.0625 C-13.32974609 6.49853516 -12.84699219 5.93457031 -12.34960938 5.35351562 C-10.14374711 2.88117335 -8.5084801 1.16701901 -5.32421875 0.12109375 C-3.55142469 0.02872969 -1.77519855 0 0 0 Z " fill="#743727" transform="translate(439,888)"/>
<path d="M0 0 C-9.22551253 8.81548975 -9.22551253 8.81548975 -15 10 C-13.64319732 5.55955487 -11.86646942 3.54835485 -8 1 C-2.51612903 -1.25806452 -2.51612903 -1.25806452 0 0 Z " fill="#723625" transform="translate(423,892)"/>
<path d="M0 0 C0.53625 0.268125 1.0725 0.53625 1.625 0.8125 C0.4683323 4.28250311 -0.23226716 4.65951459 -3.25 6.5 C-3.94867188 6.93699219 -4.64734375 7.37398437 -5.3671875 7.82421875 C-7.375 8.8125 -7.375 8.8125 -10.375 8.8125 C-8.77644306 4.49639627 -4.93422816 -0.38954433 0 0 Z " fill="#6F3121" transform="translate(400.375,893.1875)"/>
<path d="M0 0 C-2.88406243 3.40843742 -4.3708265 4.86591384 -8.8125 5.8125 C-10.3903125 5.9053125 -10.3903125 5.9053125 -12 6 C-10.91663521 2.50915788 -9.8952877 1.94478806 -6.5625 0.1875 C-3 -1 -3 -1 0 0 Z " fill="#763A2A" transform="translate(466,896)"/>
<path d="M0 0 C2.36020967 2.1485844 3.71551468 4.11743365 5.04296875 7.01171875 C5.56987305 8.14770508 5.56987305 8.14770508 6.10742188 9.30664062 C6.46384766 10.09232422 6.82027344 10.87800781 7.1875 11.6875 C7.55552734 12.48478516 7.92355469 13.28207031 8.30273438 14.10351562 C9.2077297 16.06629769 10.10465652 18.03279639 11 20 C6.72726687 18.57575562 5.77208742 15.4755632 3.8125 11.6875 C3.44447266 11.01009766 3.07644531 10.33269531 2.69726562 9.63476562 C0.83739722 6.10481131 0 4.06041356 0 0 Z " fill="#6D2E1E" transform="translate(708,945)"/>
<path d="M0 0 C0.66 0.33 1.32 0.66 2 1 C1.27683594 1.68835938 1.27683594 1.68835938 0.5390625 2.390625 C-0.09257812 3.00421875 -0.72421875 3.6178125 -1.375 4.25 C-2.00148438 4.85328125 -2.62796875 5.4565625 -3.2734375 6.078125 C-5.08865787 7.90252748 -5.08865787 7.90252748 -5.9765625 10.171875 C-7 12 -7 12 -9.125 12.75 C-10.053125 12.87375 -10.053125 12.87375 -11 13 C-7.61227103 8.30840284 -4.21814817 3.9700218 0 0 Z " fill="#7F4736" transform="translate(431,889)"/>
<path d="M0 0 C0.66 0.66 1.32 1.32 2 2 C0.71372289 3.17260611 -0.57919783 4.3379283 -1.875 5.5 C-2.59429687 6.1496875 -3.31359375 6.799375 -4.0546875 7.46875 C-6 9 -6 9 -8 9 C-7.61479436 6.46089803 -7.29902057 5.27248877 -5.37109375 3.515625 C-4.73300781 3.09796875 -4.09492188 2.6803125 -3.4375 2.25 C-2.79683594 1.82203125 -2.15617187 1.3940625 -1.49609375 0.953125 C-1.00238281 0.63859375 -0.50867188 0.3240625 0 0 Z " fill="#EEE0C9" transform="translate(403,894)"/>
<path d="M0 0 C0.66 0.33 1.32 0.66 2 1 C0.61211198 2.30020011 -0.78569258 3.5898193 -2.1875 4.875 C-2.96480469 5.59429688 -3.74210937 6.31359375 -4.54296875 7.0546875 C-6.97689776 8.9817092 -9.07536646 10.01300111 -12 11 C-8.68542782 6.30435607 -4.63720719 3.27530896 0 0 Z " fill="#885342" transform="translate(480,864)"/>
<path d="M0 0 C0.99 0.33 1.98 0.66 3 1 C2.67 2.32 2.34 3.64 2 5 C2 4.34 2 3.68 2 3 C0.02 3.99 -1.96 4.98 -4 6 C-3.6875 4.125 -3.6875 4.125 -3 2 C-2.01 1.34 -1.02 0.68 0 0 Z " fill="#EBDCC5" transform="translate(415,898)"/>
<path d="M0 0 C-1.50223584 4.20626034 -4.28550034 5.73900021 -8 8 C-6.65580512 3.85539913 -4.87800266 0 0 0 Z " fill="#F2E7CF" transform="translate(432,895)"/>
<path d="M0 0 C0.99 0.33 1.98 0.66 3 1 C2.01 1.33 1.02 1.66 0 2 C0.33 2.99 0.66 3.98 1 5 C0.01 5.33 -0.98 5.66 -2 6 C-2 5.34 -2 4.68 -2 4 C-2.66 3.67 -3.32 3.34 -4 3 C-2.1875 1.4375 -2.1875 1.4375 0 0 Z " fill="#BA9985" transform="translate(466,889)"/>
<path d="M0 0 C2.72426311 2.35277269 3.8141763 4.62496331 5 8 C3.0625 7.375 3.0625 7.375 1 6 C0.25 2.875 0.25 2.875 0 0 Z " fill="#733625" transform="translate(708,945)"/>
</svg>
