<?xml version="1.0" encoding="UTF-8"?>
<svg version="1.1" xmlns="http://www.w3.org/2000/svg" width="1875" height="1875">
<path d="M0 0 C85.06849315 0 85.06849315 0 102.12890625 15.99609375 C113.98086299 28.25286115 116.40556185 43.00301909 116.36791992 59.31884766 C116.14300795 72.62809345 112.14908782 85.01917692 103 95 C97.6398892 100 97.6398892 100 95 100 C106.36374817 113.60448724 120.77636083 130.40149154 139 134 C154.40167468 135.21069865 167.22735751 130.76546676 179.3203125 121.15625 C186.02807296 114.9330806 191.41092466 106.58605547 192.23828125 97.3359375 C192.45682925 88.6170224 191.3363832 81.64674443 185.3125 75.0625 C180.11412308 71.82577475 175.04235063 69.57411783 168.8125 70.0625 C163.71239944 71.31662309 160.49137444 73.14863863 157.1875 77.25 C154.91121396 82.52139926 154.54708054 86.37481842 156.0625 91.8125 C158.40300485 95.66300798 159.86122577 96.32738401 164 98 C166.7771277 98.59049356 169.55133299 98.90921817 172.375 99.1875 C173.11105469 99.26935547 173.84710937 99.35121094 174.60546875 99.43554688 C176.40254625 99.63392556 178.20114893 99.81840577 180 100 C180.33 101.32 180.66 102.64 181 104 C179.96909707 104.96990276 178.92459988 105.92536201 177.875 106.875 C177.29492188 107.40867187 176.71484375 107.94234375 176.1171875 108.4921875 C169.61904858 113.12001337 161.62346677 112.8060053 154 112 C147.12220633 109.94033986 141.74553515 106.14501861 138 100 C132.50901013 89.75587202 132.34662987 77.59929547 135.5 66.5625 C138.93740317 57.71659533 144.78690312 51.75799327 153.43359375 47.9296875 C167.54983842 42.81604027 181.99171581 44.53632344 195.70703125 50.09765625 C209.64109157 57.29651403 217.08010086 69.51774049 222 84 C227.56443295 104.46719643 220.8532657 124.13233622 211 142 C194.6528329 169.37818229 167.80538934 189.93286338 137 198 C118.39536805 201.83260494 99.89216377 198.25097186 84 188 C65.88396027 175.42469806 48.46440352 155.18673265 44 133 C43.35791605 128.54472359 42.87526787 124.07619369 42.4296875 119.59765625 C42.22586244 116.17007053 42.22586244 116.17007053 41 114 C40.01 113.67 39.02 113.34 38 113 C38 140.06 38 167.12 38 195 C25.46 195 12.92 195 0 195 C0 130.65 0 66.3 0 0 Z M38 37 C38 49.87 38 62.74 38 76 C57.35286594 76.77550306 57.35286594 76.77550306 74.875 69.875 C78.43649897 65.05650139 80.41974661 59.93248793 79.9375 53.875 C78.37875559 47.43218979 75.77527437 42.62633507 70 39 C63.43596096 36.48019813 57.01760683 36.77299116 50.0625 36.875 C44.0915625 36.936875 44.0915625 36.936875 38 37 Z " fill="#FFF8E0" transform="translate(1482,938)"/>
<path d="M0 0 C0.67578125 2.2578125 0.67578125 2.2578125 1 5 C-3.96534721 14.14197501 -14.65392894 19.36365796 -23.5625 23.875 C-30.19392087 27.23689488 -35.13778244 31.30764773 -40 37 C-33.49214399 36.66338676 -30.92699327 35.49855907 -26 31 C-21.78522997 28.45357644 -18.91975003 27.64858928 -14 28 C-13.67 28.99 -13.34 29.98 -13 31 C-16.33532472 36.40552628 -19.83584123 38.08703033 -25.79296875 40.04296875 C-28.32892546 40.905473 -28.32892546 40.905473 -30 44 C-28.03925516 43.04661031 -26.08147348 42.0871246 -24.125 41.125 C-23.03445313 40.59132813 -21.94390625 40.05765625 -20.8203125 39.5078125 C-17.96117453 38.15464063 -17.96117453 38.15464063 -16 36 C-15.01 36 -14.02 36 -13 36 C-13.35003063 38.83094947 -13.76781618 39.80598338 -15.99609375 41.66796875 C-16.80175781 42.16941406 -17.60742188 42.67085937 -18.4375 43.1875 C-19.24058594 43.69667969 -20.04367187 44.20585938 -20.87109375 44.73046875 C-24.80281244 47.07507164 -27.375192 47.24775757 -32 47 C-34 45 -34 45 -34.125 42.375 C-34.08375 41.59125 -34.0425 40.8075 -34 40 C-41.98543333 40.78729624 -45.93196471 42.86311366 -51 49 C-52.18584085 50.35561982 -53.37335251 51.70977983 -54.5625 53.0625 C-55.33787109 53.97708984 -55.33787109 53.97708984 -56.12890625 54.91015625 C-58.63856223 57.71321669 -61.33959392 60.33959392 -64 63 C-48.82 63.33 -33.64 63.66 -18 64 C-18 69.28 -18 74.56 -18 80 C-31.2 80 -44.4 80 -58 80 C-57.9388501 86.19994751 -57.9388501 86.19994751 -57.87646484 92.52514648 C-57.74322883 106.18754784 -57.62131562 119.8500306 -57.50522423 133.51258755 C-57.43456806 141.79548277 -57.36005533 150.07830933 -57.27636719 158.36108398 C-57.20340888 165.58288509 -57.13778484 172.80470984 -57.08085597 180.02665573 C-57.0504776 183.84831031 -57.01650286 187.66985445 -56.97373581 191.49139214 C-56.9335375 195.09377118 -56.90320118 198.69610315 -56.88018608 202.29863167 C-56.86528563 204.24000648 -56.84014552 206.1812944 -56.81462097 208.12255859 C-56.73533284 224.54788884 -62.23957369 235.74050667 -73 248 C-73.59296875 248.67675781 -74.1859375 249.35351562 -74.796875 250.05078125 C-90.53927399 266.83594599 -113.93667749 277.8324672 -136.890625 279.23828125 C-163.72732921 279.92695617 -187.16074706 269.97304246 -207 252 C-213.77431368 245.31495253 -219.278685 238.25624828 -224 230 C-224.46148437 229.22398437 -224.92296875 228.44796875 -225.3984375 227.6484375 C-233.6200409 212.74989559 -235.26514959 195.42052739 -230.9753418 179.06176758 C-227.27499058 166.44435267 -220.90563911 155.65183109 -212 146 C-211.42636719 145.34644531 -210.85273438 144.69289063 -210.26171875 144.01953125 C-202.32849941 135.44256619 -191.23463218 128.90357389 -179.546875 127.62109375 C-168.58876904 127.25345167 -160.52188756 129.95782413 -152.1015625 136.96484375 C-143.35438744 145.43562108 -139.00127593 155.66757387 -138.52978516 167.75488281 C-138.43274948 175.47637713 -138.93020478 182.22593296 -143 189 C-143.350625 189.59039063 -143.70125 190.18078125 -144.0625 190.7890625 C-147.31762655 195.37788673 -151.68273161 197.64012389 -157 199 C-165.72662407 199.99907612 -173.28056906 199.30588441 -181 195 C-181.63035156 194.649375 -182.26070313 194.29875 -182.91015625 193.9375 C-185.27127129 192.32993231 -186.76552934 190.66158749 -187.72265625 187.9609375 C-188.62368234 182.86970271 -187.81070997 179.18136299 -185.24609375 174.7265625 C-182.71607634 171.22102114 -180.05835403 169.35278468 -176 168 C-175.01 168.33 -174.02 168.66 -173 169 C-171.9375 171.21484375 -171.9375 171.21484375 -171 173.9375 C-169.56652893 178.212091 -169.56652893 178.212091 -166 181 C-161.98678555 181.56909303 -158.2458101 181.52946929 -154.5 179.9375 C-152.13601122 176.8840145 -152 174.86696313 -152 171 C-154.63461526 161.69789474 -158.75291006 154.92480275 -167.2734375 150.13671875 C-172.75495189 147.85144556 -177.61287475 148.25109796 -183.1875 150 C-190.55077429 155.23610616 -196.26334697 163.0272927 -198 172 C-198.97214835 183.02693986 -197.41195585 190.24494875 -190.703125 198.99609375 C-179.92482224 211.63991052 -162.47605088 217.46288795 -146.5 219.28515625 C-135.90416838 219.72034219 -125.40798872 215.67450624 -117.51123047 208.68164062 C-111.53571422 203.3921338 -111.53571422 203.3921338 -107 197 C-106.34 197 -105.68 197 -105 197 C-104.87367188 196.41734375 -104.74734375 195.8346875 -104.6171875 195.234375 C-103.829076 192.38121187 -102.52090762 189.99193712 -101.1328125 187.390625 C-97.80509991 180.36800395 -96.55501722 174.9045264 -96.56762695 167.1875 C-96.5574353 166.24023544 -96.54724365 165.29297089 -96.53674316 164.31700134 C-96.50674471 161.21127303 -96.49736729 158.10585383 -96.48828125 155 C-96.47142483 152.8366596 -96.4532733 150.67332894 -96.43388367 148.51000977 C-96.38648229 142.83509361 -96.35660906 137.16021696 -96.33044434 131.48516846 C-96.29533363 124.66592933 -96.23834894 117.8468418 -96.18505096 111.02772522 C-96.10665278 100.68516964 -96.05595924 90.34281095 -96 80 C-110.85 80 -125.7 80 -141 80 C-141 74.72 -141 69.44 -141 64 C-118.23 64 -95.46 64 -72 64 C-71.34 62.68 -70.68 61.36 -70 60 C-68.13762719 58.0471933 -66.26274368 56.1722009 -64.3125 54.3125 C-59.3975375 49.52742239 -55.00655118 44.58659953 -51 39 C-52.93264684 40.44208441 -54.85768538 41.88697609 -56.74609375 43.38671875 C-59.48152346 45.4904095 -61.36957786 46.88792495 -64.8125 47.5 C-67 47 -67 47 -69 44 C-69.721875 44.495 -70.44375 44.99 -71.1875 45.5 C-74.17466883 47.09315671 -75.68000099 47.44864851 -79 47 C-81.1385485 44.8614515 -81.42655063 43.86724686 -82 41 C-82.85271484 41.6496875 -82.85271484 41.6496875 -83.72265625 42.3125 C-87.5818773 45.09577796 -90.14098629 46.89091889 -94.9375 47.5 C-98 47 -98 47 -100 45 C-100.14530989 40.71335825 -100.10559078 38.29699147 -97.28515625 34.98828125 C-93.1513098 31.31631709 -89.4732324 28.14548426 -83.8125 27.8125 C-81 28 -81 28 -80 29 C-79.957279 30.66611905 -79.95936168 32.33382885 -80 34 C-80 34.66 -80 35.32 -80 36 C-79.39671875 35.59007812 -78.7934375 35.18015625 -78.171875 34.7578125 C-77.37265625 34.21898437 -76.5734375 33.68015625 -75.75 33.125 C-74.96109375 32.59132813 -74.1721875 32.05765625 -73.359375 31.5078125 C-72.58078125 31.01023437 -71.8021875 30.51265625 -71 30 C-70.401875 29.608125 -69.80375 29.21625 -69.1875 28.8125 C-65.91814711 27.59816893 -62.68499118 27.79058623 -59.25 27.875 C-58.20392578 27.88853516 -58.20392578 27.88853516 -57.13671875 27.90234375 C-55.42433042 27.92580112 -53.71211996 27.96166896 -52 28 C-52.51776621 32.10447392 -54.64627444 33.95699523 -57.5625 36.75 C-58.38878906 37.54921875 -59.21507812 38.3484375 -60.06640625 39.171875 C-60.70449219 39.77515625 -61.34257812 40.3784375 -62 41 C-60.4221875 39.824375 -60.4221875 39.824375 -58.8125 38.625 C-56.63173298 37.05414568 -54.90323319 35.96313645 -52.375 35 C-48.62137531 33.41952645 -45.82090305 30.6418061 -44 27 C-42.77539062 26.74089844 -41.55078125 26.48179687 -40.2890625 26.21484375 C-35.81442302 25.186294 -33.35545507 22.95122199 -30.375 19.5625 C-26.02784525 14.92203983 -21.51973243 10.78164988 -16.5 6.875 C-15.9126709 6.41424072 -15.3253418 5.95348145 -14.72021484 5.47875977 C-9.53640003 1.49161339 -6.58802748 -0.29945579 0 0 Z M-15 11 C-17.1420512 13.25524902 -19.06008282 15.56266816 -21 18 C-16.96153796 16.57292963 -13.77865104 14.63122108 -10.3125 12.125 C-9.35988281 11.44695313 -8.40726563 10.76890625 -7.42578125 10.0703125 C-5.11759893 8.10036623 -4.07120295 6.79389776 -3 4 C-8.06011717 4 -11.32278748 7.76055088 -15 11 Z M-63 31 C-70.05011368 35.33734472 -70.05011368 35.33734472 -76 41 C-76 41.66 -76 42.32 -76 43 C-70.77073595 41.52926948 -66.58362007 37.99266851 -63 34 C-63 33.01 -63 32.02 -63 31 Z M-91.5 37.3125 C-92.1290625 37.92738281 -92.758125 38.54226563 -93.40625 39.17578125 C-95.21909203 41.01389762 -95.21909203 41.01389762 -96 44 C-90.73829306 42.58832253 -87.27828642 40.25149768 -83 37 C-87.46417549 33.49918011 -87.46417549 33.49918011 -91.5 37.3125 Z " fill="#FFF8E0" transform="translate(485,858)"/>
<path d="M0 0 C1.97057373 0.01244751 1.97057373 0.01244751 3.98095703 0.02514648 C31.08819289 0.49563032 53.04083398 11.55712975 72.1875 30.4375 C72.98027344 31.21738281 73.77304688 31.99726562 74.58984375 32.80078125 C91.35683435 50.33392608 100.03937814 73.36281982 101.1875 97.4375 C101.22875 98.27152344 101.27 99.10554688 101.3125 99.96484375 C102.00610801 128.79292677 92.04421042 153.97784115 72.453125 175.1015625 C53.82671755 194.30603088 30.42327942 204.42263731 3.72436523 204.91015625 C-8.85514742 205.03932902 -20.83554976 204.57942176 -32.8125 200.4375 C-33.46057617 200.21787598 -34.10865234 199.99825195 -34.77636719 199.77197266 C-60.9757257 190.72070283 -80.85434151 170.79120863 -93.0625 146.25 C-104.23016974 120.89721216 -105.06780325 91.47047001 -95.61474609 65.49169922 C-91.48300012 54.91211594 -85.99338464 45.24915806 -78.8125 36.4375 C-77.79929687 35.17873047 -77.79929687 35.17873047 -76.765625 33.89453125 C-57.6560486 11.40242034 -29.19555504 -0.23961713 0 0 Z M-46.8125 56.4375 C-56.94704742 68.49981459 -62.90158322 82.6672532 -63.8125 98.4375 C-63.85375 99.13101562 -63.895 99.82453125 -63.9375 100.5390625 C-64.44413021 117.95447611 -59.01767233 134.00497136 -47.52734375 147.02734375 C-37.31468742 157.79028584 -23.58835218 166.48769557 -8.43164062 167.61450195 C10.38998689 168.08280375 25.71204403 165.96670803 40.4375 153.0625 C42.03759575 151.53823817 43.62217848 149.99745163 45.1875 148.4375 C45.82558594 147.82261719 46.46367188 147.20773437 47.12109375 146.57421875 C59.50503321 133.69381846 63.41764142 115.76386136 63.1875 98.4375 C61.8876446 79.75207859 53.57737859 64.22373653 40.1875 51.4375 C14.78408535 30.12512605 -24.02077064 32.24254849 -46.8125 56.4375 Z " fill="#FFF8E0" transform="translate(1150.8125,932.5625)"/>
<path d="M0 0 C1.97057373 0.01244751 1.97057373 0.01244751 3.98095703 0.02514648 C31.08819289 0.49563032 53.04083398 11.55712975 72.1875 30.4375 C72.98027344 31.21738281 73.77304687 31.99726562 74.58984375 32.80078125 C91.35683435 50.33392608 100.03937814 73.36281982 101.1875 97.4375 C101.22875 98.27152344 101.27 99.10554688 101.3125 99.96484375 C102.00610801 128.79292677 92.04421042 153.97784115 72.453125 175.1015625 C53.82671755 194.30603088 30.42327942 204.42263731 3.72436523 204.91015625 C-8.85514742 205.03932902 -20.83554976 204.57942176 -32.8125 200.4375 C-33.46057617 200.21787598 -34.10865234 199.99825195 -34.77636719 199.77197266 C-60.9757257 190.72070283 -80.85434151 170.79120863 -93.0625 146.25 C-104.23016974 120.89721216 -105.06780325 91.47047001 -95.61474609 65.49169922 C-91.48300012 54.91211594 -85.99338464 45.24915806 -78.8125 36.4375 C-77.79929687 35.17873047 -77.79929687 35.17873047 -76.765625 33.89453125 C-57.6560486 11.40242034 -29.19555504 -0.23961713 0 0 Z M-46.8125 56.4375 C-56.94704742 68.49981459 -62.90158322 82.6672532 -63.8125 98.4375 C-63.85375 99.13101562 -63.895 99.82453125 -63.9375 100.5390625 C-64.44413021 117.95447611 -59.01767233 134.00497136 -47.52734375 147.02734375 C-37.31468742 157.79028584 -23.58835218 166.48769557 -8.43164062 167.61450195 C10.38998689 168.08280375 25.71204403 165.96670803 40.4375 153.0625 C42.03759575 151.53823817 43.62217848 149.99745163 45.1875 148.4375 C45.82558594 147.82261719 46.46367188 147.20773437 47.12109375 146.57421875 C59.50503321 133.69381846 63.41764142 115.76386136 63.1875 98.4375 C61.8876446 79.75207859 53.57737859 64.22373653 40.1875 51.4375 C14.78408535 30.12512605 -24.02077064 32.24254849 -46.8125 56.4375 Z " fill="#FFF8E0" transform="translate(572.8125,932.5625)"/>
<path d="M0 0 C12.54 0 25.08 0 38 0 C38.029729 5.83473999 38.029729 5.83473999 38.06005859 11.78735352 C38.12714556 24.67951141 38.2046857 37.57158899 38.28752708 50.46365452 C38.33747154 58.27547344 38.38391515 66.08728281 38.421875 73.89916992 C38.45500207 80.71462016 38.49494449 87.52999209 38.54279006 94.34535545 C38.56785116 97.94802731 38.5896903 101.55064861 38.60334396 105.15338326 C37.02376716 132.10469024 37.02376716 132.10469024 47.44921875 155.515625 C53.89727667 161.40518971 61.5260854 161.68681959 69.87109375 161.44140625 C76.75753189 160.93277607 82.76322673 158.0518148 87.77734375 153.32421875 C98.27050112 140.09371598 94.2075589 113.89296837 94.30332303 98.23795438 C94.32546329 94.77465522 94.35271235 91.311396 94.37937927 87.84812927 C94.42893281 81.31440489 94.4740072 74.78065789 94.51740164 68.24689001 C94.56709699 60.79804804 94.62189339 53.34924618 94.67708123 45.9004432 C94.79032668 30.60033139 94.89661365 15.30018209 95 0 C107.54 0 120.08 0 133 0 C133.04546933 15.97932336 133.0821743 31.95859391 133.10362434 47.93796349 C133.11385681 55.36052166 133.12775959 62.78303625 133.15087891 70.20556641 C133.1710629 76.68889355 133.18377442 83.17218908 133.18817699 89.65554678 C133.19074297 93.07584854 133.19659701 96.49606 133.21146011 99.91633224 C133.26320288 113.34452699 133.14374865 126.72928136 132.23779297 140.13134766 C132.17684008 141.15515722 132.11588718 142.17896679 132.05308723 143.23380089 C130.68971188 160.67133184 122.6308804 174.41355698 109.7734375 186.0078125 C96.92025634 196.4992784 82.79103998 199.54368981 66.4375 199.375 C65.30892578 199.38660156 64.18035156 199.39820313 63.01757812 199.41015625 C45.24241616 199.34882734 30.13016939 193.19149634 17.5625 180.703125 C14.3511946 177.31558942 11.46902355 173.96364985 9 170 C8.62488281 169.401875 8.24976563 168.80375 7.86328125 168.1875 C-3.18193858 148.47855755 -0.29624709 119.87173486 -0.20278788 98.22487378 C-0.19003195 94.75498123 -0.18909093 91.28508267 -0.18673706 87.81517029 C-0.18059357 81.28519873 -0.16428263 74.75529651 -0.14403808 68.22535509 C-0.12145285 60.77394554 -0.11062961 53.32253215 -0.10064721 45.87109673 C-0.07990737 30.5806845 -0.04332399 15.29036746 0 0 Z " fill="#FFF8E0" transform="translate(1295,938)"/>
<path d="M0 0 C85.80316344 0 85.80316344 0 102 16 C112.70350125 28.39682859 116.57339166 43.52992245 116.24609375 59.64453125 C115.10545067 75.19710914 109.59877618 88.41221065 98 99 C80.07170552 113.36508102 59.38364662 112 37 112 C37 139.39 37 166.78 37 195 C24.79 195 12.58 195 0 195 C0 130.65 0 66.3 0 0 Z M37 37 C37 49.87 37 62.74 37 76 C56.47408347 76.9663563 56.47408347 76.9663563 73.8125 69.6875 C77.8525011 64.72407008 79.59455357 60.68107909 79.34765625 54.3046875 C78.52002898 48.81816964 76.03479848 45.08183477 72.25 41.125 C64.87947767 36.30581232 57.00987261 36.74370349 48.5 36.875 C42.8075 36.936875 42.8075 36.936875 37 37 Z " fill="#FFF8E0" transform="translate(897,938)"/>
<path d="M0 0 C13.53 0 27.06 0 41 0 C45.77953623 9.02801288 50.52973886 18.06896767 55.203125 27.15234375 C55.75493187 28.22484627 55.75493187 28.22484627 56.31788635 29.3190155 C58.16264725 32.90611321 60.00517915 36.49434173 61.84545898 40.08374023 C62.54650492 41.44916245 63.24775516 42.8144798 63.94921875 44.1796875 C64.45714211 45.16924187 64.45714211 45.16924187 64.97532654 46.17878723 C66.64256888 49.41438746 68.3336513 52.63360248 70.07666016 55.82910156 C70.56789116 56.72980881 70.56789116 56.72980881 71.06904602 57.64871216 C71.96184519 59.27756793 72.86119265 60.90282962 73.76098633 62.52783203 C75 65 75 65 75 67 C75.66 67 76.32 67 77 67 C77.39832031 65.95996826 77.39832031 65.95996826 77.8046875 64.89892578 C79.11269553 61.72668573 80.59166365 58.68698035 82.125 55.6171875 C82.4281311 55.0095607 82.73126221 54.4019339 83.0435791 53.77589417 C84.02665656 51.80772012 85.01304906 49.84123422 86 47.875 C86.33636475 47.20348907 86.67272949 46.53197815 87.01928711 45.84011841 C94.74939859 30.4127866 102.81847527 15.19426022 111 0 C124.53 0 138.06 0 152 0 C149.36 5.28 146.72 10.56 144 16 C142.99195313 18.02769531 141.98390625 20.05539062 140.9453125 22.14453125 C140.47480469 23.09005859 140.00429688 24.03558594 139.51953125 25.00976562 C138.59606745 26.86574678 137.67417021 28.72250829 136.75390625 30.58007812 C133.25898195 37.59373411 129.62622702 44.5288622 125.96591187 51.45698547 C120.69920236 61.44009183 115.57812662 71.49738876 110.44824219 81.55126953 C109.16987601 84.05565706 107.88969394 86.55911036 106.609375 89.0625 C106.23423767 89.79919922 105.85910034 90.53589844 105.47259521 91.29492188 C105.10491028 92.01357422 104.73722534 92.73222656 104.35839844 93.47265625 C103.98961578 94.21130417 103.62083313 94.94995209 103.24087524 95.71098328 C102 98 102 98 100.40634155 100.30427551 C94.49740462 109.33011498 95.13992089 118.48146148 95.1953125 128.88671875 C95.18404598 130.79915531 95.17015824 132.71157806 95.15377808 134.62397766 C95.11791619 139.62337107 95.11734416 144.62215075 95.12445068 149.62164307 C95.12552871 155.63834184 95.08219389 161.6548693 95.04641724 167.67144012 C94.99716229 176.78127644 95.00386283 185.88952268 95 195 C82.46 195 69.92 195 57 195 C57.17144531 189.33972656 57.34289062 183.67945313 57.51953125 177.84765625 C59.67344502 122.45618363 59.67344502 122.45618363 37.74194336 72.97216797 C33.15724777 66.53977562 29.75313696 59.40674454 26.19961548 52.37225342 C25.02543727 50.0503025 23.83722867 47.73617068 22.64331055 45.42431641 C19.97317453 40.25260107 17.32046841 35.07202688 14.66918945 29.890625 C13.53709277 27.67910978 12.4036798 25.46827609 11.26953125 23.2578125 C10.90908722 22.55448792 10.54864319 21.85116333 10.17727661 21.12652588 C7.28793328 15.50952217 4.2831759 9.96172902 1.22143555 4.43701172 C0 2 0 2 0 0 Z " fill="#FFF8E0" transform="translate(705,938)"/>
<path d="M0 0 C5.94 0 11.88 0 18 0 C18.33 12.87 18.66 25.74 19 39 C21.31 36.36 23.62 33.72 26 31 C34.68924585 23.04082259 43.34566074 18.59239357 55.17578125 18.71875 C60.70574643 19.26945193 64.49317516 21.49317516 68.375 25.375 C71.78178474 30.87826766 72.28683609 36.04078005 72.22705078 42.39208984 C72.22734283 43.21226593 72.22763489 44.03244202 72.22793579 44.87747192 C72.22654919 47.57207034 72.21101971 50.26638774 72.1953125 52.9609375 C72.19157999 54.83566131 72.18873414 56.71038707 72.18673706 58.58511353 C72.17911939 63.50719639 72.15948695 68.42916027 72.1373291 73.35119629 C72.11683044 78.37864574 72.10772675 83.40611451 72.09765625 88.43359375 C72.07623926 98.28912305 72.04107234 108.14453299 72 118 C66.06 118 60.12 118 54 118 C53.98541748 115.67380615 53.97083496 113.3476123 53.95581055 110.95092773 C53.90539597 103.25144373 53.83878878 95.5521605 53.76428509 87.8528738 C53.71962317 83.18635738 53.68035787 78.51992742 53.65356445 73.85327148 C53.62748974 69.34677993 53.58705795 64.84062184 53.53681374 60.33433723 C53.52017317 58.61806459 53.50864142 56.9017343 53.50238609 55.18539238 C53.49271423 52.77485353 53.46461931 50.3651624 53.43237305 47.95483398 C53.43380814 47.25064331 53.43524323 46.54645264 53.4367218 45.82092285 C53.32873984 40.08577956 52.14950478 35.14950478 48 31 C41.98686978 30.27842437 37.85070673 31.59843106 33 35 C23.44275832 43.18557942 23.44275832 43.18557942 18.48101807 54.2651062 C18.47213562 55.44203033 18.46325317 56.61895447 18.45410156 57.83154297 C18.44376389 58.48590836 18.43342621 59.14027374 18.42277527 59.81446838 C18.3934968 61.95729707 18.39185142 64.0991751 18.390625 66.2421875 C18.37563306 67.73578679 18.35890378 69.22936957 18.34051514 70.72293091 C18.2969424 74.63884266 18.27686519 78.55453081 18.26177979 82.47064209 C18.24217207 86.47274949 18.2002063 90.4746167 18.16015625 94.4765625 C18.08496323 102.31767473 18.0366745 110.15861291 18 118 C12.06 118 6.12 118 0 118 C0 79.06 0 40.12 0 0 Z " fill="#FEF7DF" transform="translate(928,791)"/>
<path d="M0 0 C5.87566469 5.06971069 7.99742899 11.01111208 9.0546875 18.59765625 C9.52603096 29.16003464 4.68190985 37.86612213 -2.234375 45.5234375 C-15.47176955 57.16094827 -32.07910901 60.61226037 -49.234375 61.5234375 C-45.9740623 70.70984799 -42.28990406 79.75583299 -33.37109375 84.6484375 C-28.2244285 86.75602985 -23.42769311 87.1755304 -18.109375 85.4609375 C-7.76592066 80.77980895 -4.01269622 72.27865952 0.765625 62.5234375 C2.415625 62.5234375 4.065625 62.5234375 5.765625 62.5234375 C6.47860609 65.18523358 7.13756098 67.84155828 7.765625 70.5234375 C7.95253906 71.20535156 8.13945313 71.88726563 8.33203125 72.58984375 C8.93117164 75.34804861 9.11816775 77.70960747 7.98046875 80.3359375 C2.68037137 87.59723299 -7.93532163 92.04010589 -16.484375 93.9609375 C-29.89865275 95.92719971 -42.20337099 93.68003437 -53.234375 85.5234375 C-64.53205966 76.72723656 -68.93811941 64.0563974 -70.8046875 50.3671875 C-72.32090339 36.80394721 -70.57559734 22.66417573 -62.421875 11.3359375 C-61.37857889 10.04929192 -60.31605957 8.77798208 -59.234375 7.5234375 C-58.48220703 6.61271484 -58.48220703 6.61271484 -57.71484375 5.68359375 C-43.93112768 -9.64282533 -16.49668096 -12.52525777 0 0 Z M-43.703125 10.2265625 C-52.27792675 23.08876512 -52.8819869 36.5681209 -52.234375 51.5234375 C-51.904375 52.5134375 -51.574375 53.5034375 -51.234375 54.5234375 C-39.08201666 55.40016075 -27.63210673 52.50783848 -18.234375 44.5234375 C-11.50010055 38.06537353 -7.92059035 31.53710381 -7.234375 22.14453125 C-7.234375 15.04556359 -8.63354886 9.07149256 -13.234375 3.5234375 C-17.11769895 0.11081948 -20.72168257 -0.90809177 -25.921875 -0.8125 C-33.25441707 0.25270037 -39.17268951 4.54214816 -43.703125 10.2265625 Z " fill="#FEF6DE" transform="translate(1081.234375,816.4765625)"/>
<path d="M0 0 C0.82862045 0.00359528 1.65724091 0.00719055 2.51097107 0.01089478 C3.81329178 0.01067574 3.81329178 0.01067574 5.141922 0.01045227 C8.02594967 0.01115171 10.9099136 0.01894554 13.79393005 0.02676392 C15.78790247 0.02862799 17.78187535 0.03005194 19.77584839 0.03105164 C25.03498082 0.03487769 30.29408583 0.04470871 35.5532074 0.05575562 C40.91534555 0.06596786 46.27748811 0.07054885 51.63963318 0.07559204 C62.16894213 0.0863309 72.69823069 0.10340837 83.2275238 0.12442017 C83.73107247 2.56123604 84.23049136 4.99877455 84.7275238 7.43692017 C84.87060974 8.12721313 85.01369568 8.8175061 85.16111755 9.52871704 C85.75377425 12.44966789 86.2275238 15.13550139 86.2275238 18.12442017 C83.4775238 18.37442017 83.4775238 18.37442017 80.2275238 18.12442017 C78.89419047 16.79108683 77.56085714 15.4577535 76.2275238 14.12442017 C67.52801165 8.97875128 58.33980427 9.24800689 48.2275238 8.12442017 C48.2275238 44.42442017 48.2275238 80.72442017 48.2275238 118.12442017 C41.9575238 118.12442017 35.6875238 118.12442017 29.2275238 118.12442017 C29.2275238 81.82442017 29.2275238 45.52442017 29.2275238 8.12442017 C12.37381381 8.76406749 12.37381381 8.76406749 -2.0224762 16.37442017 C-3.7724762 18.12442017 -3.7724762 18.12442017 -6.8818512 18.23379517 C-7.83575745 18.19770142 -8.7896637 18.16160767 -9.7724762 18.12442017 C-9.2981085 15.31103188 -8.81823001 12.49878303 -8.3349762 9.68692017 C-8.20026917 8.88447876 -8.06556213 8.08203735 -7.92677307 7.25527954 C-6.67375579 0.01222841 -6.67375579 0.01222841 0 0 Z " fill="#FEF5DE" transform="translate(833.7724761962891,790.8755798339844)"/>
</svg>
