<?xml version="1.0" encoding="UTF-8"?>
<svg version="1.1" xmlns="http://www.w3.org/2000/svg" width="7813" height="2541">
<path d="M0 0 C356.87819882 0 356.87819882 0 424.32470703 64.40380859 C425.67551942 65.69084027 427.03724688 66.96641051 428.40234375 68.23828125 C465.97588088 104.12139339 481.02138511 157.77405232 485 208 C485.08677002 209.07918701 485.08677002 209.07918701 485.17529297 210.18017578 C490.03371745 274.175862 479.35428762 339.41914669 436.796875 389.59765625 C434.57883698 392.11489005 432.30967584 394.56659153 430 397 C429.54367187 397.48355957 429.08734375 397.96711914 428.6171875 398.46533203 C419.95562116 407.58718883 411.65162908 416.28124567 399 419 C399.79921875 419.92039062 400.5984375 420.84078125 401.421875 421.7890625 C402.53132758 423.06764102 403.64069599 424.34629258 404.75 425.625 C405.33765137 426.30216064 405.92530273 426.97932129 406.53076172 427.67700195 C409.41563445 431.00477885 412.29394519 434.33751424 415.1484375 437.69140625 C420.39630266 443.85732756 425.7055249 449.9402719 431.20751953 455.88134766 C433.69285762 458.56544051 436.12460794 461.28086512 438.5 464.0625 C443.04848926 469.31413735 448.05791517 474.12351806 453 479 C455.813303 481.7995123 458.6064185 484.61711046 461.3828125 487.453125 C468.59500223 494.79135486 475.88677322 501.65246169 484 508 C485.09355458 508.90334195 486.18456089 509.80977474 487.2734375 510.71875 C507.52264039 527.50803647 530.30302681 541.80308194 555 551.0625 C555.66725098 551.31314209 556.33450195 551.56378418 557.02197266 551.82202148 C571.09818549 556.74145409 584.5369701 558.69772194 599.375 558.5 C600.19638458 558.49446106 601.01776917 558.48892212 601.86404419 558.48321533 C616.83864473 558.36565968 631.31351034 557.08038365 646 554 C646.97888184 553.79632812 647.95776367 553.59265625 648.96630859 553.3828125 C679.46061664 546.77511759 707.66661609 532.99753531 733 515 C733.5863623 514.58476074 734.17272461 514.16952148 734.77685547 513.74169922 C768.05995289 489.97366354 792.66297942 453.47699178 799.62719727 412.90625 C800.3014927 407.64966009 800.338927 402.41844357 800.3125 397.125 C800.30512817 395.36095825 800.30512817 395.36095825 800.29760742 393.5612793 C799.91465096 364.56852955 792.53735975 338.58371549 773.625 316.1875 C761.81751459 306.34792882 746.62416182 300.25914155 732 296 C731.18660156 295.7525 730.37320313 295.505 729.53515625 295.25 C711.00301077 290.5599667 693.36515416 294.80626385 677.0703125 304.0546875 C660.83988134 314.33809045 653.42542922 326.32407846 649.1484375 344.6484375 C646.72587787 358.76388496 647.11095866 376.07810367 655.1875 388.3125 C664.38782143 400.23672612 676.42227965 406.22949405 691.01171875 409.0390625 C691.86777206 409.20674637 692.72382538 409.37443024 693.6058197 409.54719543 C704.34694537 411.55882439 715.19614293 412.60822105 726.0625 413.6875 C729.178742 414.00396885 732.29466825 414.32317211 735.41026306 414.64595032 C737.32631293 414.84377111 739.24277682 415.03763358 741.15968323 415.22697449 C742.01585739 415.31409195 742.87203156 415.40120941 743.75415039 415.4909668 C744.50434952 415.56550583 745.25454865 415.64004486 746.02748108 415.71684265 C748 416 748 416 751 417 C752.203125 419.984375 752.203125 419.984375 753.25 423.75 C753.60578125 424.98234375 753.9615625 426.2146875 754.328125 427.484375 C754.99793511 430.98919534 755.00883853 432.64653997 754 436 C752.50048828 437.92529297 752.50048828 437.92529297 750.5703125 439.7421875 C749.86277832 440.4127417 749.15524414 441.0832959 748.42626953 441.77416992 C747.66685059 442.46744385 746.90743164 443.16071777 746.125 443.875 C745.35140137 444.58954346 744.57780273 445.30408691 743.78076172 446.0402832 C738.19385064 451.11320777 732.72115553 455.50416678 726 459 C725.14664063 459.45375 724.29328125 459.9075 723.4140625 460.375 C704.56213933 469.662751 683.61030159 470.71786234 663 470 C662.08347656 469.9695459 661.16695312 469.9390918 660.22265625 469.90771484 C637.11553785 468.95572101 616.67021357 461.11820832 599 446 C598.20207031 445.33484375 597.40414062 444.6696875 596.58203125 443.984375 C571.2097574 422.11308157 559.08708737 388.99679633 556.2109375 356.18798828 C554.94215899 337.01239828 555.59412753 317.92340968 559 299 C559.23348145 297.62690674 559.23348145 297.62690674 559.47167969 296.22607422 C564.22468803 269.09787592 577.60553444 246.28686797 597 227 C597.80953125 226.19046875 598.6190625 225.3809375 599.453125 224.546875 C632.32299562 193.41845447 679.82608307 185.67493836 723.42773438 186.84765625 C776.30722821 189.10276862 825.61581278 206.38244901 864 243 C864.85207031 243.79921875 865.70414063 244.5984375 866.58203125 245.421875 C905.1509237 282.59378395 932.89974879 344.06555317 934.16113281 397.60986328 C934.18057828 399.179955 934.19438774 400.75012468 934.203125 402.3203125 C934.21018463 403.17341003 934.21724426 404.02650757 934.22451782 404.90545654 C934.34092393 423.1156718 934.36488718 441.03869553 931 459 C930.80664062 460.06686035 930.61328125 461.1337207 930.4140625 462.23291016 C922.87527199 502.87606549 907.48372469 540.282883 889 577 C888.53819336 577.92474121 888.07638672 578.84948242 887.60058594 579.80224609 C873.63755317 607.64324034 854.8816042 633.12877623 835 657 C834.58137695 657.50499023 834.16275391 658.00998047 833.73144531 658.53027344 C822.88907364 671.59095095 811.30880728 683.87806634 799.30883789 695.87646484 C797.43020538 697.75730318 795.55976894 699.64605188 793.68945312 701.53515625 C787.47678689 707.77599784 781.22882488 713.7147561 774.30151367 719.16601562 C772.06921082 720.94484866 769.96756081 722.80996841 767.875 724.75 C761.61929766 730.36896121 754.85262383 735.3537006 748.1328125 740.39794922 C746.208476 741.84340436 744.29140588 743.29797011 742.375 744.75390625 C690.00331079 784.19567079 624.20626073 818.30209785 559 829 C558.1853125 829.14663086 557.370625 829.29326172 556.53125 829.44433594 C526.69548128 834.66784213 492.76208852 834.68625269 463 829 C462.02740234 828.82307617 461.05480469 828.64615234 460.05273438 828.46386719 C408.42918116 818.9508063 361.04735749 796.98677817 321 763 C319.95632631 762.1294919 318.91202447 761.25973651 317.8671875 760.390625 C310.90291865 754.5760198 304.15313925 748.56567952 297.50585938 742.39257812 C295.95356603 740.95705912 294.39232922 739.531901 292.828125 738.109375 C285.52002772 731.46144401 278.44710709 724.77498391 272 717.27734375 C270.08969132 715.10212898 268.1260563 712.98483236 266.1472168 710.87207031 C260.14128552 704.43691907 254.66452048 697.68998088 249.31445312 690.70410156 C248.08518595 689.11043796 246.83247031 687.53493855 245.578125 685.9609375 C233.75007992 671.00193932 223.4892696 654.86973786 214.23193359 638.21289062 C213.44021937 636.79075473 212.6416183 635.37241914 211.83447266 633.95898438 C200.98862967 614.96349324 192.7413994 594.0975064 187 573 C186.68409912 571.86626953 186.36819824 570.73253906 186.04272461 569.56445312 C183.21514046 559.09259711 181.69292292 548.63506431 180.4375 537.875 C180.22407623 536.1208472 180.00995508 534.36677912 179.79516602 532.61279297 C178.80653154 524.44407579 177.8993883 516.27294418 177.15625 508.078125 C177.09301041 507.3926358 177.02977081 506.70714661 176.96461487 506.00088501 C176.67502275 502.84022667 176.40376199 499.67999541 176.16381836 496.51513672 C175.53879784 489.29325662 174.70221824 483.31325637 171 477 C167.37 475.68 163.74 474.36 160 473 C159.67 585.53 159.34 698.06 159 814 C106.53 814 54.06 814 0 814 C0 545.38 0 276.76 0 0 Z M159 155 C159 208.46 159 261.92 159 317 C174.32964293 317.84695875 174.32964293 317.84695875 189.65234375 318.203125 C191.13898277 318.21167511 191.13898277 318.21167511 192.65565491 318.22039795 C194.71793601 318.2296956 196.78023095 318.23631955 198.8425293 318.24023438 C201.93109691 318.2499798 205.01900775 318.28116791 208.10742188 318.3125 C236.76655032 318.46570169 261.29093781 311.07728597 287.94775391 301.13476562 C289.94948675 300.39056036 291.95430189 299.65458267 293.96240234 298.92773438 C296.71243564 297.93113469 299.45074566 296.9074191 302.1875 295.875 C302.99445313 295.58705566 303.80140625 295.29911133 304.6328125 295.00244141 C315.72649069 290.70482633 320.90348993 279.6994587 325.671875 269.3828125 C334.43226531 249.0281016 336.09749257 228.66873793 328 208 C327.61585937 206.93265625 327.23171875 205.8653125 326.8359375 204.765625 C320.2491557 187.46972178 306.94908928 171.25270226 290.35546875 162.625 C250.02946179 146.76715395 199.14012426 154.3918163 159 155 Z " fill="#FFF8E0" transform="translate(6175,1161)"/>
<path d="M0 0 C0.79183717 2.89842286 1.53716877 5.79785217 2.2265625 8.72265625 C2.68417889 10.66174791 3.18374738 12.5930029 3.7734375 14.49609375 C4.98095063 19.68490018 3.87494313 22.84747378 1.09643555 27.38305664 C-4.41028455 35.65831979 -10.96561653 43.00456121 -18 50 C-19.16402344 51.16402344 -19.16402344 51.16402344 -20.3515625 52.3515625 C-41.96324576 72.77497451 -69.57934457 86.05922661 -95.93286133 99.21533203 C-121.60714268 112.10367694 -147.29454523 129.98715471 -165 153 C-143.36900148 151.05218497 -128.63489603 144.5441966 -112.05859375 130.3359375 C-96.54605345 117.80528939 -78.28848834 115.40953607 -59 116 C-58.29474741 117.70108136 -57.61154944 119.41131497 -56.9375 121.125 C-56.55464844 122.07632813 -56.17179687 123.02765625 -55.77734375 124.0078125 C-54.8671931 127.51120646 -55.00325196 129.52984015 -56 133 C-58.28896361 136.64179248 -61.14915207 139.78532008 -64 143 C-64.63421875 143.71800781 -65.2684375 144.43601562 -65.921875 145.17578125 C-76.02344503 155.92435267 -89.81414055 162.00290403 -103.62890625 166.5625 C-104.77141846 166.94233032 -104.77141846 166.94233032 -105.93701172 167.32983398 C-107.39472672 167.80440577 -108.85850453 168.26089393 -110.32861328 168.69555664 C-116.27551723 170.60885228 -119.2198742 173.55821898 -122.13354492 179.19165039 C-122.4194751 179.78840576 -122.70540527 180.38516113 -123 181 C-122.03288086 180.51644043 -121.06576172 180.03288086 -120.06933594 179.53466797 C-102.140625 170.5703125 -102.140625 170.5703125 -99.86483765 169.43301392 C-98.36357113 168.68198456 -96.86293734 167.92968905 -95.36294556 167.17611694 C-92.03845362 165.50757712 -88.71079453 163.85274781 -85.34912109 162.26025391 C-84.28773926 161.75155762 -83.22635742 161.24286133 -82.1328125 160.71875 C-81.22418457 160.29271484 -80.31555664 159.86667969 -79.37939453 159.42773438 C-76.70426505 157.82254689 -75.07567316 156.04271251 -73.125 153.625 C-70.49326173 150.67969291 -69.39074274 150.05509388 -65.3984375 149.4921875 C-61.89716373 149.49920408 -58.48236854 149.64785037 -55 150 C-55.40754667 159.94413869 -57.80463226 166.23636292 -64.93066406 173.20043945 C-68.50296242 176.30702407 -72.47472756 178.63698308 -76.5625 181 C-77.44365479 181.51618896 -78.32480957 182.03237793 -79.23266602 182.56420898 C-81.81160262 184.06160302 -84.40166693 185.53656509 -87 187 C-87.68674805 187.38816895 -88.37349609 187.77633789 -89.08105469 188.17626953 C-102.95921647 195.90117881 -119.0820159 199.90262814 -135 197 C-139.95669849 194.2926171 -141.30274418 190.63703541 -143.4375 185.625 C-144.36961588 179.61803102 -144.55652974 173.89618124 -143 168 C-175.5956232 172.11962422 -195.82324211 184.41395191 -216.62890625 209.37792969 C-218.59174165 211.70005904 -220.63600152 213.94367354 -222.6875 216.1875 C-225.69502154 219.49146183 -228.53016611 222.87963073 -231.3125 226.375 C-235.16452444 231.14449435 -239.32164316 235.43961626 -243.69189453 239.72338867 C-247.06291075 243.03333967 -250.20707922 246.44690626 -253.265625 250.04296875 C-256.65887367 253.87183718 -260.34670295 257.42126003 -264 261 C-255.20930173 262.21180324 -246.40375556 262.29867213 -237.54663086 262.48071289 C-235.78177131 262.51992549 -234.01691957 262.55949078 -232.2520752 262.59938049 C-227.48217239 262.7061989 -222.71217602 262.80810694 -217.94214702 262.90911031 C-212.9492882 263.01567517 -207.95653062 263.12678817 -202.96376038 263.2374115 C-193.51868968 263.44599546 -184.07353545 263.65050977 -174.62834412 263.85354942 C-163.87131754 264.08498827 -153.11439241 264.32098313 -142.35747325 264.55735409 C-120.23842345 265.04329307 -98.119243 265.52293064 -76 266 C-76 288.44 -76 310.88 -76 334 C-130.78 334 -185.56 334 -242 334 C-241.67 358.09 -241.34 382.18 -241 407 C-240.83761483 422.12392953 -240.67888962 437.24754145 -240.54576242 452.37170231 C-240.49864134 457.67920444 -240.44947057 462.98668776 -240.40061951 468.29417419 C-240.30644347 478.5586314 -240.2140104 488.82310349 -240.12229555 499.08758295 C-240.04762738 507.43987877 -239.97224279 515.79216787 -239.89639473 524.14445305 C-239.8799458 525.95582271 -239.8799458 525.95582271 -239.86316456 527.80378569 C-239.84085991 530.25960432 -239.81855344 532.71542292 -239.79624517 535.17124151 C-239.5895829 557.92985357 -239.38492618 580.68848329 -239.18103994 603.44712036 C-239.00688182 622.88248531 -238.83106902 642.31783471 -238.65405273 661.75317383 C-238.44671945 684.51728452 -238.24032563 707.2814034 -238.03546149 730.04553646 C-238.01357165 732.47768876 -237.991681 734.90984105 -237.96978951 737.34199333 C-237.95902805 738.53769318 -237.9482666 739.73339303 -237.93717904 740.96532621 C-237.86203995 749.30732366 -237.78625718 757.64931511 -237.71021843 765.9913044 C-237.61760495 776.15401519 -237.52605763 786.31673497 -237.43580764 796.47946704 C-237.38993512 801.64229988 -237.34363505 806.8051278 -237.2960434 811.9679451 C-236.96988026 847.4243469 -236.96988026 847.4243469 -236.93905366 864.89794176 C-236.93525266 866.85622579 -236.92850679 868.81450345 -236.92161554 870.77277905 C-236.90322463 930.35889799 -259.75139862 982.97509072 -298.66992188 1027.45947266 C-300.00829131 1029.00960319 -301.31174261 1030.5836389 -302.609375 1032.16796875 C-308.87921667 1039.76340835 -315.61915727 1046.82875341 -322.5625 1053.8125 C-323.42472168 1054.68390625 -324.28694336 1055.5553125 -325.17529297 1056.453125 C-331.1422138 1062.39179871 -337.4293218 1067.74491186 -344 1073 C-345.0272822 1073.86370692 -346.05066776 1074.73212152 -347.06640625 1075.609375 C-361.33720362 1087.8478679 -376.92521288 1098.29555589 -393 1108 C-394.21115479 1108.73234863 -394.21115479 1108.73234863 -395.44677734 1109.47949219 C-447.18039805 1140.49308737 -511.02774497 1163.92259542 -571.9296875 1164.203125 C-573.46009674 1164.21357849 -573.46009674 1164.21357849 -575.02142334 1164.22424316 C-578.30599118 1164.24157598 -581.59038829 1164.24796578 -584.875 1164.25 C-586.5575589 1164.25151062 -586.5575589 1164.25151062 -588.27410889 1164.25305176 C-605.39045859 1164.24265022 -622.05569532 1163.58754005 -639 1161 C-640.96086617 1160.72995032 -642.92180357 1160.46041729 -644.8828125 1160.19140625 C-680.6423103 1155.00555013 -715.0982804 1143.71237503 -748 1129 C-748.86028809 1128.61875977 -749.72057617 1128.23751953 -750.60693359 1127.84472656 C-788.13698658 1111.09950749 -823.16757072 1087.06061005 -854 1060 C-854.77214844 1059.33871094 -855.54429688 1058.67742187 -856.33984375 1057.99609375 C-868.33754372 1047.51605156 -880.19342059 1036.15983534 -889.984375 1023.57421875 C-891.87462223 1021.16012393 -893.85137801 1018.8441913 -895.86547852 1016.53320312 C-903.16894715 1008.11573336 -909.61518155 999.12444059 -916 990 C-916.42071777 989.40590332 -916.84143555 988.81180664 -917.27490234 988.19970703 C-962.05518948 924.72527924 -983.02261086 849.87052809 -970.1875 772.5 C-965.15319666 743.90057402 -955.80963532 717.04417126 -943 691 C-942.55398438 690.08879395 -942.10796875 689.17758789 -941.6484375 688.23876953 C-927.46292194 659.53072873 -908.52235623 633.90759436 -887.046875 610.26171875 C-885.1749031 608.19326125 -883.3313661 606.10439086 -881.5 604 C-880.33352407 602.6664998 -879.16684508 601.3331772 -878 600 C-877.28972656 599.18402344 -876.57945313 598.36804687 -875.84765625 597.52734375 C-871.86527153 593.0139744 -867.86106791 588.75111443 -863.24609375 584.8828125 C-861.5868198 583.49190807 -859.95828445 582.06414361 -858.34765625 580.6171875 C-824.43802898 550.40587117 -777.55419078 528.78978733 -731.54638672 531.12451172 C-712.06562859 532.26401411 -692.72101128 535.52473374 -675 544 C-674.27248535 544.34659668 -673.5449707 544.69319336 -672.79541016 545.05029297 C-632.68994691 564.48749911 -603.22850593 597.89810649 -588.23510742 639.98120117 C-581.96823743 658.45300597 -577.90657024 677.55132972 -577.796875 697.109375 C-577.78986069 697.95030197 -577.78284637 698.79122894 -577.77561951 699.65763855 C-577.75821783 702.35514747 -577.75176791 705.05243702 -577.75 707.75 C-577.74932526 708.6704007 -577.74865051 709.59080139 -577.74795532 710.53909302 C-577.76353699 723.89549251 -578.03524188 736.91914564 -581 750 C-581.16097168 750.75071777 -581.32194336 751.50143555 -581.48779297 752.27490234 C-586.0917488 773.10105799 -596.03965173 792.75094325 -611 808 C-611.59039063 808.61488281 -612.18078125 809.22976563 -612.7890625 809.86328125 C-629.57691613 825.9485595 -652.58877712 831.02502617 -675 832 C-676.04583252 832.04979004 -676.04583252 832.04979004 -677.11279297 832.10058594 C-709.53037035 833.43995027 -746.65969303 824.79679301 -771.875 803.4375 C-776.20806905 799.18098694 -779.2464182 794.38622926 -782 789 C-782.3609375 788.36707031 -782.721875 787.73414063 -783.09375 787.08203125 C-788.67053809 774.26984136 -785.80860066 754.57634018 -781 742 C-773.44584043 723.76042301 -761.05896569 710.64318889 -743.21875 702.32421875 C-736.12369184 699.40525671 -730.65574719 699.44826834 -723.46875 702.4296875 C-718.72943521 705.44425165 -717.70701524 709.84664485 -716 715 C-715.03004543 717.75182848 -714.04557515 720.49805112 -713.05541992 723.24267578 C-712.365727 725.16705144 -711.6894912 727.09631766 -711.02856445 729.03076172 C-708.17295922 737.19561326 -704.96546299 744.02838265 -698 749.4375 C-696.7625 750.42556641 -696.7625 750.42556641 -695.5 751.43359375 C-686.38842285 757.14256631 -668.22471026 755.30077693 -658.125 753.10546875 C-655.60286093 752.45593399 -653.17413554 751.68809913 -650.6953125 750.875 C-648 750 -648 750 -645 750 C-644.7215625 749.43667969 -644.443125 748.87335937 -644.15625 748.29296875 C-643.38530966 746.76411071 -642.593487 745.24560569 -641.78125 743.73828125 C-638.86128967 738.20994173 -636.71374123 733.22901437 -636 727 C-635.80470703 725.3603125 -635.80470703 725.3603125 -635.60546875 723.6875 C-634.1553375 699.69888814 -648.83373885 672.84890979 -664 655 C-664.76699219 654.071875 -665.53398438 653.14375 -666.32421875 652.1875 C-672.50495798 645.02142552 -679.3342988 639.45551728 -687 634 C-687.89460938 633.33871094 -688.78921875 632.67742188 -689.7109375 631.99609375 C-705.88184548 620.75415622 -727.24433277 618.68138469 -746.3203125 621.75390625 C-747.987413 622.07033109 -749.65174737 622.40179105 -751.3125 622.75 C-752.06942139 622.90686279 -752.82634277 623.06372559 -753.60620117 623.2253418 C-762.40549085 625.26633846 -768.83589176 629.24864959 -775.5 635.25 C-776.15726074 635.83426758 -776.81452148 636.41853516 -777.49169922 637.02050781 C-779.33702429 638.67045629 -781.16944332 640.33371028 -783 642 C-783.75539063 642.6703125 -784.51078125 643.340625 -785.2890625 644.03125 C-796.30034803 654.33968751 -805.159869 667.65192979 -812 681 C-812.30631348 681.59490234 -812.61262695 682.18980469 -812.92822266 682.80273438 C-828.67207478 713.74783067 -829.97014478 749.90199532 -820 783 C-806.23867645 825.02867643 -773.23493946 855.61423285 -735 876 C-734.32549805 876.3614209 -733.65099609 876.7228418 -732.95605469 877.09521484 C-728.36482875 879.53009424 -723.71227453 881.80929023 -719 884 C-717.84540283 884.53705566 -717.84540283 884.53705566 -716.66748047 885.08496094 C-664.88480504 908.8577759 -603.3926525 922.61940781 -548.34863281 902.84228516 C-524.97603454 894.11755107 -504.73450555 881.26180631 -486.4765625 864.29296875 C-484.37691243 862.34897097 -482.24230509 860.4773858 -480.0625 858.625 C-469.17357846 849.04186377 -460.57433818 838.86149276 -452.34350586 826.91601562 C-451.90014893 826.28373047 -451.45679199 825.65144531 -451 825 C-450.4956543 824.26749023 -449.99130859 823.53498047 -449.47167969 822.78027344 C-448 821 -448 821 -445.73828125 820.609375 C-444.53751953 820.67898438 -444.53751953 820.67898438 -443.3125 820.75 C-442.50425781 820.78609375 -441.69601562 820.8221875 -440.86328125 820.859375 C-439.94095703 820.92898438 -439.94095703 820.92898438 -439 821 C-438.92523437 820.37996094 -438.85046875 819.75992188 -438.7734375 819.12109375 C-437.10911574 807.91139718 -432.72622832 797.94673743 -427.25 788.125 C-409.03289686 755.2407933 -404.59759014 721.17881827 -404.39408183 684.21290469 C-404.36748194 679.95752609 -404.32419868 675.70230278 -404.28382874 671.44703674 C-404.19997022 662.2604614 -404.13440916 653.07381726 -404.07350904 643.88706428 C-404.01260076 634.73072271 -403.9456565 625.57443495 -403.87664795 616.41815186 C-403.56999583 575.61112677 -403.29775874 534.80391282 -403.03720629 493.99657023 C-402.95906082 481.7634128 -402.87969867 469.53026367 -402.79956055 457.29711914 C-402.79091003 455.97633072 -402.79091003 455.97633072 -402.78208476 454.6288597 C-402.73692001 447.7341409 -402.6916978 440.83942248 -402.64645755 433.94470417 C-402.42787375 400.62982236 -402.21426386 367.31491042 -402 334 C-463.71 334 -525.42 334 -589 334 C-589 311.56 -589 289.12 -589 266 C-493.96 266 -398.92 266 -301 266 C-300.34 264.02 -299.68 262.04 -299 260 C-295.205823 251.42410959 -289.94352318 245.27226963 -283.25390625 238.80078125 C-281.83358704 237.3948991 -280.41326977 235.98901497 -278.99306393 234.5830183 C-277.02399375 232.64007289 -275.04337845 230.70910189 -273.06286621 228.77783203 C-269.59531643 225.39125099 -266.14760981 221.98445316 -262.69798279 218.57963562 C-260.86786528 216.77562996 -259.03382487 214.97559216 -257.19520569 213.18025208 C-252.2224721 208.30339018 -247.50413334 203.31177233 -243 198 C-242.0273905 196.88163802 -241.05364152 195.76426466 -240.078125 194.6484375 C-233.12949766 186.62390927 -226.48647295 178.40177008 -220 170 C-222.96544887 171.37270187 -225.39419618 172.97017521 -227.94140625 175.01171875 C-228.68438965 175.60154541 -229.42737305 176.19137207 -230.19287109 176.79907227 C-230.97484863 177.42225342 -231.75682617 178.04543457 -232.5625 178.6875 C-258.43635656 199 -258.43635656 199 -272 199 C-279.04785585 197.77367308 -282.89201073 193.6082984 -287 188 C-287.33 187.34 -287.66 186.68 -288 186 C-291.19222172 187.09732622 -293.83811311 188.51134107 -296.625 190.375 C-307.00685911 196.84207305 -318.85296222 199.42407341 -331 197 C-334.6700774 194.98825387 -336.22303357 192.73464131 -338 189 C-338.41121094 188.15953125 -338.82242188 187.3190625 -339.24609375 186.453125 C-341.19499877 182.00233846 -342.28882229 177.81090803 -343 173 C-344.06476562 173.7734375 -345.12953125 174.546875 -346.2265625 175.34375 C-381.91705931 201.05861641 -381.91705931 201.05861641 -400.9296875 198.625 C-408.00457533 197.21355106 -413.58432541 194.94859091 -418 189 C-419.04560149 185.20045962 -418.95513176 181.66462418 -418.75 177.75 C-418.71914307 176.72237549 -418.68828613 175.69475098 -418.65649414 174.63598633 C-418.33968141 167.53565388 -417.61831914 161.23811104 -414 155 C-413.51402344 154.15824219 -413.02804687 153.31648437 -412.52734375 152.44921875 C-401.97193313 136.00473743 -380.19731785 121.01476593 -361.1328125 116.43359375 C-356.95755444 115.85572137 -352.83698013 115.68193005 -348.625 115.625 C-347.85124023 115.61090088 -347.07748047 115.59680176 -346.28027344 115.58227539 C-341.2856243 115.62525767 -337.69632529 116.30367471 -334 120 C-333.8415735 122.0708472 -333.74875578 124.14678029 -333.68359375 126.22265625 C-333.64169922 127.48271484 -333.59980469 128.74277344 -333.55664062 130.04101562 C-333.51682404 131.38150736 -333.47711186 132.7220022 -333.4375 134.0625 C-333.39431958 135.40691523 -333.35070544 136.7513166 -333.30664062 138.09570312 C-333.20014642 141.3970234 -333.0981354 144.69842236 -333 148 C-332.29375488 147.5247287 -332.29375488 147.5247287 -331.57324219 147.03985596 C-326.64491184 143.72466314 -321.71215795 140.41613213 -316.77685547 137.11132812 C-314.93881251 135.87928667 -313.10188055 134.64558598 -311.26611328 133.41015625 C-308.61785933 131.62836846 -305.96558581 129.85270765 -303.3125 128.078125 C-302.50071289 127.53005188 -301.68892578 126.98197876 -300.85253906 126.41729736 C-288.12053228 117.92764941 -278.33674319 115.67960216 -262.99609375 115.8046875 C-261.67706558 115.8075174 -260.35803741 115.81034729 -258.9990387 115.81326294 C-255.52204564 115.82083526 -252.04522435 115.84042723 -248.56829834 115.8626709 C-245.00844647 115.88326871 -241.44856638 115.89229421 -237.88867188 115.90234375 C-230.92571148 115.9236804 -223.96286402 115.95773723 -217 116 C-217.28321796 117.72905037 -217.57535053 119.45664165 -217.87109375 121.18359375 C-218.11363892 122.62690063 -218.11363892 122.62690063 -218.36108398 124.09936523 C-221.42049774 137.98889327 -233.28451102 147.46705674 -243 157 C-242.175 156.50371094 -241.35 156.00742187 -240.5 155.49609375 C-234.08529481 151.70314884 -227.70510109 148.34328055 -220.8125 145.5 C-205.6249432 139.13067295 -195.36316243 128.99134472 -187 115 C-184.6417632 111.4626448 -184.03323572 111.48157552 -180.046875 110.640625 C-179.04172852 110.41608643 -178.03658203 110.19154785 -177.00097656 109.96020508 C-175.9281543 109.7258374 -174.85533203 109.49146973 -173.75 109.25 C-157.71818711 105.4551728 -146.57479032 99.65903188 -135 88 C-134.24847656 87.27296875 -133.49695312 86.5459375 -132.72265625 85.796875 C-129.60055504 82.75267651 -126.64425099 79.62772067 -123.8125 76.3125 C-116.85340677 68.23612116 -109.13682477 60.62914367 -101.01171875 53.73046875 C-98.51716397 51.58466726 -96.10781018 49.35414323 -93.6875 47.125 C-88.28341683 42.20817023 -82.72452862 37.53747509 -77 33 C-75.99525635 32.20239258 -75.99525635 32.20239258 -74.97021484 31.38867188 C-50.75103123 12.21894441 -31.76816343 -0.84756958 0 0 Z M-51.29199219 35.43164062 C-53.08843213 37.08120183 -54.90672261 38.70444113 -56.7265625 40.328125 C-64.69625131 47.52147284 -71.92000223 55.10614392 -78.70410156 63.42578125 C-79.60342947 64.51825795 -80.5180459 65.5982572 -81.44433594 66.66796875 C-84.13799312 69.43426095 -84.13799312 69.43426095 -85 73 C-68.95377815 68.49579738 -55.40290186 58.55264687 -42 49 C-41.38398926 48.56478027 -40.76797852 48.12956055 -40.13330078 47.68115234 C-27.80847859 38.93461908 -20.07234635 30.72623628 -14 17 C-28.7079502 17 -40.95269025 25.93398121 -51.29199219 35.43164062 Z M-301 156 C-302.18844121 157.081126 -303.37725773 158.16183953 -304.56640625 159.2421875 C-307.73549198 162.1361298 -310.88016244 165.05298143 -314 168 C-314.61230469 168.53238281 -315.22460938 169.06476563 -315.85546875 169.61328125 C-317.88339232 172.07032175 -317.17134854 174.97284239 -317 178 C-301.26302134 175.59944393 -287.85068178 164.98021374 -276.50390625 154.34375 C-274.762559 152.71378378 -272.97419921 151.13320537 -271.15234375 149.59375 C-265.91768786 145.10423933 -265.91768786 145.10423933 -263.375 138.921875 C-263.375 136.20423387 -263.54213499 133.67596663 -264 131 C-275.51367622 131 -292.66969747 148.29693909 -301 156 Z M-386.3125 159.75 C-387.63217773 161.01457031 -387.63217773 161.01457031 -388.97851562 162.3046875 C-394.23986465 167.53008197 -398.46866988 172.56675753 -400 180 C-399.67 180.99 -399.34 181.98 -399 183 C-380.83626161 176.69878195 -361.55012609 168.10998469 -348 154 C-349.7472544 152.70462174 -351.49791517 151.41383727 -353.25 150.125 C-354.22453125 149.40570312 -355.1990625 148.68640625 -356.203125 147.9453125 C-368.66541319 139.27740815 -377.38254693 150.84011425 -386.3125 159.75 Z " fill="#FFF8E0" transform="translate(2022,828)"/>
<path d="M0 0 C2.27983157 1.05074405 4.56947173 2.07486751 6.86474609 3.09130859 C45.20980011 20.29400907 80.27411673 45.93074962 111.23193359 74.11474609 C113.2013957 75.89239972 115.20462696 77.61419121 117.22802734 79.32958984 C121.82709325 83.32105558 126.05053552 87.68641977 130.32885742 92.0144043 C133.43178466 95.1407783 136.54985705 98.16971966 139.91552734 101.01708984 C143.15827307 103.77204967 145.90760333 106.76320101 148.65380859 110.00927734 C150.57810084 112.25909226 152.58638519 114.41234236 154.60302734 116.57958984 C161.04074057 123.71920025 166.74643029 131.43383125 172.47802734 139.14208984 C172.92823242 139.74569336 173.3784375 140.34929687 173.84228516 140.97119141 C185.37102028 156.51146485 195.43656161 173.04664611 204.47802734 190.14208984 C204.91469727 190.96483398 205.35136719 191.78757812 205.80126953 192.63525391 C233.60415641 245.45873733 247.88217646 303.86293747 252.47802734 363.14208984 C252.54860352 364.03202637 252.61917969 364.92196289 252.69189453 365.83886719 C260.79132093 472.90985579 227.41451052 581.293005 160.47802734 665.14208984 C159.97416504 665.77598633 159.47030273 666.40988281 158.95117188 667.06298828 C152.74510657 674.85179598 146.43494293 682.47055207 139.66162109 689.77490234 C137.77684472 691.81814829 135.96361134 693.89807643 134.16552734 696.01708984 C127.28823931 703.92108201 119.71731361 711.46651143 111.72021484 718.23583984 C109.90934506 719.77539464 108.13166212 721.33853273 106.36083984 722.92333984 C84.45557148 742.41320991 60.11972384 758.97690949 34.47802734 773.14208984 C33.68557617 773.58617187 32.893125 774.03025391 32.07666016 774.48779297 C-29.286742 808.70164335 -98.89430848 821.8735374 -168.51153564 821.46466064 C-171.61862634 821.45119024 -174.7255748 821.45651193 -177.83268166 821.46152306 C-196.14518219 821.48384117 -214.28542348 820.9957362 -232.52197266 819.14208984 C-233.2691153 819.06656891 -234.01625793 818.99104797 -234.78604126 818.91323853 C-238.87708569 818.48589446 -242.94971601 817.97027447 -247.02197266 817.39208984 C-248.8169519 817.13830566 -248.8169519 817.13830566 -250.64819336 816.87939453 C-336.39140504 804.15828558 -412.23728449 759.31970415 -472.89697266 698.89208984 C-473.74146973 698.05226563 -474.5859668 697.21244141 -475.45605469 696.34716797 C-480.35117988 691.43943398 -485.02379222 686.41462967 -489.52197266 681.14208984 C-490.36759766 680.17787109 -491.21322266 679.21365234 -492.08447266 678.22021484 C-500.40120816 668.57066917 -508.00599438 658.42261057 -515.52197266 648.14208984 C-516.10881836 647.34416016 -516.69566406 646.54623047 -517.30029297 645.72412109 C-527.73382288 631.4671237 -536.75701618 616.45838125 -545.52197266 601.14208984 C-546.11429688 600.12066895 -546.70662109 599.09924805 -547.31689453 598.046875 C-556.39311656 582.33347245 -563.36288857 566.19973021 -569.52197266 549.14208984 C-569.89161133 548.12679199 -570.26125 547.11149414 -570.64208984 546.06542969 C-583.46744504 510.44403994 -591.23394724 472.83372061 -594.52197266 435.14208984 C-594.61623535 434.07418213 -594.71049805 433.00627441 -594.80761719 431.90600586 C-595.72686635 420.05854511 -595.76540352 408.207032 -595.77197266 396.32958984 C-595.77298477 394.67727356 -595.77298477 394.67727356 -595.77401733 392.99157715 C-595.71039884 327.2588067 -581.81883979 263.49476865 -553.52197266 204.14208984 C-553.10689453 203.26665527 -552.69181641 202.3912207 -552.26416016 201.48925781 C-534.9260906 165.14223217 -511.62335478 132.10216334 -485.08276367 101.91723633 C-483.88285494 100.55253488 -482.69091301 99.18082549 -481.50244141 97.80615234 C-476.37207737 91.9716207 -470.94273776 86.45627952 -465.45947266 80.95458984 C-464.32578247 79.81401123 -464.32578247 79.81401123 -463.16918945 78.65039062 C-438.58004451 54.12810034 -409.21083611 33.62466299 -378.6484375 17.28759766 C-376.620861 16.19536012 -374.61131197 15.07572993 -372.60400391 13.94677734 C-288.44544998 -32.83479847 -182.00504544 -43.97338827 0 0 Z M-217.52197266 124.14208984 C-218.58158203 124.3407666 -219.64119141 124.53944336 -220.73291016 124.74414062 C-264.95511023 133.26559517 -307.25552088 151.57789568 -341.52197266 181.14208984 C-342.67338177 182.11064993 -343.82578986 183.07802324 -344.97900391 184.04443359 C-368.01529332 203.43028132 -384.57527652 227.15408894 -399.52197266 253.14208984 C-400.08609863 254.11130371 -400.08609863 254.11130371 -400.66162109 255.10009766 C-419.90460219 288.40039264 -430.54605459 327.08635302 -434.52197266 365.14208984 C-434.61623535 366.01937744 -434.71049805 366.89666504 -434.80761719 367.80053711 C-435.68425062 376.92677729 -435.7652692 386.04403369 -435.77197266 395.20458984 C-435.7726474 396.03879456 -435.77332214 396.87299927 -435.77401733 397.73248291 C-435.73534367 428.03456158 -431.09558195 457.36187234 -421.52197266 486.14208984 C-421.27253906 486.90231445 -421.02310547 487.66253906 -420.76611328 488.44580078 C-405.22320293 535.13446593 -374.79281963 579.22144453 -335.52197266 609.14208984 C-334.26176226 610.14070853 -333.00274185 611.14082995 -331.74462891 612.14208984 C-321.46086341 620.25351892 -310.74600852 627.40183892 -299.52197266 634.14208984 C-298.50369385 634.76059814 -298.50369385 634.76059814 -297.46484375 635.39160156 C-268.09108255 653.11525693 -232.61316459 665.26482852 -198.11962891 665.31005859 C-196.63980278 665.31647873 -196.63980278 665.31647873 -195.13008118 665.32302856 C-191.94816516 665.33299328 -188.76640129 665.33308621 -185.58447266 665.32958984 C-184.49829651 665.32865326 -183.41212036 665.32771667 -182.29302979 665.32675171 C-166.6264431 665.29735713 -151.0744405 665.23403132 -135.52197266 663.14208984 C-133.78222168 662.908125 -133.78222168 662.908125 -132.00732422 662.66943359 C-101.120911 658.33618778 -71.99411036 650.03752087 -44.52197266 635.14208984 C-43.84070312 634.77390137 -43.15943359 634.40571289 -42.45751953 634.02636719 C-31.00716394 627.75732403 -20.62257307 620.39698121 -10.52197266 612.14208984 C-9.58289062 611.37960937 -8.64380859 610.61712891 -7.67626953 609.83154297 C0.79945955 602.85959647 8.66012589 595.33243913 16.41650391 587.57421875 C18.46536854 585.52972166 20.52974014 583.5018187 22.59521484 581.47412109 C74.52056584 529.98825711 93.0851547 456.73154259 93.79052734 385.39208984 C93.54609224 325.63352657 69.03966631 266.63696263 32.47802734 220.14208984 C31.69685547 219.14693359 30.91568359 218.15177734 30.11083984 217.12646484 C25.3259056 211.16658234 20.241227 205.52520191 15.04443359 199.92724609 C12.9143655 197.61561968 10.83850977 195.27596005 8.79052734 192.89208984 C2.51754026 185.69449475 -4.22705513 179.51190627 -11.89697266 173.82958984 C-12.769104 173.18151367 -13.64123535 172.5334375 -14.53979492 171.86572266 C-22.8937209 165.74036732 -31.50332734 160.23155928 -40.52197266 155.14208984 C-41.33214844 154.68350586 -42.14232422 154.22492188 -42.97705078 153.75244141 C-82.37765905 131.7093984 -126.52947741 120.64428844 -171.58447266 120.82958984 C-172.53040283 120.831745 -173.47633301 120.83390015 -174.45092773 120.83612061 C-188.99408253 120.88919557 -203.20233561 121.39798584 -217.52197266 124.14208984 Z " fill="#FFF8E0" transform="translate(2556.52197265625,1171.85791015625)"/>
<path d="M0 0 C7.66845631 -0.09717407 15.3313554 -0.06004023 22.99951172 0.04589844 C24.06234375 0.0584668 25.12517578 0.07103516 26.22021484 0.08398438 C125.82008272 1.57281706 218.50398059 41.45842441 297.31420898 113.50390625 C299.43434819 115.44375837 301.58434488 117.34913404 303.72998047 119.26074219 C308.99628408 123.99569671 314.05735505 128.91141055 319.06201172 133.92089844 C319.94107178 134.80076416 320.82013184 135.68062988 321.72583008 136.5871582 C326.78997155 141.69948011 331.60731477 146.81826026 336.01904297 152.50683594 C337.89401042 154.91064036 339.85923605 157.21218201 341.86230469 159.50952148 C394.81859763 220.5462625 421.49977161 300.94682276 430.99951172 380.04589844 C431.13228516 381.12806641 431.26505859 382.21023438 431.40185547 383.32519531 C440.22523138 459.11700297 427.46988176 538.6852978 395.99951172 608.04589844 C395.54640625 609.05088379 395.09330078 610.05586914 394.62646484 611.09130859 C378.21660996 647.16935375 356.44445249 681.65865916 330.31201172 711.52294922 C329.02455984 713.01683404 327.77710572 714.54489314 326.53076172 716.07324219 C319.65291502 724.47532643 312.09085183 732.17056623 304.43701172 739.85839844 C303.90630066 740.39428589 303.3755896 740.93017334 302.82879639 741.4822998 C296.61125826 747.7475821 290.30395741 753.64840323 283.37744141 759.13330078 C281.10282206 760.96280468 278.95156496 762.87386557 276.81201172 764.85839844 C211.28767328 823.44894445 116.99763077 855.02196065 29.99169922 855.24902344 C29.24192936 855.25185081 28.4921595 855.25467819 27.71966934 855.25759125 C23.73058999 855.27249027 19.74154575 855.28177119 15.75244141 855.28613281 C12.53975728 855.29046268 9.32735005 855.30415104 6.11474609 855.32714844 C-11.29449385 855.44908812 -28.56624139 855.19069761 -45.91845703 853.67480469 C-46.6267931 853.61339043 -47.33512917 853.55197617 -48.06492996 853.48870087 C-62.53067313 852.20338812 -76.77762555 849.98107872 -91.00048828 847.04589844 C-91.99419434 846.84158203 -92.98790039 846.63726563 -94.01171875 846.42675781 C-121.90126266 840.49181011 -149.30765654 830.2859871 -175.00048828 818.04589844 C-175.89783691 817.62066895 -176.79518555 817.19543945 -177.71972656 816.75732422 C-213.91817775 799.47218166 -246.4807663 776.08720298 -276.00048828 749.04589844 C-276.52175293 748.56975098 -277.04301758 748.09360352 -277.58007812 747.60302734 C-285.76470228 740.1216394 -293.8265582 732.67433163 -301.06689453 724.25683594 C-303.24644809 721.76465954 -305.49822108 719.34751176 -307.75048828 716.92089844 C-312.99940361 711.15738356 -317.80124224 705.11114047 -322.54541016 698.92919922 C-323.99914018 697.04764328 -325.47395431 695.18445149 -326.95361328 693.32324219 C-342.8378995 673.17836662 -356.48689828 651.4092343 -369.00048828 629.04589844 C-369.45858887 628.24345703 -369.91668945 627.44101563 -370.38867188 626.61425781 C-401.26136997 572.388692 -414.95615374 504.1297864 -416.00048828 442.04589844 C-416.02095215 441.07587891 -416.04141602 440.10585937 -416.0625 439.10644531 C-416.99929842 388.84450043 -410.11933546 338.97867974 -395.00048828 291.04589844 C-394.68499023 290.04558594 -394.36949219 289.04527344 -394.04443359 288.01464844 C-377.1681654 235.40965909 -348.31388931 187.27250496 -313.00048828 145.04589844 C-311.79585937 143.58023437 -311.79585937 143.58023437 -310.56689453 142.08496094 C-299.78958047 129.05770695 -288.26912456 116.54983121 -275.54296875 105.40136719 C-273.89343002 103.95182002 -272.26164292 102.48362574 -270.62939453 101.01464844 C-256.12184033 88.0769785 -240.44577572 76.40740358 -224.00048828 66.04589844 C-223.29085937 65.59714355 -222.58123047 65.14838867 -221.85009766 64.68603516 C-155.29866565 22.92687135 -78.45380015 1.20010695 0 0 Z M-37.00048828 158.04589844 C-37.93248047 158.20155273 -38.86447266 158.35720703 -39.82470703 158.51757812 C-63.65204283 162.54507314 -87.34417786 170.31383615 -109.00048828 181.04589844 C-109.74202148 181.40586914 -110.48355469 181.76583984 -111.24755859 182.13671875 C-134.58059105 193.5433252 -155.75647768 208.6508963 -174.48632812 226.59912109 C-175.91292848 227.9622352 -177.35658834 229.30743085 -178.80126953 230.65136719 C-199.30929513 250.26902988 -214.92821308 276.54298525 -227.04150391 302.02880859 C-227.67427056 303.35974496 -228.3134724 304.68764336 -228.95947266 306.01220703 C-239.31951986 327.34696956 -246.70820261 350.741685 -251.00048828 374.04589844 C-251.15066406 374.86106934 -251.30083984 375.67624023 -251.45556641 376.51611328 C-264.26054239 448.47950408 -250.74355957 525.329404 -208.94189453 585.89355469 C-204.8135928 591.7667394 -200.51275383 597.46063745 -196.00048828 603.04589844 C-195.57977051 603.56958008 -195.15905273 604.09326172 -194.72558594 604.6328125 C-185.17516609 616.45509096 -174.68734303 627.45652857 -162.72705078 636.86621094 C-160.86800311 638.35238372 -159.05084997 639.89213773 -157.27392578 641.47558594 C-141.67888059 655.34242032 -123.52093693 666.51872058 -105.00048828 676.04589844 C-104.02015625 676.56240967 -104.02015625 676.56240967 -103.02001953 677.08935547 C-77.54998706 690.40265837 -47.45324257 699.11276854 -18.62548828 699.24902344 C-17.63547318 699.25599243 -16.64545807 699.26296143 -15.6254425 699.2701416 C-12.41708123 699.2875473 -9.20889492 699.29386986 -6.00048828 699.29589844 C-4.90457367 699.29690552 -3.80865906 699.2979126 -2.67953491 699.2989502 C58.73462496 699.26081973 117.94596278 686.98971741 166.99951172 648.04589844 C167.91861328 647.33046875 168.83771484 646.61503906 169.78466797 645.87792969 C175.74472726 641.1417363 181.14236764 636.01930261 186.46044922 630.58886719 C188.5183234 628.52782705 190.58997894 626.61030698 192.81201172 624.73339844 C202.82531633 616.14173584 211.99021422 606.52069143 219.99951172 596.04589844 C220.41233398 595.52012207 220.82515625 594.9943457 221.25048828 594.45263672 C263.63759877 540.34710597 279.22794684 463.85218032 272.30810547 396.35058594 C266.43578567 348.48563961 248.31596363 303.01655014 219.99951172 264.04589844 C219.50950684 263.3665625 219.01950195 262.68722656 218.51464844 261.98730469 C212.86096951 254.18010293 207.06558344 246.69192219 200.44873047 239.67089844 C198.47007371 237.55023283 196.5585124 235.40093528 194.65966797 233.20996094 C173.98863252 209.51775281 148.47060505 192.171423 119.99951172 179.04589844 C118.8311377 178.50304199 118.8311377 178.50304199 117.63916016 177.94921875 C99.39074656 169.55823908 80.82607784 163.88201044 61.18701172 159.73339844 C60.04425781 159.49081299 58.90150391 159.24822754 57.72412109 158.99829102 C41.30159582 155.69298908 25.09526956 154.66413188 8.37451172 154.73339844 C6.99637299 154.73613266 6.99637299 154.73613266 5.59039307 154.73892212 C-8.80532603 154.78686724 -22.80984903 155.46906838 -37.00048828 158.04589844 Z " fill="#FFF8E0" transform="translate(4785.00048828125,1137.9541015625)"/>
<path d="M0 0 C52.47 0 104.94 0 159 0 C159.53097776 42.86792922 159.53097776 42.86792922 159.70166016 59.5859375 C159.71928496 61.31200792 159.71928496 61.31200792 159.73726583 63.07294846 C160.30923204 119.76846937 160.62593381 176.46671289 160.96795464 233.16398621 C160.99188077 237.12641411 161.01582795 241.08884188 161.03979492 245.05126953 C161.04573768 246.03454731 161.05168044 247.01782509 161.05780329 248.03089917 C161.15523013 264.11267533 161.26188367 280.19437744 161.37205192 296.27607083 C161.48661388 313.02246703 161.59270903 329.76890084 161.69078141 346.51540184 C161.74551509 355.82615091 161.80370648 365.13684674 161.87163353 374.44750977 C161.92908217 382.32377255 161.97873641 390.20003902 162.01885553 398.07640988 C162.03940623 402.06716778 162.06317257 406.05782217 162.09711838 410.04849052 C162.26790303 430.48888067 161.57448742 450.74825167 160.23727953 471.1449604 C159.62531535 481.0874368 159.26736555 491.04281773 159 501 C158.97663574 501.84336914 158.95327148 502.68673828 158.92919922 503.55566406 C158.30722655 529.46944958 161.47968244 554.49394377 170 579 C170.26280762 579.77118164 170.52561523 580.54236328 170.79638672 581.33691406 C176.00592442 596.45140851 182.38798277 611.06014001 188.8125 625.6875 C189.23436584 626.65354156 189.65623169 627.61958313 190.09088135 628.61489868 C191.30847383 631.39690746 192.53705194 634.17377797 193.76953125 636.94921875 C194.31917793 638.20718765 194.31917793 638.20718765 194.87992859 639.49057007 C198.09301912 646.65945568 201.70286348 651.24344705 208.4375 655.4375 C209.05512207 655.82510498 209.67274414 656.21270996 210.30908203 656.61206055 C230.98283244 669.32807875 253.59774371 672.44216753 277.4375 672.3125 C278.15745148 672.31034485 278.87740295 672.3081897 279.61917114 672.30596924 C290.35283508 672.25453019 300.59070674 671.85957692 311 669 C311.71043457 668.80664062 312.42086914 668.61328125 313.15283203 668.4140625 C329.86762038 663.72828147 344.56517701 655.96803455 358 645 C358.73605469 644.45085938 359.47210938 643.90171875 360.23046875 643.3359375 C366.53018776 638.38876938 370.15114085 631.92794648 374 625 C374.53625 624.05125 375.0725 623.1025 375.625 622.125 C397.84109726 580.46981765 396.03409405 527.70735887 394.17331696 481.90151787 C392.92811632 450.55291025 392.68288205 419.22250346 392.73860455 387.85191315 C392.74832633 382.37425632 392.75338279 376.89660967 392.75637817 371.41894531 C392.803669 295.88092785 393.36694667 220.34353227 393.88738585 144.80759301 C393.92657838 139.110536 393.96514672 133.41347497 394.00340271 127.71641159 C394.11947938 110.4447289 394.23857614 93.17307642 394.36744434 75.90148383 C394.37846837 74.42324915 394.38948926 72.94501444 394.40050697 71.46677971 C394.40591839 70.74097636 394.41132982 70.01517301 394.41690522 69.26737561 C394.45450091 64.19432576 394.48973308 59.12126285 394.52394676 54.04818916 C394.56951837 47.29795174 394.62006453 40.54776997 394.67410517 33.79759419 C394.69307306 31.33426777 394.71042263 28.87092829 394.72603941 26.40757835 C394.74754089 23.05971235 394.77491438 19.71194483 394.80381775 16.36413574 C394.81112145 14.90617328 394.81112145 14.90617328 394.8185727 13.41875702 C394.82753046 12.52191112 394.83648822 11.62506522 394.84571743 10.70104218 C394.85141324 9.93231891 394.85710904 9.16359565 394.86297745 8.37157774 C395.02541494 5.56011982 395.53702835 2.77782988 396 0 C448.47 0 500.94 0 555 0 C555.26583714 68.76162364 555.26583714 68.76162364 555.35595703 93.24365234 C555.3587928 94.01347253 555.36162856 94.78329271 555.36455026 95.57644078 C556.02253119 274.28377072 556.02253119 274.28377072 556.12283063 393.72529262 C556.12409894 400.77736381 556.12783275 407.82943062 556.13256836 414.88150024 C556.18236752 494.52968452 556.18236752 494.52968452 555 529 C554.95983765 530.18126465 554.91967529 531.3625293 554.8782959 532.57958984 C554.65691822 538.82678846 554.38239719 545.06963854 554.0625 551.3125 C553.9743858 553.09114282 553.88633421 554.86978875 553.79833984 556.6484375 C553.58198316 560.96985434 553.35576052 565.29068428 553.12567139 569.61138916 C553.0057362 571.89097315 552.89084406 574.17074711 552.77783203 576.45068359 C551.4722217 602.54768039 548.57488935 627.91767641 541 653 C540.74911621 653.83515137 540.49823242 654.67030273 540.23974609 655.53076172 C530.78762122 686.22129452 514.36443049 714.33102041 494 739 C492.8246167 740.42771729 492.8246167 740.42771729 491.62548828 741.88427734 C485.04041063 749.81192143 478.11300145 757.29102834 470.8125 764.5625 C469.99554153 765.37814423 469.99554153 765.37814423 469.16207886 766.21026611 C460.67207472 774.65548897 452.09415721 782.48747778 442 789 C441.28295898 789.4650293 440.56591797 789.93005859 439.82714844 790.40917969 C434.62966793 793.74387603 429.34811652 796.9136528 424 800 C423.36239746 800.37108887 422.72479492 800.74217773 422.06787109 801.12451172 C411.50849693 807.21095407 400.43313069 811.81564418 389 816 C388.16146484 816.30824707 387.32292969 816.61649414 386.45898438 816.93408203 C364.68768613 824.77359301 341.0727591 829.34289238 318 831 C316.98244629 831.0839502 315.96489258 831.16790039 314.91650391 831.25439453 C302.6134547 832.1654297 290.31049689 832.22081571 277.97802734 832.24023438 C274.29891751 832.24987186 270.62038422 832.28095886 266.94140625 832.3125 C198.50095368 832.61824203 133.02752153 810.75193575 82.66796875 763.48046875 C80.47024156 761.43719384 78.23658936 759.48851198 75.9375 757.5625 C61.2927005 744.78213082 48.45441843 728.33924981 38.18554688 711.89794922 C37.38785461 710.62091881 36.5816804 709.34915172 35.76757812 708.08251953 C8.78977315 665.98493853 0.74825008 613.03009021 -2 564 C-2.0427002 563.24176941 -2.08540039 562.48353882 -2.12939453 561.70233154 C-2.97297184 546.21575744 -3.15568139 530.75497992 -3.13037109 515.24755859 C-3.12511146 511.45536091 -3.13029884 507.66328738 -3.13671875 503.87109375 C-3.13886567 492.70312376 -3.09686066 481.53959195 -2.77816772 470.37567139 C-1.74645909 433.73597024 -1.79768412 397.08951579 -1.73468044 360.43840894 C-1.71737087 350.53197855 -1.69402596 340.62556463 -1.67026538 330.71914794 C-1.62778231 312.97488099 -1.58861928 295.2306086 -1.55224609 277.48632812 C-1.55008329 276.43179487 -1.54792049 275.37726162 -1.54569215 274.29077281 C-1.53257326 267.88595522 -1.51953151 261.48113748 -1.50651073 255.07631969 C-1.48705811 245.5114915 -1.46749583 235.94666354 -1.44775391 226.38183594 C-1.44559504 225.33531313 -1.44343617 224.28879032 -1.44121188 223.2105547 C-1.40465842 205.54331538 -1.36467496 187.87608526 -1.32245111 170.20885861 C-1.29681964 159.41706629 -1.27404879 148.62527615 -1.25546753 137.83346935 C-1.24245206 130.3897005 -1.22621883 122.94594248 -1.20781839 115.50218503 C-1.19743802 111.26076406 -1.18819015 107.0193526 -1.18312263 102.77792168 C-1.13634343 68.50998507 -0.51149594 34.27022818 0 0 Z " fill="#FFF8E0" transform="translate(5396,1161)"/>
<path d="M0 0 C355 0 355 0 407 48 C408.62444888 49.43812276 410.24945751 50.87561348 411.875 52.3125 C421.98864227 61.45916393 431.09136619 70.86956508 439 82 C439.40959961 82.57588867 439.81919922 83.15177734 440.24121094 83.74511719 C470.22428549 126.36742692 484.51122725 177.15839393 486 229 C486.02723145 229.80373047 486.05446289 230.60746094 486.08251953 231.43554688 C488.04579909 296.68063603 463.37259093 357.83790409 419 405 C418.28328125 405.78246094 417.5665625 406.56492187 416.828125 407.37109375 C370.78118205 455.92811442 296.34382 464.437496 234 468 C207.93 468 181.86 468 155 468 C155 582.18 155 696.36 155 814 C103.85 814 52.7 814 0 814 C0 545.38 0 276.76 0 0 Z M155 155 C155 208.46 155 261.92 155 317 C189.4409195 319.41611288 189.4409195 319.41611288 224.0625 318.25 C224.89136719 318.16129639 225.72023438 318.07259277 226.57421875 317.98120117 C248.10615172 315.47284621 267.93262038 307.33605227 287.875 299.25 C288.58085236 298.96391876 289.28670471 298.67783752 290.01394653 298.38308716 C292.04982247 297.55579299 294.08388594 296.72422411 296.1171875 295.890625 C297.29909668 295.40625977 298.48100586 294.92189453 299.69873047 294.42285156 C306.61565348 291.69292211 306.61565348 291.69292211 311.78125 286.62890625 C312.22782959 285.97841309 312.67440918 285.32791992 313.13452148 284.65771484 C313.58512939 283.96629395 314.0357373 283.27487305 314.5 282.5625 C314.97703369 281.84529785 315.45406738 281.1280957 315.94555664 280.38916016 C327.58516147 262.60560449 333.81874484 242.52289784 330.38671875 221.1875 C326.98621303 207.04618987 320.17561134 194.2435995 311 183 C310.278125 182.11441406 309.55625 181.22882813 308.8125 180.31640625 C293.74682629 162.71363124 270.26448295 156.66132665 247.86181641 154.82470703 C217.03716195 152.56891799 185.69652405 154.51275359 155 155 Z " fill="#FFF8E0" transform="translate(3737,1161)"/>
<path d="M0 0 C56.76 0 113.52 0 172 0 C177.80021681 10.44039027 183.55670083 20.82121625 189 31.4375 C190.20527116 33.7749758 191.41100224 36.11221451 192.6171875 38.44921875 C193.19436523 39.5686084 193.77154297 40.68799805 194.36621094 41.84130859 C196.59771216 46.15558875 198.85686545 50.45489377 201.125 54.75 C220.2863478 91.06661981 239.05600091 127.59075719 257.78460693 164.13198853 C260.72386188 169.86611175 263.66485361 175.59934426 266.60595703 181.33251953 C268.15457643 184.3513324 269.7024038 187.37054899 271.24951172 190.39013672 C279.61619732 206.71583813 288.13975852 222.9352907 297 239 C299.34120434 243.2457316 301.67320212 247.4963584 304 251.75 C304.54035889 252.72638428 305.08071777 253.70276855 305.63745117 254.70874023 C314.79246847 271.47154951 314.79246847 271.47154951 314 279 C317.6845184 279.25312026 317.6845184 279.25312026 321 278 C323.3601031 274.46476427 324.67646158 270.5314423 326.14038086 266.55834961 C327.08969725 264.15659653 328.04569374 261.75747486 329.00778198 259.36080933 C329.25219223 258.74564431 329.49660248 258.1304793 329.74841911 257.49667293 C332.2449601 251.26235305 335.13863569 245.25656454 338.13891602 239.25219727 C338.66753203 238.19127837 339.19614805 237.13035948 339.74078274 236.03729153 C341.40540364 232.71039903 343.07938751 229.38832626 344.75390625 226.06640625 C345.9479931 223.68317905 347.14147156 221.29965601 348.33421326 218.91575623 C350.81049798 213.96955124 353.29258669 209.02629921 355.77905273 204.08520508 C358.93832252 197.80707416 362.08834465 191.52435222 365.23529148 185.24003696 C368.28006594 179.15977319 371.32933407 173.08176474 374.37890625 167.00390625 C374.9446039 165.8759067 375.51030155 164.74790714 376.09314156 163.58572578 C382.23599468 151.34449612 388.43931368 139.14310605 394.86024475 127.04510498 C396.95777368 123.0923091 399.01295091 119.11856806 401.0546875 115.13671875 C401.38761779 114.48770348 401.72054808 113.8386882 402.06356716 113.1700058 C402.67758658 111.97263986 403.29150348 110.77522134 403.90533447 109.57775879 C409.32036207 99.02174415 414.83066639 88.53393566 420.56201172 78.14526367 C424.49534701 70.99126933 428.26134267 63.7573637 432 56.5 C436.70728763 47.36387857 441.49742314 38.28500257 446.47851562 29.29492188 C451.82368031 19.613264 456.86276005 9.80745808 462 0 C519.09 0 576.18 0 635 0 C624.66471978 21.81892491 624.66471978 21.81892491 620.56298828 29.97167969 C620.09166473 30.91286652 619.62034119 31.85405334 619.13473511 32.82376099 C618.13235164 34.82478479 617.12904712 36.82534747 616.12485123 38.82546234 C614.5228719 42.0163697 612.9235966 45.20862053 611.32492065 48.40118408 C607.35579108 56.32624603 603.38227136 64.24910463 599.40881348 72.17199707 C596.03806817 78.89352821 592.66909098 85.61594023 589.30230331 92.33945465 C587.7494589 95.43880329 586.19415527 98.53690859 584.63870239 101.63494873 C579.23090546 112.42349763 573.91739029 123.24945911 568.76129341 134.16090775 C565.19891816 141.6780535 561.37086128 149.03424567 557.45605469 156.37255859 C554.94037647 161.09236084 552.4983241 165.8479075 550.0703125 170.61328125 C549.66246521 171.41240936 549.25461792 172.21153748 548.83441162 173.03488159 C547.18766066 176.26259638 545.54241826 179.49106681 543.90087891 182.72143555 C539.10039885 192.16263476 534.19670519 201.53085617 529.09375 210.8125 C522.95344759 221.98736807 517.13962126 233.31535024 511.375 244.6875 C509.44711665 248.48399206 507.51727815 252.27948436 505.5859375 256.07421875 C505.11427155 257.00126617 504.64260559 257.9283136 504.15664673 258.88345337 C501.14425541 264.79163108 498.08466123 270.6726731 494.984375 276.53515625 C489.51004344 286.88700548 484.18931609 297.31532096 478.875 307.75 C477.83646358 309.78708876 476.79780531 311.8241154 475.7590332 313.86108398 C474.144796 317.0265712 472.53066296 320.19211111 470.91700745 323.3578949 C467.11280694 330.82077694 463.30219649 338.28035986 459.48828125 345.73828125 C458.42136748 347.82518547 457.35447273 349.91209943 456.28759766 351.99902344 C454.76436326 354.97863327 453.24090882 357.95812888 451.7164917 360.93713379 C450.30356621 363.69850661 448.89169412 366.46041421 447.48046875 369.22265625 C447.02899979 370.10590073 446.57753082 370.9891452 446.11238098 371.89915466 C443.72911675 376.57228829 441.37005487 381.25624727 439.0402832 385.95629883 C438.55195511 386.94025131 438.06362701 387.9242038 437.5605011 388.93797302 C436.63605214 390.8042344 435.71480616 392.67208754 434.79753113 394.54188538 C430.18284913 403.86034186 424.65791461 412.5367058 418.87890625 421.16796875 C409.46033602 435.65383992 403.68579145 451.96839179 401 469 C400.75244052 470.5198231 400.75244052 470.5198231 400.49987984 472.07034969 C398.46893975 486.55221755 398.64994535 501.11054499 398.59878278 515.7032162 C398.58258937 519.71594848 398.55525952 523.72860799 398.52935791 527.74128723 C398.48609183 534.67472583 398.44970838 541.60817227 398.41814804 548.54167366 C398.37250827 558.56605328 398.31625792 568.59035188 398.25750948 578.61466222 C398.16245252 594.88280199 398.0758454 611.15097513 397.99462891 627.41918945 C397.91576822 643.21185905 397.83285851 659.00449899 397.74462891 674.79711914 C397.73912989 675.78230418 397.73363088 676.76748921 397.72796524 677.78252834 C397.6849209 685.48859046 397.64164353 693.19465126 397.59829259 700.90071166 C397.38627003 738.60041432 397.19455293 776.30019531 397 814 C344.53 814 292.06 814 238 814 C238 781.63752554 238 781.63752554 238.58421326 766.04084778 C238.62579496 764.9135557 238.66737667 763.78626362 238.71021843 762.62481117 C238.75299479 761.4660063 238.79577114 760.30720142 238.83984375 759.11328125 C238.92762132 756.62836919 239.01489398 754.14343924 239.10169983 751.65849304 C239.32895977 745.18233164 239.56162454 738.70637758 239.79595947 732.23046875 C240.21281137 720.69163433 240.62148205 709.15250695 241.02734375 697.61328125 C241.07098557 696.37418251 241.11462738 695.13508377 241.15959167 693.85843658 C241.72011989 677.8773559 242.23192634 661.8963834 242.62109375 645.91015625 C242.64099806 645.10573908 242.66090237 644.30132191 242.68140984 643.47252846 C244.89100891 552.7942346 230.20296062 473.3754608 186.09094238 371.47943115 C183.77292097 366.2111653 181.46466668 360.93860733 179.15420532 355.66702271 C177.20897406 351.230503 175.26017234 346.79562232 173.30322266 342.36425781 C170.16134395 335.24504301 167.02586696 328.12928375 164.0625 320.93359375 C159.63739079 310.22793329 154.6389462 300.84889389 147.99609375 291.35546875 C137.75774256 276.68367798 129.9303383 260.37449146 121.79394531 244.49072266 C120.04908431 241.09551001 118.28957674 237.70840481 116.5234375 234.32421875 C109.7128134 221.26996198 103.02980344 208.16031155 96.50024414 194.96362305 C92.76643926 187.4408339 88.90733217 179.99436432 84.98110962 172.57025146 C80.27763726 163.66152747 75.70351292 154.68782275 71.13262939 145.71054077 C69.04323349 141.60758166 66.95035723 137.50640087 64.85775757 133.40507507 C63.25905723 130.27165822 61.66072248 127.13805515 60.0625 124.00439453 C59.04166687 122.00292958 58.02083355 120.00146473 57 118 C56.53432617 117.08692078 56.06865234 116.17384155 55.58886719 115.23309326 C33.59951125 71.88643059 33.59951125 71.88643059 10.14477539 29.32421875 C0 11.69722175 0 11.69722175 0 0 Z " fill="#FFF8E0" transform="translate(2937,1161)"/>
<path d="M0 0 C25.08 0 50.16 0 76 0 C77.09412616 3.28237849 77.18601387 5.82539559 77.27210999 9.28312683 C77.30714127 10.59985886 77.34217255 11.91659088 77.37826538 13.27322388 C77.41249981 14.73577682 77.44664601 16.19833182 77.48071289 17.66088867 C77.51987254 19.19826759 77.55943825 20.73563621 77.59938049 22.272995 C77.7067555 26.45027414 77.80843382 30.627675 77.90911031 34.80512023 C78.01525262 39.16942376 78.12660524 43.53359422 78.2374115 47.89778137 C78.44648638 56.16367887 78.65085721 64.42968575 78.85354942 72.69574195 C79.08451813 82.10563946 79.32071363 91.51540349 79.55735409 100.92515981 C80.04406308 120.28329684 80.52418904 139.6415922 81 159 C88.30229885 151.72666643 95.28411085 144.2145028 101.75 136.1875 C108.36130863 128.02265066 115.72859684 121.47237297 124 115 C124.5465625 114.57170898 125.093125 114.14341797 125.65625 113.70214844 C146.74162515 97.32504172 169.86753113 85.68493681 196 80 C197.09570312 79.75378906 198.19140625 79.50757813 199.3203125 79.25390625 C223.50992316 74.85855093 247.91213077 76.98809569 269 90 C272.90899488 92.71692239 276.45724458 95.82746822 280 99 C281.49466797 100.13115234 281.49466797 100.13115234 283.01953125 101.28515625 C286.54791005 104.22415844 288.49322812 107.69966841 290.5625 111.75 C290.94672119 112.4915332 291.33094238 113.23306641 291.72680664 113.99707031 C299.70003823 129.96710799 302.32226375 147.0601989 302.24723816 164.79389954 C302.24883076 166.13427756 302.2512988 167.47465478 302.25455457 168.8150298 C302.26090635 172.46031997 302.25494831 176.10549734 302.24679029 179.75077999 C302.24016441 183.69704635 302.2451724 187.64330109 302.24867249 191.58956909 C302.25369555 199.30618238 302.24809631 207.02275256 302.23882218 214.73936049 C302.22839649 223.74057981 302.2285095 232.74179001 302.22899476 241.74301424 C302.22949465 257.81428091 302.22035485 273.88552764 302.20581055 289.95678711 C302.19173175 305.52189497 302.18463956 321.08698529 302.18530273 336.65209961 C302.18534269 337.61041132 302.18538265 338.56872302 302.18542381 339.55607448 C302.18546417 340.51279078 302.18550452 341.46950709 302.1855461 342.4552148 C302.1862377 360.21441292 302.18033495 377.97360364 302.17139288 395.73279935 C302.16838814 401.99419734 302.1673147 408.25559395 302.16686058 414.51699257 C302.16617519 422.15894486 302.16166579 429.80088467 302.15252777 437.44283167 C302.14794149 441.3354457 302.14485243 445.22804388 302.14612198 449.12066078 C302.14723123 452.69539364 302.14361365 456.27009169 302.13647345 459.8448173 C302.13385068 461.72622449 302.13599579 463.60763654 302.1384055 465.48904401 C302.11355516 474.39773104 301.55856769 483.062917 301 492 C275.92 492 250.84 492 225 492 C224.94465088 485.10673828 224.88930176 478.21347656 224.83227539 471.11132812 C224.65222669 448.72519023 224.47007715 426.33906971 224.28670079 403.95295885 C224.25793143 400.44064457 224.22917991 396.92833014 224.20043945 393.41601562 C224.19472053 392.71715443 224.18900161 392.01829324 224.1831094 391.29825443 C224.10329068 381.53978215 224.02442868 371.78130256 223.9463536 362.02281618 C223.70870113 332.3254007 223.46330918 302.62808271 223.18990517 272.93096924 C223.1677113 270.5184327 223.14552678 268.10589608 223.12335205 265.69335938 C223.11262315 264.52659039 223.10189424 263.3598214 223.09084022 262.15769577 C223.01428468 253.75720618 222.94655469 245.35667097 222.88199455 236.95608187 C222.8280001 230.0291218 222.764163 223.10230627 222.69068688 216.17552519 C222.65107871 212.42359329 222.61555839 208.6717688 222.59288216 204.91969299 C222.42290001 177.71641268 220.84203254 151.74394311 201 131 C189.06448259 127.0214942 174.62150935 130.28163525 163 134 C162.10152344 134.27714844 161.20304687 134.55429687 160.27734375 134.83984375 C146.68862313 139.63456306 135.52574172 149.49772196 125 159 C124.19103271 159.72437256 124.19103271 159.72437256 123.36572266 160.46337891 C119.8685437 163.59896518 116.4269425 166.78785161 113 170 C112.19820312 170.72445312 111.39640625 171.44890625 110.5703125 172.1953125 C100.91304686 181.25108754 94.69132629 192.82496744 89.10492802 204.68628025 C87.80391033 207.4123601 86.42455882 210.04368478 84.9033041 212.65257931 C77.94578919 225.06437721 77.84756142 236.65737026 77.92407227 250.62524414 C77.90820876 253.06483871 77.88884796 255.50441264 77.86628723 257.94395447 C77.82567466 263.16521541 77.80884215 268.38595539 77.81433296 273.60734749 C77.82215782 281.17361357 77.78463048 288.73914995 77.73656773 296.30524307 C77.65953104 308.60849906 77.61686704 320.91161597 77.59692383 333.21508789 C77.57754696 345.11525018 77.544249 357.01522386 77.49047852 368.9152832 C77.48717172 369.64851935 77.48386492 370.38175549 77.48045791 371.13721091 C77.45381144 377.00170292 77.42587894 382.86618859 77.39779036 388.73067383 C77.37385486 393.72819865 77.35012083 398.72572435 77.3266449 403.72325134 C77.32170404 404.7660967 77.32170404 404.7660967 77.31666338 405.83000963 C77.27475141 414.73632268 77.24271069 423.6425982 77.22231019 432.54898655 C77.21030874 437.6662994 77.19503496 442.78360032 77.17956352 447.9009037 C77.17341132 450.25981516 77.16892237 452.61873168 77.16629028 454.97764969 C77.16260583 458.21824489 77.15305121 461.45877751 77.14234924 464.69935608 C77.14293715 465.61389165 77.14352505 466.52842723 77.14413077 467.470676 C77.10698166 475.7070552 76.5169635 483.72858396 76 492 C50.92 492 25.84 492 0 492 C0 329.64 0 167.28 0 0 Z " fill="#FEF7DF" transform="translate(3866,549)"/>
<path d="M0 0 C22.41209717 20.29887154 34.44090508 49.39029615 36.34765625 79.40625 C37.50405225 112.16317022 24.7726228 144.32463312 5 170 C4.27941406 170.93714844 3.55882813 171.87429688 2.81640625 172.83984375 C1.52006673 174.47985223 0.20595169 176.10603106 -1.12890625 177.71484375 C-2.38980994 179.25477832 -3.60594295 180.83233921 -4.77734375 182.44140625 C-10.44681339 190.10058405 -17.34958779 195.45838004 -25 201 C-25.6403418 201.46583496 -26.28068359 201.93166992 -26.94042969 202.41162109 C-36.56138337 209.35262334 -46.4814847 215.51788286 -57 221 C-57.81227051 221.42780762 -58.62454102 221.85561523 -59.46142578 222.29638672 C-104.9334613 245.96571055 -155.60168033 252.6859769 -206 257 C-197.78354939 279.34496798 -189.37831904 301.79921294 -175 321 C-174.26136719 321.99128906 -173.52273438 322.98257812 -172.76171875 324.00390625 C-157.99476934 342.86258587 -139.69001662 354.41725057 -116 358 C-91.77349658 359.95833231 -70.7600777 353.61976827 -52 338 C-27.62520737 316.52250297 -14.03846248 287.77113465 0 259 C7.26 259 14.52 259 22 259 C23.70443587 264.99135034 25.37304149 270.98753841 27 277 C27.2995459 278.10311523 27.5990918 279.20623047 27.90771484 280.34277344 C38.2776361 318.90541726 38.2776361 318.90541726 31.5 334.4375 C11.32375189 365.88004723 -31.91814679 381.9728799 -66.5 390.75 C-112.08035316 400.34287632 -161.16606429 393.03905048 -202 371 C-202.61214355 370.67386719 -203.22428711 370.34773438 -203.85498047 370.01171875 C-216.51345503 363.22447791 -227.59548573 354.88111645 -238 345 C-238.474375 344.55285645 -238.94875 344.10571289 -239.4375 343.64501953 C-279.4494824 305.70396981 -298.30594383 246.01469306 -300.06851196 191.89639282 C-300.21183998 186.03547717 -300.24607326 180.17498316 -300.25 174.3125 C-300.25067474 173.40470795 -300.25134949 172.49691589 -300.25204468 171.56161499 C-300.2347464 156.86761433 -299.63378286 142.49099036 -297 128 C-296.75056641 126.62569824 -296.75056641 126.62569824 -296.49609375 125.22363281 C-292.57594653 104.57026461 -286.19995177 84.41518387 -276 66 C-275.35592456 64.79081497 -274.71269216 63.58118051 -274.0703125 62.37109375 C-266.66093035 48.6610258 -256.64278327 37.21863283 -246.39355469 25.59326172 C-245.25913287 24.29626859 -244.14585226 22.98080778 -243.0390625 21.66015625 C-215.04037859 -11.73339602 -169.71352388 -29.25304034 -127.3359375 -33.53125 C-83.43225928 -37.18873534 -34.59324529 -29.32596103 0 0 Z M-159 17 C-159.53431641 17.41620605 -160.06863281 17.83241211 -160.61914062 18.26123047 C-174.19444669 28.95802412 -184.83692294 40.7380921 -193 56 C-193.3398291 56.62745117 -193.6796582 57.25490234 -194.02978516 57.90136719 C-217.77631804 102.16917455 -222.04861942 151.374195 -220.8125 200.8125 C-220.79461426 201.9660498 -220.77672852 203.11959961 -220.75830078 204.30810547 C-220.49196213 212.11880087 -218.84696992 218.73024959 -216 226 C-164.81846648 230.27475562 -116.32544929 216.12713344 -77 183 C-70.94613567 177.6537302 -65.97547547 171.33791069 -61 165 C-60.32839844 164.14535156 -59.65679687 163.29070312 -58.96484375 162.41015625 C-38.12815248 134.86264195 -29.93477296 101.63094906 -34.3125 67.48828125 C-36.88403331 49.56790848 -43.62432628 33.66251515 -54 19 C-54.46792969 18.30261719 -54.93585938 17.60523438 -55.41796875 16.88671875 C-63.97834649 5.42898239 -80.63294417 -1.17307822 -94.1875 -3.3125 C-96.45538649 -3.56919484 -98.72632576 -3.80098535 -101 -4 C-101.82757813 -4.08378906 -102.65515625 -4.16757812 -103.5078125 -4.25390625 C-123.2441191 -5.29089863 -143.89968154 5.21485298 -159 17 Z " fill="#FEF6DE" transform="translate(4508,656)"/>
<path d="M0 0 C1.18360906 -0.00260775 2.36721812 -0.00521549 3.58669412 -0.00790226 C4.88325453 -0.00567154 6.17981494 -0.00344082 7.51566505 -0.0011425 C8.91014574 -0.00229482 10.30462612 -0.00388309 11.69910586 -0.00586975 C15.53134989 -0.01004877 19.36356905 -0.00797869 23.19581318 -0.00488353 C27.32981155 -0.00262348 31.4638056 -0.00611233 35.59780312 -0.00886345 C43.70152741 -0.01331575 51.80524246 -0.01234645 59.90896712 -0.00945081 C66.50476158 -0.00719186 73.10055345 -0.0068864 79.69634819 -0.00797462 C80.6354283 -0.00812786 81.5745084 -0.00828109 82.54204548 -0.00843897 C84.45004299 -0.00875871 86.3580405 -0.00908292 88.26603802 -0.00941156 C106.17456821 -0.01226549 124.08309329 -0.00898215 141.99162264 -0.00361119 C157.31845649 0.00084366 172.64528276 0.00009167 187.97211647 -0.00452995 C205.788933 -0.00989993 223.60574502 -0.01197702 241.42256224 -0.00891769 C243.32901994 -0.00859917 245.23547765 -0.0082848 247.14193535 -0.00797462 C248.54871077 -0.00774321 248.54871077 -0.00774321 249.9839059 -0.00750712 C256.55350803 -0.00664824 263.12310728 -0.00809152 269.69270897 -0.01045418 C277.72661518 -0.01327992 285.76051165 -0.01245661 293.79441677 -0.00717343 C297.88429446 -0.00457145 301.97415599 -0.00347061 306.06403351 -0.00682259 C323.44006446 -0.01993498 340.76888485 0.15821822 358.12348366 1.12584114 C358.46150645 2.71750293 358.79949781 4.3091714 359.13747597 5.90084267 C359.32569829 6.78720232 359.51392061 7.67356198 359.70784664 8.58678102 C360.57194185 12.66009598 361.42883043 16.7349194 362.28608131 20.80967903 C362.75544245 23.03568614 363.2267491 25.26128405 363.70014381 27.48643684 C370.63960676 60.12245232 370.63960676 60.12245232 370.12348366 77.12584114 C348.75891974 79.84846173 348.75891974 79.84846173 341.52973366 75.60240364 C338.42713965 72.91995257 335.83670735 69.95674129 333.19062233 66.83213997 C326.1096115 58.50720295 318.20278741 54.9244267 308.12348366 51.12584114 C306.92852272 50.64115364 305.73356178 50.15646614 304.50238991 49.65709114 C284.39988897 42.17284561 262.54341736 40.40764457 241.34638405 38.469347 C240.5187455 38.39342323 239.69110695 38.31749947 238.83838844 38.23927498 C237.31172985 38.10084399 235.78477906 37.9655673 234.25745583 37.83467293 C226.82919272 37.17134195 219.54491906 36.11536586 212.12348366 35.12584114 C212.12348366 186.26584114 212.12348366 337.40584114 212.12348366 493.12584114 C185.72348366 493.12584114 159.32348366 493.12584114 132.12348366 493.12584114 C132.12348366 341.98584114 132.12348366 190.84584114 132.12348366 35.12584114 C87.88329782 37.94968279 59.94371221 40.57488446 23.12348366 59.12584114 C22.11592018 59.62905891 21.1083567 60.13227669 20.070261 60.65074348 C17.20554426 62.08663854 14.35017153 63.53926527 11.49848366 65.00084114 C10.65245583 65.42840706 9.80642799 65.85597298 8.93476295 66.29649544 C4.31263327 68.70834637 0.48011585 71.27418228 -3.28423119 74.89586067 C-6.54825296 77.41719488 -10.09093326 77.24668755 -14.07964134 77.22349739 C-15.05932884 77.22027473 -16.03901634 77.21705208 -17.04839134 77.21373177 C-18.06417259 77.20535286 -19.07995384 77.19697395 -20.12651634 77.18834114 C-21.67339134 77.18157356 -21.67339134 77.18157356 -23.25151634 77.17466927 C-25.79324207 77.16290202 -28.33484954 77.14646125 -30.87651634 77.12584114 C-29.53379979 65.1012377 -27.63717539 53.2089005 -25.52739525 41.29698372 C-24.99954357 38.30214837 -24.48674255 35.30496548 -23.97417259 32.30748177 C-19.67213238 7.62405121 -19.67213238 7.62405121 -13.93901634 2.50084114 C-9.25706574 0.39874087 -5.10046802 0.00081064 0 0 Z " fill="#FEF5DE" transform="translate(3463.876516342163,547.8741588592529)"/>
</svg>
